<?xml version="1.0" standalone="no"?>
<!DOCTYPE svg PUBLIC "-//W3C//DTD SVG 1.1//EN" "http://www.w3.org/Graphics/SVG/1.1/DTD/svg11.dtd" >
<svg xmlns="http://www.w3.org/2000/svg" xmlns:xlink="http://www.w3.org/1999/xlink" version="1.1">
<metadata>
Created by FontForge 20170731 at Mon Feb  5 23:44:48 2018
 By Aleksey,,,
Copyright (c) 2018 by Vladimir Nikolic. All rights reserved.
</metadata>
<defs>
<font id="ClosenessOutline-Italic" horiz-adv-x="622" >
  <font-face 
    font-family="Closeness Outline"
    font-weight="400"
    font-style="italic"
    font-stretch="normal"
    units-per-em="1000"
    panose-1="0 0 0 0 0 0 0 0 0 0"
    ascent="750"
    descent="-250"
    x-height="718"
    cap-height="720"
    bbox="-244 -315 1069 966"
    underline-thickness="50"
    underline-position="-150"
    unicode-range="U+000D-007A"
  />
<missing-glyph horiz-adv-x="387" 
 />
    <glyph glyph-name=".notdef" horiz-adv-x="387" 
 />
    <glyph glyph-name=".null" horiz-adv-x="0" 
 />
    <glyph glyph-name="nonmarkingreturn" unicode="&#xd;" horiz-adv-x="387" 
 />
    <glyph glyph-name="NULL" horiz-adv-x="0" 
 />
    <glyph glyph-name="NULL" horiz-adv-x="0" 
 />
    <glyph glyph-name="space" unicode=" " horiz-adv-x="387" 
 />
    <glyph glyph-name="exclam" unicode="!" horiz-adv-x="219" 
d="M301 720l-74 -532h-4l-10 -28h10l-25 -182h-4l-18 -51h-177l25 176l12 34h-8l74 526l13 38l3 19h183zM137 699l-69 -490h140l69 490h-140zM59 139l-20 -140h140l20 140h-140z" />
    <glyph glyph-name="quotedbl" unicode="&#x22;" horiz-adv-x="370" 
d="M461 723l-25 -182h-4l-18 -51h-44q-10 -17 -21.5 -36t-19.5 -34h-102l10 70h-38q-10 -17 -21.5 -36t-19.5 -34h-102l13 90l22 156l13 38l3 19h354zM297 702l-20 -140l-10 -70h70l41 70h39l20 140h-140zM126 702l-20 -140l-10 -70h70l41 70h39l20 140h-140z" />
    <glyph glyph-name="parenleft" unicode="(" horiz-adv-x="216" 
d="M286 623q-1 -1 -1 -3zM371 -264h-4l-18 -51q-56 0 -108 13.5t-94.5 40t-74.5 64t-48 85.5q-8 21 -10.5 47t-2.5 56q0 62 9 130t17 122l7 50l10 69q8 59 20 129.5t32 131.5q9 37 21 69.5t27 58.5q30 46 73 83.5t93.5 64t107 41t113.5 14.5l-25 -182h-4l-18 -51
q-63 0 -119.5 -32.5t-89.5 -83.5q-5 -22 -10.5 -58t-11 -73.5t-10.5 -71t-7 -50.5q-1 -5 -1 -9l-4 -31q-4 -26 -9.5 -65t-10.5 -77t-8 -68.5t-2 -39.5q3 -32 17.5 -58t39 -45.5t57.5 -30t71 -10.5zM372 -103q-37 0 -69 12t-56 34t-39 52t-18 66q-1 8 1.5 30t5.5 51t7.5 61.5
t8.5 61.5t7 50.5t4 29.5q1 7 4.5 29t7.5 51t8.5 61.5t9.5 61.5t8.5 51t6.5 30q13 36 37 66t54 52t65 34t72 12l20 140q-51 0 -100.5 -13t-94.5 -38t-83.5 -60.5t-66.5 -81.5q-22 -36 -37 -88.5t-25.5 -109t-16.5 -109t-12 -88.5q-5 -36 -13 -89t-14 -109.5t-6 -109.5t12 -89
q15 -46 43.5 -81.5t67 -60t84.5 -37t97 -12.5z" />
    <glyph glyph-name="parenright" unicode=")" horiz-adv-x="216" 
d="M169 -18l1 1zM270 752q8 -22 10.5 -48t2.5 -57q0 -56 -8 -120.5t-16 -115.5l-4 -27q-1 -8 -2.5 -15t-2.5 -15l-6 -45q-5 -38 -12 -83.5t-16.5 -92t-22 -89.5t-28.5 -74v-2q-12 -36 -29 -64q-29 -48 -70.5 -86.5t-91 -65.5t-105.5 -41.5t-113 -14.5l25 176l14 38l2 19
q34 0 67 10t61.5 27.5t51.5 41t38 51.5q4 27 10 65t11.5 75t9.5 66.5t6 38.5l6 45v1q4 27 8.5 63t9 70.5t8 62.5t3.5 39q-4 31 -19.5 58t-40 47t-56.5 31.5t-69 11.5l25 176l14 38l2 19q59 0 111 -15t94 -43t73.5 -67.5t48.5 -88.5zM250 745q-16 46 -43.5 83t-65.5 63
t-83 40t-96 14l-20 -140q37 0 69 -12.5t56 -34t39 -52t18 -66.5q0 -7 -2 -29t-5 -51t-8 -61.5t-9 -61.5t-7 -51t-4 -30t-4 -29.5t-7 -50.5t-8.5 -61.5t-10 -61.5t-9.5 -51t-6 -29q-13 -36 -36.5 -66.5t-53.5 -52t-65.5 -34t-72.5 -12.5l-20 -140q51 0 100 14t94.5 40
t83.5 63t66 82q22 36 37 88t24.5 107t16 106.5t11.5 87.5t13.5 88t14 106.5t5.5 106.5t-12 88z" />
    <glyph glyph-name="comma" unicode="," horiz-adv-x="207" 
d="M211 161l-25 -182h-4l-18 -51h-44q-10 -17 -21.5 -36t-19.5 -34h-102l13 90l22 156l13 38l3 19h183zM47 140l-20 -140l-10 -70h70l41 70h39l20 140h-140z" />
    <glyph glyph-name="hyphen" unicode="-" horiz-adv-x="353" 
d="M406 463l-25 -182h-4l-18 -51h-329l25 176l13 38l3 19h335zM90 442l-20 -140h292l20 140h-292z" />
    <glyph glyph-name="period" unicode="." horiz-adv-x="207" 
d="M216 161l-25 -182h-4l-18 -51h-177l25 176l13 38l3 19h183zM52 140l-20 -140h140l20 140h-140z" />
    <glyph glyph-name="slash" unicode="/" horiz-adv-x="438" 
d="M562 720l-12 -23l-12 -34l-385 -735h-192l18 51h-4l389 741h198zM377 699l-367 -699h151l366 699h-150z" />
    <glyph glyph-name="zero" unicode="0" horiz-adv-x="632" 
d="M618 70v-1l2 6zM601 21q0 2 2 6zM445 157q12 83 24 162t24 166h-229q-5 -32 -10 -64.5t-9 -64.5q-8 -50 -15 -98t-14 -101h229zM637 151l-3 -20q-3 -23 -7 -43t-17 -39l-9 -28q-6 -17 -18 -33t-35 -33q-37 -25 -67.5 -28.5t-62.5 -2.5q-6 0 -12.5 0.5t-12.5 0.5
q-19 0 -37.5 -0.5t-36.5 -0.5h-134q-21 0 -41 1t-40 4q-46 7 -72 39.5t-21 81.5l41 292l21 146q2 18 4.5 34t7.5 31l3 8h-1l6 17q5 29 19.5 54.5t47.5 50.5q20 14 37 21.5t33 10.5t31.5 3h32.5h202q26 0 53 -0.5t54 -5.5q21 -5 40 -16t32 -27t19.5 -36.5t3.5 -43.5l-21 -146
q-5 -37 -10 -73.5t-10 -72.5zM193 136l59 421h280l-59 -421h-280zM636 299l41 292q3 19 -1.5 36.5t-15.5 30.5t-26 21.5t-34 11.5q-36 6 -70.5 6h-70.5h-145q-18 0 -35.5 0.5t-34 -1.5t-34 -8.5t-37.5 -20.5q-20 -15 -31.5 -29.5t-18 -30t-9 -32.5t-4.5 -36l-21 -145
l-41 -292q-2 -20 2.5 -37t15 -30.5t26.5 -22t34 -11.5q35 -6 69.5 -5.5t69.5 0.5q37 0 73.5 0.5t73.5 0.5q18 0 35.5 -1t35.5 0.5t36 7.5t38 20q20 15 31 30t16 30.5t7 33t5 36.5z" />
    <glyph glyph-name="one" unicode="1" horiz-adv-x="343" 
d="M431 721l-103 -742h-4l-18 -51h-177l59 420l8 55l-38 -32l-110 126l18 50l-3 4l196 170h172zM267 700l-174 -151l86 -98l61 53l-15 -104l-56 -400h140l98 700h-140z" />
    <glyph glyph-name="two" unicode="2" horiz-adv-x="639" 
d="M643 265q-14 -42 -51.5 -68.5t-80.5 -26.5h-286q-1 -3 -1 -8h421l-8 -59l-17 -123h-4l-18 -51h-597l18 126l24 171q1 13 6 25l10 27v2q6 28 23 54q7 11 15.5 20t18.5 17q18 14 39.5 23t44.5 9h288l12 82h-230l-2 -19h-4l-18 -51h-177l18 125l11 33v-1l-11 -32q2 10 4 15
l10 31l2 8q5 24 19 46.5t33 39.5t42 27.5t47 10.5h350q26 0 47.5 -10.5t36 -28t22 -41t5.5 -48.5l-5 -35l-29 -210q-4 -28 -18 -52l-7 -20zM621 141h-140h-280l14 101h315q22 0 42 8t36 22.5t27.5 33.5t14.5 41l29 210l5 35q3 22 -2.5 41t-17.5 33t-30 22.5t-40 8.5h-350
q-22 0 -42 -8.5t-36.5 -22.5t-27.5 -33t-14 -41l-15 -105h140l10 70h280l-19 -140l-5 -35h-315q-22 0 -42.5 -8.5t-37 -22.5t-27 -33.5t-13.5 -40.5l-24 -171l-15 -105h105h350h105l15 105z" />
    <glyph glyph-name="three" unicode="3" horiz-adv-x="631" 
d="M559 5q30 19 47 46v3q-19 -30 -47 -49zM261 485l-2 -19h-4l-5 -13h236q2 7 2.5 14.5t2.5 17.5h-230zM223 220l-5 -45q0 -8 -1 -12h228l9 57h-231zM638 327q8 -15 10.5 -33.5t0.5 -38.5l-8 -59l-13 -91q-4 -17 -12 -34l-13 -38l-3 -8q-14 -42 -51.5 -68.5t-82.5 -26.5
h-348q-26 0 -47 10t-35.5 27t-21.5 39.5t-4 48.5l10 70l6 51l14 40l2 17h132l24 163l6 19h-144l9 64q4 26 7.5 50t11.5 44l1 3q0 -1 -0.5 -1.5t-0.5 -1.5l3 8q-1 -1 -1 -2t-1 -3l2 7l1 1l-1 -1l1 2v-1v2v-1l4 10q6 27 17 49.5t30.5 39t49 25.5t73.5 9h4l280 2h4
q26 0 49.5 -3t49.5 -21q26 -20 35.5 -43t7.5 -54q0 -29 -3.5 -55.5t-7.5 -49.5q0 -2 -0.5 -2.5t-0.5 -2.5l-4 -23l-6 -38q-3 -17 -7 -30.5t-12 -24.5l-8 -24v2v-2l-3 -8zM357 432h-124l-20 -140h280l-11 -80l-2 -14l-8 -56h-280l5 35l5 35h-140l-5 -35l-10 -70
q-3 -22 2.5 -41t18 -33.5t30 -22.5t39.5 -8h37h311q22 0 43 8t37.5 22.5t27.5 33.5t14 41l13 91l8 59q4 31 -3.5 51t-31.5 37q29 17 42 37t18 50q3 23 7 43.5t7 40t5.5 40t2.5 43.5q2 26 -6 46t-28 35q-20 14 -42 16.5t-45 2.5h-4l-280 -2h-4q-58 0 -89 -16t-46 -44.5
t-19.5 -67t-11.5 -82.5h140l10 70h280l-17 -125h-156z" />
    <glyph glyph-name="four" unicode="4" horiz-adv-x="638" 
d="M340 303h80l6 38t7 49zM678 303l-25 -182h-4l-18 -51h-52v-3l-12 -88h-4l-18 -51h-176l20 142h-382l24 166l14 39l2 16l451 430h172l-59 -418h67zM256 282l221 210l-29 -210h-192zM588 282l58 418h-140l-439 -418l-20 -140h381l-20 -142h140l20 142h66l20 140h-66z" />
    <glyph glyph-name="five" unicode="5" horiz-adv-x="619" 
d="M630 137l-5 -35q-4 -28 -18 -52l-7 -20l-3 -8q-14 -42 -51.5 -68.5t-80.5 -26.5h-350q-27 0 -48.5 9.5t-36 26.5t-21 40t-2.5 49l9 70l6 51l14 40l2 17h183l-8 -70h228q3 17 5.5 34.5t4.5 34.5q0 7 2 15h-420l18 125l25 175l17 121l13 38l3 19h603l-18 -128l-6 -54h-4
l-18 -51h-407l-2 -12h291q27 0 49 -10t36.5 -27.5t21.5 -41t4 -49.5zM638 351q3 22 -2.5 41t-17.5 33t-30 22.5t-40 8.5h-315l15 105h280h140l5 35l15 105h-105h-350h-105l-15 -105l-25 -175l-15 -105h105h315l-5 -35l-19 -142h-280l9 70h-140l-5 -35l-9 -70q-3 -22 2 -41
t17.5 -33.5t30.5 -22.5t40 -8h350q22 0 42 8t36 22.5t27.5 33.5t14.5 41l5 35z" />
    <glyph glyph-name="six" unicode="6" horiz-adv-x="620" 
d="M587 720q25 0 47 -10.5t37 -28t22.5 -41t4.5 -49.5q-2 -14 -4 -30t-4 -30l-8 -63h-4l-18 -51h-41q23 -17 33 -45t7 -60l-29 -210q-5 -29 -19 -52l-6 -20l-4 -8q-14 -42 -51 -68.5t-81 -26.5h-349q-26 0 -47.5 10t-36 27t-21.5 39.5t-4 48.5l6 35l9 70l25 175l29 210
l14 39v1l-14 -40q1 10 5 23l6 14l3 12l1 5q4 26 17 48.5t32 39.5t42.5 26.5t50.5 9.5h350zM677 594q3 22 -2.5 41t-18 33t-30.5 22.5t-39 8.5h-350q-23 0 -43 -8.5t-36 -22.5t-27 -33t-15 -41l-28 -210l-25 -175l-10 -70l-4 -35q-6 -45 19.5 -75t69.5 -30h350q22 0 42 8
t36.5 22.5t28 33.5t14.5 41l29 210q6 44 -20 74.5t-70 30.5h-315l19 140h281l-10 -70h139zM262 487l-5 -47h229l8 47h-232zM493 279l-19 -140h-280l9 70l10 70h280zM447 215h-212l-10 -54h213z" />
    <glyph glyph-name="seven" unicode="7" horiz-adv-x="584" 
d="M677 722l-24 -170l-10 -15l-12 -36l-357 -572h-198l18 51h-5l317 509h-338l25 176l13 38l3 19h568zM128 701l-20 -140h369l-349 -560h155l350 560l20 140h-525z" />
    <glyph glyph-name="eight" unicode="8" horiz-adv-x="624" 
d="M644 331v1l1 1zM87 572q0 2 1 3zM446 160q2 11 3.5 22.5t3.5 24.5h-230l-6 -47h229zM486 440l7 47h-231l-6 -47h230zM601 22q-14 -42 -51.5 -68.5t-80.5 -26.5h-350q-26 0 -47.5 10t-36 27t-21 39.5t-3.5 48.5l19 140q3 20 9 37l8 24q5 28 15 47q-12 28 -7 67l6 55
q3 32 7.5 65t13.5 68q1 8 5 17l2 5q-1 -1 -1 -2l4 13l6 22q8 28 24 50.5t43 39.5q24 14 44.5 17t43.5 3h100q91 0 145.5 -0.5t85 -2.5t44.5 -6.5t26 -12.5q49 -35 44 -95q-2 -28 -5.5 -54t-7.5 -51q0 -4 -1 -8t-1 -8q-3 -17 -5.5 -32.5t-4.5 -32.5q-5 -33 -19 -55l-9 -29v1
l-1 -2v-1l-7 -15q10 -16 12 -34t-1 -41l-19 -139q-4 -28 -18 -52l-7 -20zM193 139l19 140h280l-19 -140h-280zM267 699h-14q-20 0 -38.5 -2.5t-38.5 -14.5q-25 -15 -38 -33t-20 -44q-12 -47 -16 -93t-10 -93q-4 -30 3.5 -50t31.5 -37q-29 -17 -42 -37t-18 -51l-19 -140
q-3 -22 2 -41t17.5 -33.5t30.5 -22.5t40 -8h350q22 0 42 8t36 22.5t27.5 33.5t14.5 41l19 140q5 31 -3 51t-31 37q28 17 41.5 37t17.5 50q6 47 14.5 93t10.5 93q2 26 -6.5 44t-28.5 33q-10 7 -25 10.5t-52.5 5t-106.5 1.5h-187h-4zM232 419l20 140h280l-20 -140h-280z" />
    <glyph glyph-name="nine" unicode="9" 
d="M85 572q0 -1 -0.5 -1.5t-0.5 -1.5zM260 488l-6 -47h229q2 15 4 22.5t4 24.5h-231zM220 208l-6 -47h230q2 11 3.5 22.5t3.5 24.5h-231zM599 23q-14 -42 -51.5 -68.5t-80.5 -26.5h-350q-27 0 -48.5 9.5t-36 26.5t-21 40t-2.5 49l17 121l13 38l3 19h43q-22 17 -32 43.5
t-5 58.5l30 211q2 13 6 25l10 28q3 26 16 48.5t32 39.5t43 26.5t49 9.5h350q26 0 47 -10.5t36 -28t22.5 -41t6.5 -48.5l-5 -35l-10 -71l-25 -174l-29 -210q-4 -28 -18 -52l-7 -20zM510 420h-280l20 140h280l-10 -70zM660 490l10 70l5 35q3 22 -3 41t-18 33t-30 22.5t-40 8.5
h-350q-22 0 -42 -8.5t-36.5 -22.5t-27 -33t-13.5 -41l-30 -210q-3 -22 2.5 -41t18 -33.5t30 -22.5t39.5 -8h315l-19 -140h-280l10 70h-140l-15 -105q-3 -22 2 -41t17.5 -33.5t30.5 -22.5t40 -8h350q22 0 42 8t36 22.5t27.5 33.5t14.5 41l29 210z" />
    <glyph glyph-name="colon" unicode=":" horiz-adv-x="207" 
d="M216 161l-25 -182h-4l-18 -51h-177l25 176l13 38l3 19h183zM296 721l-24 -182h-4l-18 -51h-177l24 176l13 38l3 19h183zM132 700l-19 -140h140l19 140h-140zM52 140l-20 -140h140l20 140h-140z" />
    <glyph glyph-name="semicolon" unicode=";" horiz-adv-x="207" 
d="M296 721l-24 -182h-4l-18 -51h-177l24 176l13 38l3 19h183zM211 161l-25 -182h-4l-18 -51h-44q-10 -17 -21.5 -36t-19.5 -34h-102l13 90l22 156l13 38l3 19h183zM47 140l-20 -140l-10 -70h70l41 70h39l20 140h-140zM132 700l-19 -140h140l19 140h-140z" />
    <glyph glyph-name="question" unicode="?" horiz-adv-x="582" 
d="M81 569v1v-1zM597 309q0 2 2 6zM97 614q-4 -7 -5 -13zM651 559l-22 -153q-6 -40 -24 -73l-1 -3l-7 -21q-14 -42 -46.5 -71t-84.5 -29h-74q0 -5 -0.5 -10t-1.5 -10h-4l-10 -28h9l-25 -182h-4l-18 -51h-177l25 176l12 34h-6l16 126q2 13 6 23l9 27l1 4q4 26 17 48.5
t31.5 39.5t42.5 26.5t50 9.5h79l7 47h-195l-2 -19h-4l-18 -51h-177l18 125q1 5 2 8.5t3 7.5l3 9v-1l1 3l-1 -1l6 18l2 10q5 24 18.5 46.5t32.5 39.5t42.5 27.5t47.5 10.5h315q27 0 48.5 -10t36.5 -27.5t22 -41t4 -50.5zM635 596q3 22 -3 41t-18 33t-29.5 22.5t-39.5 8.5
h-315q-22 0 -42.5 -8.5t-37 -22.5t-27 -33t-13.5 -41l-15 -105h140l10 70h245l-20 -140h-105q-22 0 -42 -8.5t-36.5 -22.5t-27 -33t-14.5 -41l-14 -106h140l9 71h105q29 0 50.5 10.5t36.5 28t24 40.5t12 48l22 153zM221 140l-20 -140h140l20 140h-140z" />
    <glyph glyph-name="A" unicode="A" horiz-adv-x="682" 
d="M341 302h65q-5 18 -9.5 37t-9.5 48zM534 722l165 -742h-5l-18 -51h-187l-31 140h-233l-71 -140h-189l18 51h-4l375 742h180zM303 281l110 215l47 -215h-157zM367 701l-354 -700h149l71 140h259l31 -140h149l-156 700h-149z" />
    <glyph glyph-name="B" unicode="B" horiz-adv-x="644" 
d="M655 331v1l1 1zM456 160l5 32q0 7 2 15h-229l-5 -35q0 -8 -1 -12h228zM273 487l-6 -47h230l7 47h-231zM612 22q-14 -42 -51.5 -68.5t-80.5 -26.5h-476l18 125l9 70l15 106l10 69l51 366l13 38l3 19h451q25 0 47 -2.5t44 -18.5q26 -20 36 -41.5t9 -53.5q-2 -30 -6 -60.5
t-9 -58.5q0 -2 -0.5 -4t-0.5 -4q-3 -15 -5.5 -29.5t-4.5 -30.5q-5 -33 -19 -55l-9 -29v1l-1 -2v-1l-7 -15q10 -16 12 -34t-1 -41l-19 -139q-4 -28 -18 -52l-7 -20zM204 139l4 35l10 70l5 35h280l-5 -35l-10 -70l-4 -35h-280zM689 605q1 26 -7 44t-29 33q-19 14 -41 15.5
t-46 1.5h-4h-280h-140l-49 -350l-10 -70l-15 -105l-9 -70l-15 -105h105h35h315q22 0 42 8t36 22.5t27.5 33.5t14.5 41l19 140q5 31 -3 51t-31 37q28 17 41.5 37t17.5 50q6 47 15 93t11 93zM367 419h-124l20 140h280l-20 -140h-156z" />
    <glyph glyph-name="C" unicode="C" 
d="M610 77q0 1 0.5 2t0.5 2zM589 721q31 -2 51.5 -13t32.5 -28t16.5 -38.5t4.5 -45.5t-3 -49t-7 -45v-8t-1 -7q0 -4 -0.5 -8.5t-0.5 -6.5h-4l-18 -51h-178l10 70h-229q-5 -32 -10 -64.5t-9 -64.5q-8 -50 -15 -97.5t-14 -100.5h230l2 13l14 39l2 18h183q-3 -20 -6 -43.5
t-8 -47t-12.5 -47t-18.5 -43.5l-5 -16q-8 -22 -19 -41.5t-27 -34.5t-38 -23.5t-50 -8.5h-271q-20 0 -53.5 2t-64.5 14t-51.5 39.5t-13.5 78.5q7 46 12 81t8.5 62t6.5 47.5t5 37.5t4 32.5t4.5 31.5t5 34.5t6.5 42.5q3 28 8.5 52.5t13.5 54.5l8 22l-2 -5q0 2 1 4l-4 -11v1
l3 10l-2 -5v1l1 1l3 9l1 4v1l16 43q0 2 2 6q9 25 23 44q17 20 39 32t46 18q3 0 4 1q24 5 48.5 6.5t47.5 1.5h24q14 0 25.5 -0.5t22.5 -0.5h36q26 -1 62 -1h101h1zM588 700q-57 0 -90.5 0.5t-58 0.5t-46 0.5t-52.5 0.5q-30 0 -63.5 0.5t-64.5 -8t-55.5 -30t-36.5 -66.5
q-8 -32 -14 -57.5t-10 -57.5q-5 -32 -8 -54t-6 -42.5t-6 -42t-7 -52t-10 -73t-15 -104.5q-6 -44 12.5 -67t46 -33.5t58 -12t48.5 -1.5h79.5h67h61.5h63q45 0 70.5 22t40 54t20.5 69t10 67h-140l-10 -70h-280l59 420h280l-10 -70h140q5 30 9.5 65t0.5 66t-22 52t-61 24z" />
    <glyph glyph-name="D" unicode="D" horiz-adv-x="630" 
d="M446 162q12 83 24 161.5t24 165.5h-229q-5 -32 -10 -64.5t-9 -64.5q-8 -50 -15 -97.5t-14 -100.5h229zM617 717q49 -16 65 -42t16 -60q0 -23 -3 -42q-2 -8 -2 -10l-3 -22q-3 -33 -8 -68.5t-10 -67.5l-4 -30l-4 -26l-26 -191q-5 -33 -11 -62t-21 -52l-7 -21
q-11 -29 -33 -52t-70 -37q-8 -2 -35.5 -3t-58.5 -1.5t-58 -0.5h-34h-316l18 126l69 490l17 120l14 39l2 18h266q12 0 24 0.5t24 0.5h34.5t59 -0.5t59 -2t36.5 -3.5zM194 141l59 420h280l-59 -420h-280zM611 697q-8 2 -34 3t-57 1.5t-58 0.5h-34q-48 0 -95 -0.5t-95 -0.5
h-105l-15 -105l-69 -490l-15 -105h105h35h155h33.5t57 0.5t57 1.5t34.5 3q33 10 53 25.5t30 36t14.5 44t8.5 49.5l26 190q7 48 14.5 96.5t11.5 96.5q3 25 6.5 48.5t-0.5 43.5t-18 35.5t-46 25.5z" />
    <glyph glyph-name="E" unicode="E" horiz-adv-x="594" 
d="M604 160l-25 -182h-4l-18 -51h-562l103 736l13 38l3 19h568l-24 -182h-4l-18 -51h-372l-6 -47h315l-25 -182h-4l-18 -51h-301l-6 -47h385zM195 139l19 140h315l20 140h-315l20 140h385l19 140h-525l-98 -700h525l20 140h-385z" />
    <glyph glyph-name="F" unicode="F" horiz-adv-x="623" 
d="M697 540h-4l-18 -51h-406l-6 -47h314l-25 -182h-4l-18 -51h-300q-2 -18 -4.5 -35.5t-4.5 -34.5l-22 -159h-4l-18 -51h-177l23 160l59 420l22 156l13 38l3 19h602zM279 701h-140l-20 -140l-59 -420l-20 -140h140l20 140l19 140h314l20 140h-314l20 140h419l20 140h-419z
" />
    <glyph glyph-name="G" unicode="G" horiz-adv-x="651" 
d="M99 571q0 1 2 5zM271 486q-5 -32 -10 -64.5t-9 -64.5q-8 -50 -15 -97.5t-14 -100.5h230q2 11 4 22.5t4 25.5h-176l25 175l13 38l3 19h167l6 47h-228zM596 714q32 -4 53 -15.5t33 -28t16.5 -37.5t4.5 -43q0 -20 -2.5 -40.5t-5.5 -38.5l-6 -44h-4l-10 -28h9l-33 -234
l-3 -24q-5 -31 -12.5 -64.5t-23.5 -62.5l-6 -17q-14 -41 -43 -71.5t-83 -35.5q-29 -2 -58 -2.5t-54 -0.5q-15 0 -30 0.5t-30 0.5q-18 0 -37 0.5t-39 0.5h-17q-32 0 -68 2.5t-65.5 14.5t-47 36t-13.5 66q4 32 8.5 64t8.5 63q12 91 24.5 180.5t28.5 183.5q2 9 4 16.5t4 15.5
l6 17l2 6q7 48 31 73.5t56 37t68 13t68 1.5h19h107t67 -0.5t42 -1.5t31 -3zM594 693q-15 2 -31 3t-42 1.5t-66.5 0.5h-105.5h-65t-67 -9t-57 -31.5t-32 -67.5q-21 -125 -37 -245.5t-33 -245.5q-6 -40 12.5 -60.5t48.5 -28.5t66 -8.5t66 -0.5q65 0 122 -1t125 2q46 2 70 23
t37 52t17 66t8 65l30 210h-315l-20 -139h175l-20 -141h-280l59 420h280l-9 -70h140q4 30 9 63.5t1 63t-22.5 51t-63.5 27.5z" />
    <glyph glyph-name="H" unicode="H" horiz-adv-x="647" 
d="M726 722l-104 -742h-4l-18 -51h-177l39 280h-229l-14 -104l-17 -125h-4l-18 -51h-177l104 736l13 38l3 19h183l-40 -280h229l32 223l13 37l3 20h183zM562 701l-40 -280h-280l40 280h-140l-99 -700h140l39 280h280l-39 -280h140l99 700h-140z" />
    <glyph glyph-name="I" unicode="I" horiz-adv-x="220" 
d="M301 720l-103 -742h-4l-18 -51h-177l103 736l13 38l3 19h183zM137 699l-98 -700h140l98 700h-140z" />
    <glyph glyph-name="J" unicode="J" horiz-adv-x="524" 
d="M491 26l1 3q0 1 1 2zM222 232l-10 -70h124q13 88 25.5 173.5t24.5 173.5l22 156l13 38l3 19h183l-80 -568l-3 -22q-3 -21 -7.5 -40.5t-16.5 -38.5l-6 -19l-1 -1v-1l-1 -3q-1 -1 -1 -3q-6 -18 -18 -34.5t-35 -33.5q-33 -23 -64.5 -27.5t-60.5 -2.5q-5 0 -13 0.5t-13 0.5
h-150q-39 0 -64 9t-39.5 25t-20 37.5t-5.5 46.5q0 23 3 45.5t7 45.5l6 37l13 37l3 20h182zM59 211q-6 -39 -11 -76.5t1 -67.5t30 -48t77 -18h150q18 0 35.5 -1t34 0.5t34.5 7t37 19.5q20 14 31 29t16 31t7 33.5t5 36.5l77 544h-105h-35l-20 -140l-59 -420h-175l10 70h-140z
" />
    <glyph glyph-name="K" unicode="K" horiz-adv-x="568" 
d="M702 721l-10 -11l-16 -46l-300 -334l219 -351h-7l-18 -51h-217l-137 220q-6 -43 -12.5 -85t-11.5 -84h-4l-18 -51h-177l103 736l13 38l3 19h183l-33 -231l208 231h232zM479 700l-246 -273l38 273h-140l-98 -700h140l39 274l169 -274h176l-217 350l315 350h-176z" />
    <glyph glyph-name="L" unicode="L" horiz-adv-x="541" 
d="M542 161l-25 -182h-4l-18 -51h-493l103 736l13 38l3 19h183l-78 -560h316zM202 140l78 560h-140l-98 -700h456l20 140h-316z" />
    <glyph glyph-name="M" unicode="M" horiz-adv-x="744" 
d="M825 721l-103 -742h-4l-18 -51h-177l55 385l-132 -175h-131l-74 152l-44 -311h-4l-18 -51h-177l103 736l13 38l3 19h172l140 -295l141 188l81 107h174zM661 700l-237 -313l-148 313h-140l-98 -700h140l61 433l106 -223h111l168 223l-61 -433h140l98 700h-140z" />
    <glyph glyph-name="N" unicode="N" horiz-adv-x="643" 
d="M722 719l-103 -742h-4l-18 -51h-167l-187 374l-11 -83l-33 -240h-4l-18 -51h-177l103 736l13 38l3 19h172l188 -374l44 317l13 39l3 18h183zM558 698l-61 -437l-219 437h-140l-98 -700h140l61 439l219 -439h140l98 700h-140z" />
    <glyph glyph-name="O" unicode="O" horiz-adv-x="632" 
d="M618 70v-1l2 6zM601 21q0 2 2 6zM445 157q12 83 24 162t24 166h-229q-5 -32 -10 -64.5t-9 -64.5q-8 -50 -15 -98t-14 -101h229zM637 151l-3 -20q-3 -23 -7 -43t-17 -39l-9 -28q-6 -17 -18 -33t-35 -33q-37 -25 -67.5 -28.5t-62.5 -2.5q-6 0 -12.5 0.5t-12.5 0.5
q-19 0 -37.5 -0.5t-36.5 -0.5h-134q-21 0 -41 1t-40 4q-46 7 -72 39.5t-21 81.5l41 292l21 146q2 18 4.5 34t7.5 31l3 8h-1l6 17q5 29 19.5 54.5t47.5 50.5q20 14 37 21.5t33 10.5t31.5 3h32.5h202q26 0 53 -0.5t54 -5.5q21 -5 40 -16t32 -27t19.5 -36.5t3.5 -43.5l-21 -146
q-5 -37 -10 -73.5t-10 -72.5zM193 136l59 421h280l-59 -421h-280zM636 299l41 292q3 19 -1.5 36.5t-15.5 30.5t-26 21.5t-34 11.5q-36 6 -70.5 6h-70.5h-145q-18 0 -35.5 0.5t-34 -1.5t-34 -8.5t-37.5 -20.5q-20 -15 -31.5 -29.5t-18 -30t-9 -32.5t-4.5 -36l-21 -145
l-41 -292q-2 -20 2.5 -37t15 -30.5t26.5 -22t34 -11.5q35 -6 69.5 -5.5t69.5 0.5q37 0 73.5 0.5t73.5 0.5q18 0 35.5 -1t35.5 0.5t36 7.5t38 20q20 15 31 30t16 30.5t7 33t5 36.5z" />
    <glyph glyph-name="P" unicode="P" 
d="M467 405l10 68q0 6 2 14h-207l-10 -70v-6t-1 -6h206zM675 521q0 -3 -1 -6.5t-1 -6.5l-6 -47q0 -4 -1 -9.5t-1 -9.5q-3 -29 -6.5 -56.5t-10.5 -52.5q-3 -12 -7.5 -23.5t-11.5 -21.5l-3 -11l-5 -13q-16 -46 -61 -73q-24 -14 -47 -16.5t-46 -2.5h-239l-27 -194h-4l-18 -51
h-177l103 736l13 38l3 19h447q28 0 51 -10t38.5 -27.5t22.5 -41.5t4 -52zM236 384l5 35l15 105l5 35h258l-5 -35l-15 -105l-5 -35h-258zM663 591q7 48 -20.5 78t-74.5 30h-288h-35h-105l-98 -700h140l34 245h101h161q23 0 45.5 1.5t46.5 15.5q24 15 37.5 33t19.5 44
q11 47 15.5 93t11.5 93z" />
    <glyph glyph-name="Q" unicode="Q" horiz-adv-x="624" 
d="M599 24q-1 -1 -1 -2zM218 193q-2 -8 -2.5 -16t-1.5 -16h23zM262 488q-5 -32 -10 -64.5t-9 -64.5l-11 -69h200l24 -41l34 239h-228zM594 12l46 -78h-7l-18 -51h-216l-30 51l-2 -6h-49q-13 0 -32 -0.5t-42 -0.5q-27 0 -56 0.5t-55 2.5t-45.5 5t-26.5 8q-29 17 -39.5 48.5
t-10.5 67.5q0 26 4.5 57.5t8.5 54.5q2 9 3.5 17.5t2.5 15.5l37 266q5 31 9 57.5t12 48.5l6 16q6 30 16 54t29 40.5t49 25.5t75 9h266q44 0 75.5 -4.5t51.5 -17.5t29 -35.5t9 -58.5q0 -14 -1.5 -27.5t-3.5 -30.5l-37 -266l-19 -131q0 -2 -0.5 -2.5t-0.5 -2.5v-5
q-3 -23 -7.5 -45t-15.5 -43l-10 -28v1l-1 -3zM475 172l-56 97h-172l182 -314h173l-42 72q17 13 26.5 27.5t14.5 30t7 32t4 33.5l19 133l37 266q7 48 3.5 77.5t-19.5 46t-46.5 22t-76.5 5.5h-266q-50 0 -78.5 -12.5t-45 -35.5t-23 -56t-12.5 -74l-37 -266q-3 -22 -10 -57.5
t-8.5 -72t6.5 -68t36 -46.5q6 -4 26.5 -6.5t47.5 -4t57 -1.5h57h47.5h27.5l-81 140h-82l59 420h280l-41 -291z" />
    <glyph glyph-name="R" unicode="R" horiz-adv-x="613" 
d="M626 282l2 5l-2 -6v1zM638 315l2 6l-2 -5l-1 -2zM467 407l10 68q0 6 2 14h-214l-10 -70v-6t-1 -6h213zM621 267q-8 -23 -23 -40.5t-37 -31.5q-15 -11 -32 -16l83 -199h-6l-18 -51h-199l-102 245h-66l-6 -41q-6 -39 -11 -78.5t-10 -74.5h-4l-18 -51h-177l104 736l13 38
l3 19h454q29 0 52.5 -10.5t39 -29t23 -43.5t3.5 -54l-10 -65l-3 -20q-1 -5 -1.5 -10.5t-0.5 -9.5l-3 -27q-6 -57 -21 -118q-5 -20 -17 -40l-1 -1l-4 -13q-1 -7 -5 -14zM229 386l5 35l15 105l5 35h265l-5 -35l-15 -105l-5 -35h-265zM666 588q3 24 -3 44.5t-19 36t-32 24
t-43 8.5h-295h-35h-105l-99 -700h140l35 245h109l101 -245h160l-101 245q24 0 46 1.5t46 16.5q24 14 37 32t20 44q12 48 17 91t11 90z" />
    <glyph glyph-name="S" unicode="S" horiz-adv-x="643" 
d="M107 611l2 4zM93 570q1 6 4 11zM269 489l-6 -47h230l7 47h-231zM229 209l-6 -47h230q2 11 3.5 22.5t3.5 24.5h-231zM636 104q-4 -28 -18 -52l-7 -20l-3 -8q-14 -42 -51.5 -68.5t-80.5 -26.5h-350q-27 0 -48.5 9.5t-36 26.5t-21 40t-2.5 49l17 121l13 38l3 19h43
q-22 17 -32 43.5t-5 58.5l30 211q2 13 6 25l8 24l2 4q3 26 16 48.5t32.5 39.5t43 26.5t49.5 9.5h350q26 0 47.5 -10t36.5 -27.5t22.5 -41t4.5 -50.5q-4 -30 -8.5 -62t-8.5 -61h-4l-18 -51h-44q23 -18 35 -46t8 -60zM644 316q4 22 -2 41t-18 33t-30 22.5t-40 8.5h-315l20 140
h280l-10 -70h140l15 105q3 22 -3 41t-18 33t-29.5 22.5t-39.5 8.5h-350q-22 0 -42.5 -8.5t-37 -22.5t-27 -33t-13.5 -41l-30 -210q-3 -22 2.5 -41t18 -33.5t30 -22.5t39.5 -8h315l-19 -140h-280l10 70h-140l-15 -105q-3 -22 2 -41t17.5 -33.5t30.5 -22.5t40 -8h350
q22 0 42 8t36 22.5t27.5 33.5t14.5 41z" />
    <glyph glyph-name="T" unicode="T" horiz-adv-x="601" 
d="M703 720l-24 -182h-4l-18 -51h-195l-72 -509h-4l-18 -51h-177l79 560h-210l24 176l13 38l3 19h603zM119 699l-19 -140h210l-79 -560h140l79 560h210l19 140h-560z" />
    <glyph glyph-name="U" unicode="U" horiz-adv-x="647" 
d="M527 663l13 38l3 19h183l-76 -543q-1 -6 -3.5 -22t-5.5 -33.5t-6 -32t-4 -18.5l-12 -25l-10 -28q-14 -35 -35 -54.5t-56 -30.5q-6 -2 -18.5 -3t-29 -2t-36.5 -1h-39h-179h-39.5t-36 1t-28.5 2t-16 3v1q-35 12 -51.5 29.5t-21.5 54.5q-2 20 0 42t5 42l4 25l75 536l13 38
l3 19h183l-78 -560h228zM69 179q-3 -25 -7.5 -52t-1.5 -53q4 -31 18 -45.5t44 -24.5q7 -3 36.5 -4t63.5 -1h64h38h38h65t65.5 1t39.5 4q31 10 49 27t30 48q2 4 4.5 18.5t5.5 31.5t5.5 31.5t2.5 18.5l73 520h-105h-35l-78 -560h-280l78 560h-35h-105z" />
    <glyph glyph-name="V" unicode="V" horiz-adv-x="675" 
d="M796 721l-13 -26l-11 -31l-371 -736h-175l-164 736l17 48l-2 9h194l101 -454l228 454h196zM613 700l-249 -495l-111 495h-149l156 -700h149l353 700h-149z" />
    <glyph glyph-name="W" unicode="W" horiz-adv-x="945" 
d="M1069 721l-284 -742h-2l-19 -51h-223l-38 357l-42 -111l-75 -195h-2q-5 -13 -9.5 -25.5t-9.5 -25.5h-223l-75 736l17 48l-1 9h186l44 -435l85 221l82 214h188l44 -436l48 126q30 78 60.5 156.5t59.5 153.5h189zM894 700l-194 -507l-51 507h-155l-193 -507l-51 507h-144
l71 -700h195l161 423l43 -423h195l267 700h-144z" />
    <glyph glyph-name="X" unicode="X" horiz-adv-x="566" 
d="M682 709l-16 -45l-225 -327q26 -63 53.5 -131t54.5 -134q9 -22 19 -47t19 -46h-6l-18 -51h-199l-76 186q-32 -47 -65 -93.5t-64 -92.5h-203l18 51h-4l234 340q-34 83 -71.5 173t-69.5 172l17 49l-3 8h205l75 -179l124 179h209zM651 700h-159l-140 -203l-84 203h-159
l142 -348l-242 -352h159l143 207l85 -207h159l-144 352z" />
    <glyph glyph-name="Y" unicode="Y" horiz-adv-x="657" 
d="M786 721l-9 -12l-16 -45l-305 -397q-10 -70 -21 -146t-19 -142h-4l-18 -51h-177l45 320q-24 49 -50 101.5t-52.5 106.5t-52.5 106.5t-50 101.5l17 50l-3 7h213l111 -224l81 105l92 119h218zM578 700l-187 -243l-120 243h-166l195 -395l-43 -305h140l43 305l304 395h-166z
" />
    <glyph glyph-name="Z" unicode="Z" horiz-adv-x="629" 
d="M96 663l13 38l3 19h603l-23 -171l-5 -5l-17 -48l-346 -336h313l-25 -182h-4l-18 -51h-597l24 167l14 39l2 16l347 338h-308zM241 139l431 420l19 140h-560l-19 -140h373l-432 -420l-20 -140h560l20 140h-372z" />
    <glyph glyph-name="a" unicode="a" horiz-adv-x="682" 
d="M341 302h65q-5 18 -9.5 37t-9.5 48zM534 722l165 -742h-5l-18 -51h-187l-31 140h-233l-71 -140h-189l18 51h-4l375 742h180zM303 281l110 215l47 -215h-157zM367 701l-354 -700h149l71 140h259l31 -140h149l-156 700h-149z" />
    <glyph glyph-name="b" unicode="b" horiz-adv-x="644" 
d="M655 331v1l1 1zM456 160l5 32q0 7 2 15h-229l-5 -35q0 -8 -1 -12h228zM273 487l-6 -47h230l7 47h-231zM612 22q-14 -42 -51.5 -68.5t-80.5 -26.5h-476l18 125l9 70l15 106l10 69l51 366l13 38l3 19h451q25 0 47 -2.5t44 -18.5q26 -20 36 -41.5t9 -53.5q-2 -30 -6 -60.5
t-9 -58.5q0 -2 -0.5 -4t-0.5 -4q-3 -15 -5.5 -29.5t-4.5 -30.5q-5 -33 -19 -55l-9 -29v1l-1 -2v-1l-7 -15q10 -16 12 -34t-1 -41l-19 -139q-4 -28 -18 -52l-7 -20zM204 139l4 35l10 70l5 35h280l-5 -35l-10 -70l-4 -35h-280zM689 605q1 26 -7 44t-29 33q-19 14 -41 15.5
t-46 1.5h-4h-280h-140l-49 -350l-10 -70l-15 -105l-9 -70l-15 -105h105h35h315q22 0 42 8t36 22.5t27.5 33.5t14.5 41l19 140q5 31 -3 51t-31 37q28 17 41.5 37t17.5 50q6 47 15 93t11 93zM367 419h-124l20 140h280l-20 -140h-156z" />
    <glyph glyph-name="c" unicode="c" 
d="M610 77q0 1 0.5 2t0.5 2zM589 721q31 -2 51.5 -13t32.5 -28t16.5 -38.5t4.5 -45.5t-3 -49t-7 -45v-8t-1 -7q0 -4 -0.5 -8.5t-0.5 -6.5h-4l-18 -51h-178l10 70h-229q-5 -32 -10 -64.5t-9 -64.5q-8 -50 -15 -97.5t-14 -100.5h230l2 13l14 39l2 18h183q-3 -20 -6 -43.5
t-8 -47t-12.5 -47t-18.5 -43.5l-5 -16q-8 -22 -19 -41.5t-27 -34.5t-38 -23.5t-50 -8.5h-271q-20 0 -53.5 2t-64.5 14t-51.5 39.5t-13.5 78.5q7 46 12 81t8.5 62t6.5 47.5t5 37.5t4 32.5t4.5 31.5t5 34.5t6.5 42.5q3 28 8.5 52.5t13.5 54.5l8 22l-2 -5q0 2 1 4l-4 -11v1
l3 10l-2 -5v1l1 1l3 9l1 4v1l16 43q0 2 2 6q9 25 23 44q17 20 39 32t46 18q3 0 4 1q24 5 48.5 6.5t47.5 1.5h24q14 0 25.5 -0.5t22.5 -0.5h36q26 -1 62 -1h101h1zM588 700q-57 0 -90.5 0.5t-58 0.5t-46 0.5t-52.5 0.5q-30 0 -63.5 0.5t-64.5 -8t-55.5 -30t-36.5 -66.5
q-8 -32 -14 -57.5t-10 -57.5q-5 -32 -8 -54t-6 -42.5t-6 -42t-7 -52t-10 -73t-15 -104.5q-6 -44 12.5 -67t46 -33.5t58 -12t48.5 -1.5h79.5h67h61.5h63q45 0 70.5 22t40 54t20.5 69t10 67h-140l-10 -70h-280l59 420h280l-10 -70h140q5 30 9.5 65t0.5 66t-22 52t-61 24z" />
    <glyph glyph-name="d" unicode="d" horiz-adv-x="630" 
d="M446 162q12 83 24 161.5t24 165.5h-229q-5 -32 -10 -64.5t-9 -64.5q-8 -50 -15 -97.5t-14 -100.5h229zM617 717q49 -16 65 -42t16 -60q0 -23 -3 -42q-2 -8 -2 -10l-3 -22q-3 -33 -8 -68.5t-10 -67.5l-4 -30l-4 -26l-26 -191q-5 -33 -11 -62t-21 -52l-7 -21
q-11 -29 -33 -52t-70 -37q-8 -2 -35.5 -3t-58.5 -1.5t-58 -0.5h-34h-316l18 126l69 490l17 120l14 39l2 18h266q12 0 24 0.5t24 0.5h34.5t59 -0.5t59 -2t36.5 -3.5zM194 141l59 420h280l-59 -420h-280zM611 697q-8 2 -34 3t-57 1.5t-58 0.5h-34q-48 0 -95 -0.5t-95 -0.5
h-105l-15 -105l-69 -490l-15 -105h105h35h155h33.5t57 0.5t57 1.5t34.5 3q33 10 53 25.5t30 36t14.5 44t8.5 49.5l26 190q7 48 14.5 96.5t11.5 96.5q3 25 6.5 48.5t-0.5 43.5t-18 35.5t-46 25.5z" />
    <glyph glyph-name="e" unicode="e" horiz-adv-x="594" 
d="M604 160l-25 -182h-4l-18 -51h-562l103 736l13 38l3 19h568l-24 -182h-4l-18 -51h-372l-6 -47h315l-25 -182h-4l-18 -51h-301l-6 -47h385zM195 139l19 140h315l20 140h-315l20 140h385l19 140h-525l-98 -700h525l20 140h-385z" />
    <glyph glyph-name="f" unicode="f" horiz-adv-x="623" 
d="M697 540h-4l-18 -51h-406l-6 -47h314l-25 -182h-4l-18 -51h-300q-2 -18 -4.5 -35.5t-4.5 -34.5l-22 -159h-4l-18 -51h-177l23 160l59 420l22 156l13 38l3 19h602zM279 701h-140l-20 -140l-59 -420l-20 -140h140l20 140l19 140h314l20 140h-314l20 140h419l20 140h-419z
" />
    <glyph glyph-name="g" unicode="g" horiz-adv-x="651" 
d="M99 571q0 1 2 5zM271 486q-5 -32 -10 -64.5t-9 -64.5q-8 -50 -15 -97.5t-14 -100.5h230q2 11 4 22.5t4 25.5h-176l25 175l13 38l3 19h167l6 47h-228zM596 714q32 -4 53 -15.5t33 -28t16.5 -37.5t4.5 -43q0 -20 -2.5 -40.5t-5.5 -38.5l-6 -44h-4l-10 -28h9l-33 -234
l-3 -24q-5 -31 -12.5 -64.5t-23.5 -62.5l-6 -17q-14 -41 -43 -71.5t-83 -35.5q-29 -2 -58 -2.5t-54 -0.5q-15 0 -30 0.5t-30 0.5q-18 0 -37 0.5t-39 0.5h-17q-32 0 -68 2.5t-65.5 14.5t-47 36t-13.5 66q4 32 8.5 64t8.5 63q12 91 24.5 180.5t28.5 183.5q2 9 4 16.5t4 15.5
l6 17l2 6q7 48 31 73.5t56 37t68 13t68 1.5h19h107t67 -0.5t42 -1.5t31 -3zM594 693q-15 2 -31 3t-42 1.5t-66.5 0.5h-105.5h-65t-67 -9t-57 -31.5t-32 -67.5q-21 -125 -37 -245.5t-33 -245.5q-6 -40 12.5 -60.5t48.5 -28.5t66 -8.5t66 -0.5q65 0 122 -1t125 2q46 2 70 23
t37 52t17 66t8 65l30 210h-315l-20 -139h175l-20 -141h-280l59 420h280l-9 -70h140q4 30 9 63.5t1 63t-22.5 51t-63.5 27.5z" />
    <glyph glyph-name="h" unicode="h" horiz-adv-x="647" 
d="M726 722l-104 -742h-4l-18 -51h-177l39 280h-229l-14 -104l-17 -125h-4l-18 -51h-177l104 736l13 38l3 19h183l-40 -280h229l32 223l13 37l3 20h183zM562 701l-40 -280h-280l40 280h-140l-99 -700h140l39 280h280l-39 -280h140l99 700h-140z" />
    <glyph glyph-name="i" unicode="i" horiz-adv-x="220" 
d="M301 720l-103 -742h-4l-18 -51h-177l103 736l13 38l3 19h183zM137 699l-98 -700h140l98 700h-140z" />
    <glyph glyph-name="j" unicode="j" horiz-adv-x="524" 
d="M491 26l1 3q0 1 1 2zM222 232l-10 -70h124q13 88 25.5 173.5t24.5 173.5l22 156l13 38l3 19h183l-80 -568l-3 -22q-3 -21 -7.5 -40.5t-16.5 -38.5l-6 -19l-1 -1v-1l-1 -3q-1 -1 -1 -3q-6 -18 -18 -34.5t-35 -33.5q-33 -23 -64.5 -27.5t-60.5 -2.5q-5 0 -13 0.5t-13 0.5
h-150q-39 0 -64 9t-39.5 25t-20 37.5t-5.5 46.5q0 23 3 45.5t7 45.5l6 37l13 37l3 20h182zM59 211q-6 -39 -11 -76.5t1 -67.5t30 -48t77 -18h150q18 0 35.5 -1t34 0.5t34.5 7t37 19.5q20 14 31 29t16 31t7 33.5t5 36.5l77 544h-105h-35l-20 -140l-59 -420h-175l10 70h-140z
" />
    <glyph glyph-name="k" unicode="k" horiz-adv-x="568" 
d="M702 721l-10 -11l-16 -46l-300 -334l219 -351h-7l-18 -51h-217l-137 220q-6 -43 -12.5 -85t-11.5 -84h-4l-18 -51h-177l103 736l13 38l3 19h183l-33 -231l208 231h232zM479 700l-246 -273l38 273h-140l-98 -700h140l39 274l169 -274h176l-217 350l315 350h-176z" />
    <glyph glyph-name="l" unicode="l" horiz-adv-x="541" 
d="M542 161l-25 -182h-4l-18 -51h-493l103 736l13 38l3 19h183l-78 -560h316zM202 140l78 560h-140l-98 -700h456l20 140h-316z" />
    <glyph glyph-name="m" unicode="m" horiz-adv-x="744" 
d="M825 721l-103 -742h-4l-18 -51h-177l55 385l-132 -175h-131l-74 152l-44 -311h-4l-18 -51h-177l103 736l13 38l3 19h172l140 -295l141 188l81 107h174zM661 700l-237 -313l-148 313h-140l-98 -700h140l61 433l106 -223h111l168 223l-61 -433h140l98 700h-140z" />
    <glyph glyph-name="n" unicode="n" horiz-adv-x="643" 
d="M722 719l-103 -742h-4l-18 -51h-167l-187 374l-11 -83l-33 -240h-4l-18 -51h-177l103 736l13 38l3 19h172l188 -374l44 317l13 39l3 18h183zM558 698l-61 -437l-219 437h-140l-98 -700h140l61 439l219 -439h140l98 700h-140z" />
    <glyph glyph-name="o" unicode="o" horiz-adv-x="632" 
d="M618 70v-1l2 6zM601 21q0 2 2 6zM445 157q12 83 24 162t24 166h-229q-5 -32 -10 -64.5t-9 -64.5q-8 -50 -15 -98t-14 -101h229zM637 151l-3 -20q-3 -23 -7 -43t-17 -39l-9 -28q-6 -17 -18 -33t-35 -33q-37 -25 -67.5 -28.5t-62.5 -2.5q-6 0 -12.5 0.5t-12.5 0.5
q-19 0 -37.5 -0.5t-36.5 -0.5h-134q-21 0 -41 1t-40 4q-46 7 -72 39.5t-21 81.5l41 292l21 146q2 18 4.5 34t7.5 31l3 8h-1l6 17q5 29 19.5 54.5t47.5 50.5q20 14 37 21.5t33 10.5t31.5 3h32.5h202q26 0 53 -0.5t54 -5.5q21 -5 40 -16t32 -27t19.5 -36.5t3.5 -43.5l-21 -146
q-5 -37 -10 -73.5t-10 -72.5zM193 136l59 421h280l-59 -421h-280zM636 299l41 292q3 19 -1.5 36.5t-15.5 30.5t-26 21.5t-34 11.5q-36 6 -70.5 6h-70.5h-145q-18 0 -35.5 0.5t-34 -1.5t-34 -8.5t-37.5 -20.5q-20 -15 -31.5 -29.5t-18 -30t-9 -32.5t-4.5 -36l-21 -145
l-41 -292q-2 -20 2.5 -37t15 -30.5t26.5 -22t34 -11.5q35 -6 69.5 -5.5t69.5 0.5q37 0 73.5 0.5t73.5 0.5q18 0 35.5 -1t35.5 0.5t36 7.5t38 20q20 15 31 30t16 30.5t7 33t5 36.5z" />
    <glyph glyph-name="p" unicode="p" 
d="M467 405l10 68q0 6 2 14h-207l-10 -70v-6t-1 -6h206zM675 521q0 -3 -1 -6.5t-1 -6.5l-6 -47q0 -4 -1 -9.5t-1 -9.5q-3 -29 -6.5 -56.5t-10.5 -52.5q-3 -12 -7.5 -23.5t-11.5 -21.5l-3 -11l-5 -13q-16 -46 -61 -73q-24 -14 -47 -16.5t-46 -2.5h-239l-27 -194h-4l-18 -51
h-177l103 736l13 38l3 19h447q28 0 51 -10t38.5 -27.5t22.5 -41.5t4 -52zM236 384l5 35l15 105l5 35h258l-5 -35l-15 -105l-5 -35h-258zM663 591q7 48 -20.5 78t-74.5 30h-288h-35h-105l-98 -700h140l34 245h101h161q23 0 45.5 1.5t46.5 15.5q24 15 37.5 33t19.5 44
q11 47 15.5 93t11.5 93z" />
    <glyph glyph-name="q" unicode="q" horiz-adv-x="624" 
d="M599 24q-1 -1 -1 -2zM218 193q-2 -8 -2.5 -16t-1.5 -16h23zM262 488q-5 -32 -10 -64.5t-9 -64.5l-11 -69h200l24 -41l34 239h-228zM594 12l46 -78h-7l-18 -51h-216l-30 51l-2 -6h-49q-13 0 -32 -0.5t-42 -0.5q-27 0 -56 0.5t-55 2.5t-45.5 5t-26.5 8q-29 17 -39.5 48.5
t-10.5 67.5q0 26 4.5 57.5t8.5 54.5q2 9 3.5 17.5t2.5 15.5l37 266q5 31 9 57.5t12 48.5l6 16q6 30 16 54t29 40.5t49 25.5t75 9h266q44 0 75.5 -4.5t51.5 -17.5t29 -35.5t9 -58.5q0 -14 -1.5 -27.5t-3.5 -30.5l-37 -266l-19 -131q0 -2 -0.5 -2.5t-0.5 -2.5v-5
q-3 -23 -7.5 -45t-15.5 -43l-10 -28v1l-1 -3zM475 172l-56 97h-172l182 -314h173l-42 72q17 13 26.5 27.5t14.5 30t7 32t4 33.5l19 133l37 266q7 48 3.5 77.5t-19.5 46t-46.5 22t-76.5 5.5h-266q-50 0 -78.5 -12.5t-45 -35.5t-23 -56t-12.5 -74l-37 -266q-3 -22 -10 -57.5
t-8.5 -72t6.5 -68t36 -46.5q6 -4 26.5 -6.5t47.5 -4t57 -1.5h57h47.5h27.5l-81 140h-82l59 420h280l-41 -291z" />
    <glyph glyph-name="r" unicode="r" horiz-adv-x="613" 
d="M626 282l2 5l-2 -6v1zM638 315l2 6l-2 -5l-1 -2zM467 407l10 68q0 6 2 14h-214l-10 -70v-6t-1 -6h213zM621 267q-8 -23 -23 -40.5t-37 -31.5q-15 -11 -32 -16l83 -199h-6l-18 -51h-199l-102 245h-66l-6 -41q-6 -39 -11 -78.5t-10 -74.5h-4l-18 -51h-177l104 736l13 38
l3 19h454q29 0 52.5 -10.5t39 -29t23 -43.5t3.5 -54l-10 -65l-3 -20q-1 -5 -1.5 -10.5t-0.5 -9.5l-3 -27q-6 -57 -21 -118q-5 -20 -17 -40l-1 -1l-4 -13q-1 -7 -5 -14zM229 386l5 35l15 105l5 35h265l-5 -35l-15 -105l-5 -35h-265zM666 588q3 24 -3 44.5t-19 36t-32 24
t-43 8.5h-295h-35h-105l-99 -700h140l35 245h109l101 -245h160l-101 245q24 0 46 1.5t46 16.5q24 14 37 32t20 44q12 48 17 91t11 90z" />
    <glyph glyph-name="s" unicode="s" horiz-adv-x="643" 
d="M107 611l2 4zM93 570q1 6 4 11zM269 489l-6 -47h230l7 47h-231zM229 209l-6 -47h230q2 11 3.5 22.5t3.5 24.5h-231zM636 104q-4 -28 -18 -52l-7 -20l-3 -8q-14 -42 -51.5 -68.5t-80.5 -26.5h-350q-27 0 -48.5 9.5t-36 26.5t-21 40t-2.5 49l17 121l13 38l3 19h43
q-22 17 -32 43.5t-5 58.5l30 211q2 13 6 25l8 24l2 4q3 26 16 48.5t32.5 39.5t43 26.5t49.5 9.5h350q26 0 47.5 -10t36.5 -27.5t22.5 -41t4.5 -50.5q-4 -30 -8.5 -62t-8.5 -61h-4l-18 -51h-44q23 -18 35 -46t8 -60zM644 316q4 22 -2 41t-18 33t-30 22.5t-40 8.5h-315l20 140
h280l-10 -70h140l15 105q3 22 -3 41t-18 33t-29.5 22.5t-39.5 8.5h-350q-22 0 -42.5 -8.5t-37 -22.5t-27 -33t-13.5 -41l-30 -210q-3 -22 2.5 -41t18 -33.5t30 -22.5t39.5 -8h315l-19 -140h-280l10 70h-140l-15 -105q-3 -22 2 -41t17.5 -33.5t30.5 -22.5t40 -8h350
q22 0 42 8t36 22.5t27.5 33.5t14.5 41z" />
    <glyph glyph-name="t" unicode="t" horiz-adv-x="601" 
d="M703 720l-24 -182h-4l-18 -51h-195l-72 -509h-4l-18 -51h-177l79 560h-210l24 176l13 38l3 19h603zM119 699l-19 -140h210l-79 -560h140l79 560h210l19 140h-560z" />
    <glyph glyph-name="u" unicode="u" horiz-adv-x="647" 
d="M527 663l13 38l3 19h183l-76 -543q-1 -6 -3.5 -22t-5.5 -33.5t-6 -32t-4 -18.5l-12 -25l-10 -28q-14 -35 -35 -54.5t-56 -30.5q-6 -2 -18.5 -3t-29 -2t-36.5 -1h-39h-179h-39.5t-36 1t-28.5 2t-16 3v1q-35 12 -51.5 29.5t-21.5 54.5q-2 20 0 42t5 42l4 25l75 536l13 38
l3 19h183l-78 -560h228zM69 179q-3 -25 -7.5 -52t-1.5 -53q4 -31 18 -45.5t44 -24.5q7 -3 36.5 -4t63.5 -1h64h38h38h65t65.5 1t39.5 4q31 10 49 27t30 48q2 4 4.5 18.5t5.5 31.5t5.5 31.5t2.5 18.5l73 520h-105h-35l-78 -560h-280l78 560h-35h-105z" />
    <glyph glyph-name="v" unicode="v" horiz-adv-x="675" 
d="M796 721l-13 -26l-11 -31l-371 -736h-175l-164 736l17 48l-2 9h194l101 -454l228 454h196zM613 700l-249 -495l-111 495h-149l156 -700h149l353 700h-149z" />
    <glyph glyph-name="w" unicode="w" horiz-adv-x="945" 
d="M1069 721l-284 -742h-2l-19 -51h-223l-38 357l-42 -111l-75 -195h-2q-5 -13 -9.5 -25.5t-9.5 -25.5h-223l-75 736l17 48l-1 9h186l44 -435l85 221l82 214h188l44 -436l48 126q30 78 60.5 156.5t59.5 153.5h189zM894 700l-194 -507l-51 507h-155l-193 -507l-51 507h-144
l71 -700h195l161 423l43 -423h195l267 700h-144z" />
    <glyph glyph-name="x" unicode="x" horiz-adv-x="566" 
d="M682 709l-16 -45l-225 -327q26 -63 53.5 -131t54.5 -134q9 -22 19 -47t19 -46h-6l-18 -51h-199l-76 186q-32 -47 -65 -93.5t-64 -92.5h-203l18 51h-4l234 340q-34 83 -71.5 173t-69.5 172l17 49l-3 8h205l75 -179l124 179h209zM651 700h-159l-140 -203l-84 203h-159
l142 -348l-242 -352h159l143 207l85 -207h159l-144 352z" />
    <glyph glyph-name="y" unicode="y" horiz-adv-x="657" 
d="M786 721l-9 -12l-16 -45l-305 -397q-10 -70 -21 -146t-19 -142h-4l-18 -51h-177l45 320q-24 49 -50 101.5t-52.5 106.5t-52.5 106.5t-50 101.5l17 50l-3 7h213l111 -224l81 105l92 119h218zM578 700l-187 -243l-120 243h-166l195 -395l-43 -305h140l43 305l304 395h-166z
" />
    <glyph glyph-name="z" unicode="z" horiz-adv-x="629" 
d="M96 663l13 38l3 19h603l-23 -171l-5 -5l-17 -48l-346 -336h313l-25 -182h-4l-18 -51h-597l24 167l14 39l2 16l347 338h-308zM241 139l431 420l19 140h-560l-19 -140h373l-432 -420l-20 -140h560l20 140h-372z" />
  </font>
</defs>
</svg>
