<?xml version="1.0" standalone="no"?>
<!DOCTYPE svg PUBLIC "-//W3C//DTD SVG 1.1//EN" "http://www.w3.org/Graphics/SVG/1.1/DTD/svg11.dtd" >
<svg xmlns="http://www.w3.org/2000/svg" xmlns:xlink="http://www.w3.org/1999/xlink" version="1.1">
<metadata>
Created by FontForge 20170731 at Mon Feb  5 23:53:44 2018
 By Aleksey,,,
Copyright (c) 2018 by Vladimir Nikolic. All rights reserved.
</metadata>
<defs>
<font id="ClosenessOutlineGradient-Italic" horiz-adv-x="622" >
  <font-face 
    font-family="Closeness Outline Gradient"
    font-weight="400"
    font-style="italic"
    font-stretch="normal"
    units-per-em="1000"
    panose-1="0 0 0 0 0 0 0 0 0 0"
    ascent="750"
    descent="-250"
    x-height="718"
    cap-height="720"
    bbox="-251 -315 1068 966"
    underline-thickness="50"
    underline-position="-150"
    unicode-range="U+000D-007A"
  />
<missing-glyph horiz-adv-x="387" 
 />
    <glyph glyph-name=".notdef" horiz-adv-x="387" 
 />
    <glyph glyph-name=".null" horiz-adv-x="0" 
 />
    <glyph glyph-name="nonmarkingreturn" unicode="&#xd;" horiz-adv-x="387" 
 />
    <glyph glyph-name="NULL" horiz-adv-x="0" 
 />
    <glyph glyph-name="NULL" horiz-adv-x="0" 
 />
    <glyph glyph-name="space" unicode=" " horiz-adv-x="387" 
 />
    <glyph glyph-name="exclam" unicode="!" horiz-adv-x="219" 
d="M301 720l-75 -532h-4l-14 -28h14l-25 -182h-4l-25 -51h-176l24 176l17 34h-12l74 526l23 45l1 12h182zM137 699l-69 -490h140l69 490h-140zM59 139l-20 -140h140l20 140h-140zM59 38l3 19h110l-3 -19h-110zM63 67l3 18h110l-3 -18h-110zM67 95l3 18h110l-3 -18h-110z
M166 14h-110l2 16h110zM87 236l2 15h110l-2 -15h-110zM91 265l2 14h110l-2 -14h-110zM95 293l2 14h110l-2 -14h-110zM99 321l2 14h110l-2 -14h-110zM103 349l2 13h110l-2 -13h-110zM107 378l2 12h110l-2 -12h-110zM111 406l2 12h110l-2 -12h-110zM115 434l2 11h110l-2 -11
h-110zM123 491l1 10h110l-1 -10h-110zM127 519l1 10h110l-1 -10h-110zM119 463l1 10h110l-1 -10h-110zM131 547l1 9h110l-1 -9h-110zM139 604l1 8h110l-1 -8h-110zM143 632l1 8h110l-1 -8h-110zM135 576l1 8h110l-1 -8h-110zM147 660l1 7h110l-1 -7h-110zM181 124v-1h-110v1
h110z" />
    <glyph glyph-name="quotedbl" unicode="&#x22;" horiz-adv-x="370" 
d="M461 723l-26 -182h-4l-25 -51h-45l-41 -70h-100l10 70h-40l-41 -70h-100l35 246l22 45l2 12h353zM297 702l-20 -140l-10 -70h70l41 70h39l20 140h-140zM126 702l-20 -140l-10 -70h70l41 70h39l20 140h-140zM131 632l1 8h110l-1 -8h-110zM302 632l1 8h110l-1 -8h-110z
M127 604l1 8h110l-1 -8h-110zM298 604l1 8h110l-1 -8h-110zM233 577h-34q0 -1 -1 -1h-75l1 8h110zM404 577h-34q0 -1 -1 -1h-75l1 8h110zM135 660l1 7h110l-1 -7h-110zM306 660l1 7h110l-1 -7h-110zM358 556l-6 -9h-62l1 9h67zM187 556l-6 -9h-62l1 9h67zM170 529l-6 -10
h-49l1 10h54zM341 529l-6 -10h-49l1 10h54z" />
    <glyph glyph-name="parenleft" unicode="(" horiz-adv-x="216" 
d="M148 731q-3 -4 -3 -6zM370 -264h-4l-25 -51q-57 0 -109 13.5t-94.5 39t-74 63t-47.5 85.5q-9 25 -11.5 59t-1 72t5.5 78t9 77q3 19 6 36.5t5 33.5q2 14 4 26t4 23l16 115q5 33 11 69.5t14.5 72.5t19 69t23.5 60l6 12q13 35 27 60q31 47 73.5 85t93 64.5t107 41
t113.5 14.5l-26 -182h-4l-25 -51q-59 0 -110.5 -26t-85.5 -69v-2q-3 -6 -6 -22t-7 -37.5t-7.5 -46.5t-6.5 -50l-35 -247q-3 -25 -6.5 -50t-5.5 -46t-4 -37t-1 -22q3 -33 18 -60t39.5 -46.5t56.5 -30.5t70 -11zM372 -103q-37 0 -69 12t-56 34t-39 52t-18 66q-1 8 1.5 30
t5.5 51t7.5 61.5t8.5 61.5t7 50.5t4 29.5q1 7 4.5 29t7.5 51t8.5 61.5t9.5 61.5t8.5 51t6.5 30q13 36 37 66t54 52t65 34t72 12l20 140q-51 0 -100.5 -13t-94.5 -38t-83.5 -60.5t-66.5 -81.5q-22 -36 -37 -88.5t-25.5 -109t-16.5 -109t-12 -88.5q-5 -36 -13 -89t-14 -109.5
t-6 -109.5t12 -89q15 -46 43.5 -81.5t67 -60t84.5 -37t97 -12.5zM125 -131l-17 22h196q23 -7 50 -9l-1 -13h-228zM155 -160q-7 5 -12.5 11t-11.5 12h221l-3 -23h-194zM196 -188q-19 10 -36 24h188l-3 -24h-149zM103 -103l-13 22h159q16 -12 39 -22h-185zM86 -75l-9 21h142
l22 -21h-155zM263 -216q-32 9 -60 24h141l-3 -24h-78zM75 -46q-2 5 -2.5 10t-2.5 10h130l14 -20h-139zM69 -18q-1 5 -1 10t-1 10h119l9 -20h-126zM66 10q-1 5 -0.5 10t-0.5 10h113l6 -20h-118zM174 57l2 -19h-111v19h109zM67 123l1 18h113q-1 -5 -1 -9t-1 -9h-112zM65 95
q1 5 1 9t1 9h111l-3 -18h-110zM65 67v18h110q-1 -5 -1 -9.5t-1 -8.5h-108zM69 151q0 4 0.5 8t1.5 9h114l-3 -17h-113zM192 221l-2 -13h-115l2 16h115v-3zM71 180l3 16h115l-3 -16h-115zM79 236l2 15h115l-2 -15h-115zM83 265q1 4 2 7t1 7h114l-2 -14h-115zM88 293l1 3l1 11
h114l-2 -14h-114zM92 321q1 4 2 7t1 7h113l-2 -14h-114zM97 349l2 13h113l-2 -13h-113zM105 406l2 12h113l-2 -12h-113zM101 378l2 12h113l-2 -12h-113zM109 434l2 11h113l-2 -11h-113zM117 491l1 10h113l-1 -10h-113zM227 468l-1 -5h-113l1 10h113v-5zM121 519q0 2 1 4.5
t1 5.5h112l-1 -10h-113zM126 547q0 2 1 4.5t1 4.5h111l-1 -9h-112zM145 632q1 5 2 8h111q-3 -6 -3 -8h-110zM132 576q0 2 1 4t1 4h110l-1 -8h-111zM249 612l-1 -8h-110q1 5 2 8h109zM270 830l5 4h213v-4h-218zM465 806q-5 -1 -10.5 -1.5t-10.5 -2.5h-205q1 1 2 1.5t2 2.5
h222zM153 660q1 2 2 7h116l-4 -7h-114zM176 717q0 2 3 6h134q-5 -4 -6 -6h-131zM163 689l3 6h123l-4 -6h-122zM341 750l-5 -5h-144l3 5h146zM383 778l-7 -4h-162l2 4h167zM310 858l4 3h178v-3h-182zM339 -228q-16 1 -30.5 3t-29.5 5h61zM365 887q1 0 5 2h126v-2h-131z
M468 915l18 2h14v-2h-32z" />
    <glyph glyph-name="parenright" unicode=")" horiz-adv-x="216" 
d="M270 754q8 -25 11 -57t2 -68t-4.5 -73t-8.5 -73q-2 -10 -3.5 -20t-3.5 -20l-5 -35q-1 -8 -2.5 -15t-2.5 -14l-6 -44q-1 -6 -1.5 -12.5t-1.5 -14.5l-4 -32q-1 -9 -2 -18.5t-2 -18.5q-5 -36 -12 -75t-16.5 -76.5t-21.5 -71t-28 -58.5l-7 -11l-6 -12v2l-4 -10l-12 -22
q-30 -48 -71.5 -86.5t-91 -65.5t-105 -42t-112.5 -15l25 176l22 46l2 11q63 0 118.5 29t87.5 77q4 21 10 61.5t12.5 83t11.5 77.5t6 45q2 8 4.5 29t6 49.5t8 60t8 60t6.5 50.5t3 31h-1q-3 33 -18 60.5t-39 48t-57 31.5t-70 11l25 176l22 45l2 12q58 0 110.5 -15t94.5 -42.5
t73 -66.5t48 -88zM250 745q-16 46 -43.5 83t-65.5 63t-83 40t-96 14l-20 -140q37 0 69 -12.5t56 -34t39 -52t18 -66.5q0 -7 -2 -29t-5 -51t-8 -61.5t-9 -61.5t-7 -51t-4 -30t-4 -29.5t-7 -50.5t-8.5 -61.5t-10 -61.5t-9.5 -51t-6 -29q-13 -36 -36.5 -66.5t-53.5 -52
t-65.5 -34t-72.5 -12.5l-20 -140q51 0 100 14t94.5 40t83.5 63t66 82q22 36 37 88t24.5 107t16 106.5t11.5 87.5t13.5 88t14 106.5t5.5 106.5t-12 88zM59 -109q-6 -6 -13 -11.5t-13 -10.5h-207l3 22h230zM26 -137q-9 -6 -17.5 -12t-16.5 -11h-170l3 23h201zM87 -81l-21 -22
h-204q17 4 33 9t32 13h160zM-15 -164q-22 -13 -47 -24h-120l3 24h164zM108 -54q-3 -5 -7.5 -10.5t-9.5 -10.5h-154q19 10 32 21h139zM127 -27l1 1l-13 -20h-135q10 9 19 20h128v-1zM142 2q-2 -5 -5 -10l-6 -10h-125q5 5 9.5 10t7.5 10h119zM153 30l-8 -20h-117q4 5 7.5 10
t5.5 10h112zM162 57l-6 -19h-111l9 19h108zM183 141q-2 -5 -2.5 -9t-1.5 -9h-111q1 5 2 9t2 9h111zM177 113q-1 -5 -2 -9t-3 -9h-108l3 18h110zM170 85l-5 -18h-108l2 1q0 2 1 6.5t2 10.5h108zM189 168q-1 -5 -2 -9l-2 -8h-112l3 17h113zM197 224l-2 -16h-113l2 16h113z
M193 196l-3 -16h-113q1 4 2 7.5t2 8.5h112zM-72 -192q-24 -9 -49.5 -15.5t-50.5 -8.5h-14l3 24h111zM200 239l-1 -3h-113l2 15h113zM204 279v-7t-1 -7h-113l2 14h112zM95 293l2 14h111l-2 -14h-111zM211 335v-7t-1 -7h-111l2 14h110zM214 356l-1 -7h-110l1 7l1 6h110z
M222 408v-2h-111l2 12h111zM220 390q-1 -3 -1.5 -6t-1.5 -6h-110l2 12h111zM228 445l-2 -11h-112l2 11h112zM122 491l1 10h113l-1 -10h-113zM126 519l1 10h112v-5.5v-4.5h-113zM118 463l1 10h113l-1 -10h-113zM129 547l1 9h112v-4.5v-4.5h-113zM133 576l1 8h111l-1 -8h-111z
M-39 830v4h218l4 -4h-222zM246 612q1 -3 0 -8h-110l1 8h109zM139 632v4v4h108q-1 -6 0 -8h-108zM138 660q0 1 -1 7h109l1 -7h-109zM121 717q-2 2 -3 6h121l2 -6h-120zM35 802q-2 1 -5 1.5t-5 2.5h176l3 -4h-169zM244 695l1 -6h-114l-1 6h114zM104 745l-4 5h130l3 -5h-129z
M78 774q-4 2 -6 4h145l3 -4h-142zM-35 858v3h187l4 -3h-191zM-31 887v2h144q2 -2 4 -2h-148zM-27 915v2h77q4 -2 7 -2h-84z" />
    <glyph glyph-name="comma" unicode="," horiz-adv-x="207" 
d="M211 161l-26 -182h-4l-25 -51h-45l-41 -70h-100l35 246l22 45l2 12h182zM47 140l-20 -140l-10 -70h70l41 70h39l20 140h-140zM47 38l3 19h110l-3 -19h-110zM154 15h-34q-2 -4 -3 -5h-74l3 20h110zM51 67l3 18h110l-3 -18h-110zM55 95l3 18h110l-3 -18h-110zM112 2
l-12 -20h-61l3 20h70zM95 -26l-11 -20h-48l2 20h57zM170 125l-1 -2h-110l1 2h110zM78 -55h-44v1h44v-1z" />
    <glyph glyph-name="hyphen" unicode="-" horiz-adv-x="353" 
d="M406 463l-26 -182h-4l-25 -51h-328l25 176l22 45l2 12h334zM90 442l-20 -140h292l20 140h-292zM88 321l2 14h262l-2 -14h-262zM92 349l2 13h262l-2 -13h-262zM96 378l2 12h262l-2 -12h-262zM100 406l2 12h262l-2 -12h-262z" />
    <glyph glyph-name="period" unicode="." horiz-adv-x="207" 
d="M216 161l-26 -182h-4l-25 -51h-176l25 176l22 45l2 12h182zM52 140l-20 -140h140l20 140h-140zM52 38l3 19h110l-3 -19h-110zM56 67l3 18h110l-3 -18h-110zM60 95l3 18h110l-3 -18h-110zM159 15h-110l2 15h110zM175 125l-1 -2h-110l1 2h110z" />
    <glyph glyph-name="slash" unicode="/" horiz-adv-x="438" 
d="M561 720l-389 -741h-2l-26 -51h-189l25 51h-4l390 741h195zM377 699l-367 -699h151l366 699h-150zM44 38l11 19h120l-11 -19h-120zM59 67q3 5 5 9t5 9h121q-3 -5 -5 -9t-5 -9h-121zM74 95q3 5 5 9t5 9h120l-9 -18h-121zM89 123q3 5 5 9t5 9h120q-3 -5 -5 -9t-5 -9h-120z
M233 168l-9 -17h-120l9 17h120zM119 180l9 16h120l-9 -16h-120zM133 208q3 4 5 7.5t4 8.5h120q-2 -5 -4 -8.5t-5 -7.5h-120zM153 15h-120l7 15h120zM276 251l-8 -15h-120l8 15h120zM193 321l8 14h120q-2 -4 -3 -7.5t-4 -6.5h-121zM179 293q3 3 4 6.5t3 7.5h120
q-2 -4 -3 -7.5t-4 -6.5h-120zM164 265q3 3 4 6.5t3 7.5h120q-2 -4 -3 -7.5t-4 -6.5h-120zM208 349q5 8 7 13h121q-3 -4 -4.5 -7t-2.5 -6h-121zM350 390l-6 -12h-120l6 12h120zM365 418l-7 -12h-119l6 12h120zM253 434q2 2 3 5t4 6h119q-4 -8 -6 -11h-120zM269 463l5 10h119
q-2 -6 -5 -10h-119zM408 501q-2 -3 -2.5 -5.5t-2.5 -4.5h-119l5 10h119zM299 519l5 10h119l-5 -10h-119zM313 547l5 9h119l-4 -9h-120zM481 640l-4 -8h-119l4 8h119zM343 604l4 8h119l-4 -8h-119zM328 576l4 8h119l-4 -8h-119zM372 660l4 7h119l-3 -7h-120z" />
    <glyph glyph-name="zero" unicode="0" horiz-adv-x="632" 
d="M86 572l-1 -3v1q0 1 1 2zM439 157l46 328h-222l-46 -328h222zM634 135q-4 -26 -9 -49t-23 -46l-15 -30q-7 -14 -17.5 -27t-29.5 -27q-19 -13 -36 -19.5t-33 -9.5t-31.5 -3h-31.5q-6 0 -12.5 0.5t-13.5 0.5q-19 0 -37 -0.5t-36 -0.5h-134q-21 0 -41 1t-40 4
q-44 7 -70.5 39t-19.5 80l63 448q3 20 6.5 38t11.5 35l3 5l-2 -2l13 26q6 22 19.5 42t43.5 43q20 14 37 21.5t33 10.5t32 3h33h202q26 0 53.5 -0.5t53.5 -5.5q22 -4 40 -15t31 -27t18.5 -36t2.5 -43zM193 136l59 421h280l-59 -421h-280zM636 299l41 292q3 19 -1.5 36.5
t-15.5 30.5t-26 21.5t-34 11.5q-36 6 -70.5 6h-70.5h-145q-18 0 -35.5 0.5t-34 -1.5t-34 -8.5t-37.5 -20.5q-20 -15 -31.5 -29.5t-18 -30t-9 -32.5t-4.5 -36l-21 -145l-41 -292q-2 -20 2.5 -37t15 -30.5t26.5 -22t34 -11.5q35 -6 69.5 -5.5t69.5 0.5q37 0 73.5 0.5t73.5 0.5
q18 0 35.5 -1t35.5 0.5t36 7.5t38 20q20 15 31 30t16 30.5t7 33t5 36.5zM595 113q-1 -5 -1.5 -9t-2.5 -9h-529l1 7l2 11h530zM588 85q-3 -9 -9 -18h-513q-3 6 -4 18h526zM571 57q-6 -9 -20 -19h-466q-4 4 -7.5 9t-6.5 10h500zM540 30q-26 -16 -51 -18t-49 -1q-6 0 -12.5 0.5
t-13.5 0.5q-19 0 -37 -0.5t-36 -0.5h-134q-18 0 -37.5 1t-39.5 4q-19 3 -35 14h445zM130 576q1 5 2 8h529l-1 -8h-530zM138 604l4 8h520l1 -8h-525zM156 632l7 8h490q2 -2 2 -4t2 -4h-501zM188 660l12 7h423l11 -7h-446zM598 135l-2 -12h-110l3 18h110zM66 123l3 18h110
l-3 -18h-110zM70 151l3 17h110l-3 -17h-110zM490 151l3 17h110l-3 -17h-110zM74 180l3 16h110l-3 -16h-110zM78 208l2 16h110l-2 -16h-110zM498 208l2 16h110l-2 -16h-110zM494 180l3 16h110l-3 -16h-110zM82 236l2 15h110l-2 -15h-110zM502 236l2 15h110l-2 -15h-110z
M90 293l2 14h110l-2 -14h-110zM86 265l2 14h110l-2 -14h-110zM94 321l2 14h110l-2 -14h-110zM506 265l2 14h110l-2 -14h-110zM510 293l2 14h110l-2 -14h-110zM514 321l2 14h110l-2 -14h-110zM98 349l2 13h110l-2 -13h-110zM518 349l2 13h110l-2 -13h-110zM522 378l2 12h110
l-2 -12h-110zM102 378l2 12h110l-2 -12h-110zM106 406l2 12h110l-2 -12h-110zM526 406l2 12h110l-2 -12h-110zM110 434l2 11h110l-2 -11h-110zM530 434l2 11h110l-2 -11h-110zM542 519l1 10h110l-1 -10h-110zM114 463l1 10h110l-1 -10h-110zM118 491l1 10h110l-1 -10h-110z
M122 519l1 10h110l-1 -10h-110zM538 491l1 10h110l-1 -10h-110zM534 463l1 10h110l-1 -10h-110zM546 547l1 9h110l-1 -9h-110zM126 547v3l1 6h110l-1 -9h-110z" />
    <glyph glyph-name="one" unicode="1" horiz-adv-x="343" 
d="M431 721l-104 -742h-4l-25 -51h-176l67 478l-40 -35l-108 124l25 51l-3 3l198 172h170zM267 700l-174 -151l86 -98l61 53l-15 -104l-56 -400h140l98 700h-140zM115 549l8 7h249l-1 -9h-254q-2 0 -2 2zM189 38l3 19h110l-3 -19h-110zM197 95l3 18h110l-3 -18h-110zM193 67
l3 18h110l-3 -18h-110zM201 123l3 18h110l-3 -18h-110zM205 151l3 17h110l-3 -17h-110zM146 576l9 8h221l-1 -8h-229zM209 180l3 16h110l-3 -16h-110zM213 208l2 16h110l-2 -16h-110zM296 15h-110l2 15h110zM217 236l2 15h110l-2 -15h-110zM178 604l9 8h193l-1 -8h-201z
M221 265l2 14h110l-2 -14h-110zM225 293l2 14h110l-2 -14h-110zM229 321l2 14h110l-2 -14h-110zM233 349l2 13h110l-2 -13h-110zM210 632l9 8h165l-1 -8h-173zM237 378l2 12h110l-2 -12h-110zM241 406l2 12h110l-2 -12h-110zM245 434l2 11h110l-2 -11h-110zM253 491l1 10
h110l-1 -10h-110zM249 463l1 10h110l-1 -10h-110zM257 519l1 10h110l-1 -10h-110zM140 519l-9 10h115l-11 -10h-95zM242 660l8 7h138l-1 -7h-145zM164 491l-9 10h59l-11 -10h-39zM181 472q-1 0 -1 1h2z" />
    <glyph glyph-name="two" unicode="2" horiz-adv-x="639" 
d="M628 251q-18 -36 -52 -58.5t-75 -22.5h-275l-1 -8h420l-26 -182h-4l-25 -51h-596l41 294q4 23 13 41l14 29q6 23 19.5 43t32 35t41.5 23.5t48 8.5h278l11 82h-222l-3 -19h-4l-25 -51h-176l18 123q3 24 13 42l2 5q-2 -4 -2 -5l6 14l7 14q13 47 52 78.5t89 31.5h350
q26 0 47.5 -10t36 -27t21.5 -40t3 -49l-34 -245q-5 -36 -29 -66l-10 -22zM621 141h-140h-280l14 101h315q22 0 42 8t36 22.5t27.5 33.5t14.5 41l29 210l5 35q3 22 -2.5 41t-17.5 33t-30 22.5t-40 8.5h-350q-22 0 -42 -8.5t-36.5 -22.5t-27.5 -33t-14 -41l-15 -105h140l10 70
h280l-19 -140l-5 -35h-315q-22 0 -42.5 -8.5t-37 -22.5t-27 -33.5t-13.5 -40.5l-24 -171l-15 -105h105h350h105l15 105zM61 38l3 19h530l-3 -19h-530zM65 67l3 18h530l-3 -18h-530zM69 95l3 18h530l-3 -18h-530zM588 16h-530l2 14h530zM98 293q3 8 6 14h516l-11 -14h-511z
M112 321l11 14h509q-1 -8 -5 -14h-515zM93 265l2 12v2h499q-10 -9 -24 -14h-477zM140 349q13 8 26 13h471l-2 -13h-495zM137 576l1 8h530l-1 -8h-530zM141 604l3 8h526v-4v-4h-529zM154 632l5 8h503l3 -8h-511zM184 126h420l-1 -3h-530l3 18h110zM179 660l10 7h450
q2 -2 4.5 -3.5t4.5 -3.5h-469zM77 151l3 17h110l-3 -17h-110zM81 180l3 16h110l-3 -16h-110zM85 208l2 16h110l-2 -16h-110zM89 236l2 15h110l-2 -15h-110zM533 406l2 12h110l-2 -12h-110zM529 378l2 12h110l-2 -12h-110zM537 434l2 11h110l-2 -11h-110zM129 519l1 10h110
l-1 -10h-110zM541 463l1 10h110l-1 -10h-110zM545 491l1 10h110l-1 -10h-110zM549 519l1 10h110l-1 -10h-110zM133 547l1 9h110l-1 -9h-110zM553 547l1 9h110l-1 -9h-110z" />
    <glyph glyph-name="three" unicode="3" horiz-adv-x="631" 
d="M89 589q0 2 1 3zM586 12l1 3q-1 -1 -1 -3zM261 485l-3 -19h-4l-6 -13h231l4 32h-222zM224 220l-8 -57h222l8 57h-222zM634 338q13 -17 16 -35.5t-1 -45.5l-21 -150q-5 -37 -30 -68l-12 -27q-18 -36 -53 -59t-77 -23h-348q-26 0 -47 9.5t-35.5 26t-20.5 39t-3 48.5l18 123
l22 45l2 12h124l23 163l8 19h-146l12 86q4 26 9 47.5t15 40.5l2 5q-1 -1 -1 -2l10 20q6 24 18 44t31.5 33.5t48.5 21t71 7.5h4l280 2h4q26 0 50 -3t48 -20q23 -18 33.5 -42.5t7.5 -53.5q0 -14 -1.5 -30t-3.5 -29q-1 -7 -2.5 -13.5t-2.5 -13.5l-3 -27q-3 -14 -5 -27.5
t-4 -28.5q-4 -23 -10 -39.5t-18 -30.5l-11 -23zM357 432h-124l-20 -140h280l-11 -80l-2 -14l-8 -56h-280l5 35l5 35h-140l-5 -35l-10 -70q-3 -22 2.5 -41t18 -33.5t30 -22.5t39.5 -8h37h311q22 0 43 8t37.5 22.5t27.5 33.5t14 41l13 91l8 59q4 31 -3.5 51t-31.5 37
q29 17 42 37t18 50q3 23 7 43.5t7 40t5.5 40t2.5 43.5q2 26 -6 46t-28 35q-20 14 -42 16.5t-45 2.5h-4l-280 -2h-4q-58 0 -89 -16t-46 -44.5t-19.5 -67t-11.5 -82.5h140l10 70h280l-17 -125h-156zM592 107q-1 -8 -3 -12h-529l2 12l1 6h530zM586 85q-4 -11 -9 -18h-512
q-1 4 -2 8.5t-2 9.5h525zM570 57q-11 -12 -20 -19h-467q-4 4 -7.5 9t-6.5 10h501zM537 30q-22 -13 -50 -13h-348q-28 0 -46 13h444zM175 127h310l2 14h110l-3 -18h-530l3 18h110zM579 335l15 -14h-362l2 14h345zM621 390q-3 -3 -5 -6t-6 -6h-370l2 12h379zM591 362
q-5 -3 -9.5 -6.5t-9.5 -6.5h-336l2 13h353zM635 418q-2 -3 -2.5 -6t-2.5 -6h-386l2 11h280v1h109zM128 576l1 8h530v-4v-4h-531zM135 604q0 2 1 4t1 4h523v-4v-4h-525zM147 632l5 8h501q2 -2 2.5 -4t1.5 -4h-510zM173 660q2 2 4.5 3.5t6.5 3.5h447q2 -3 8 -7h-466zM68 151
l3 17h110l-3 -17h-110zM488 151l3 17h110l-3 -17h-110zM72 180l3 16h110l-3 -16h-110zM496 208l2 16h110l-2 -16h-110zM492 180l3 16h110l-3 -16h-110zM500 236l2 15h110l-2 -15h-110zM613 279l1 -14h-110l2 14h107zM604 307q3 -4 4 -7.5t2 -6.5h-102l2 14h94zM528 434l2 11
h110l-2 -11h-110zM653 529l-1 -10h-112l1 10h112zM536 491l1 10h111l-1 -10h-111zM643 473l-1 -10h-110l1 10h110zM120 519l1 10h110l-1 -10h-110zM544 547l1 9h112l-1 -9h-112zM124 547l1 8v1h110l-1 -9h-110z" />
    <glyph glyph-name="four" unicode="4" horiz-adv-x="638" 
d="M332 303h82l12 89zM678 303l-26 -182h-4l-25 -51h-44l-13 -91h-4l-25 -51h-176l20 142h-381l23 165l22 45l2 10l453 431h170l-58 -418h66zM256 282l221 210l-29 -210h-192zM588 282l58 418h-140l-439 -418l-20 -140h381l-20 -142h140l20 142h66l20 140h-66zM67 180l3 16
h557l-3 -16h-557zM71 208l2 16h557l-2 -16h-557zM75 236l2 15h557l-2 -15h-557zM621 157h-66l-1 -6h-110l1 6h-381l2 11h557zM637 267l-1 -2h-557l2 11l2 3h149l-12 -12h241l1 12h110l-1 -12h66zM365 547l9 9h237l-1 -9h-245zM127 321l15 14h150l-15 -14h-150zM428 38l3 19
h110l-3 -19h-110zM98 293l15 14h149l-15 -14h-149zM432 67l3 18h110l-3 -18h-110zM436 95l3 18h110l-3 -18h-110zM440 123l3 18h110l-3 -18h-110zM157 349l14 13h150l-14 -13h-150zM217 406l13 12h150l-13 -12h-150zM187 378l13 12h150l-13 -12h-150zM395 576l9 8h211l-1 -8
h-219zM246 434l12 11h150l-12 -11h-150zM535 15h-110l2 15h110zM464 293l2 14h110l-2 -14h-110zM468 321l2 14h110l-2 -14h-110zM425 604l8 8h186l-1 -8h-193zM277 463l10 10h150l-10 -10h-150zM306 491l10 10h150l-10 -10h-150zM336 519l10 10h150l-10 -10h-150zM472 349
l2 13h110l-2 -13h-110zM480 406l2 12h110l-2 -12h-110zM476 378l2 12h110l-2 -12h-110zM454 632l9 8h160l-1 -8h-168zM484 434l2 11h110l-2 -11h-110zM496 519l1 10h110l-1 -10h-110zM488 463l1 10h110l-1 -10h-110zM492 491l1 10h110l-1 -10h-110zM484 660l7 7h136l-1 -7
h-142z" />
    <glyph glyph-name="five" unicode="5" horiz-adv-x="619" 
d="M625 104q-5 -36 -29 -66l-10 -22l-4 -8q-18 -36 -52 -58.5t-75 -22.5h-350q-26 0 -47.5 9.5t-35.5 26t-20.5 39t-2.5 48.5l17 123l23 45l1 12h182l-10 -70h222l12 84h-420l59 421l23 45l1 12h602l-25 -182h-4l-25 -51h-398l-2 -12h294q26 0 47.5 -10t36 -27t21.5 -40
t3 -49zM638 351q3 22 -2.5 41t-17.5 33t-30 22.5t-40 8.5h-315l15 105h280h140l5 35l15 105h-105h-350h-105l-15 -105l-25 -175l-15 -105h105h315l-5 -35l-19 -142h-280l9 70h-140l-5 -35l-9 -70q-3 -22 2 -41t17.5 -33.5t30.5 -22.5t40 -8h350q22 0 42 8t36 22.5t27.5 33.5
t14.5 41l5 35zM589 104q-1 -6 -3 -9h-529l2 9l1 9h530zM584 85q-3 -5 -4.5 -9.5t-4.5 -8.5h-515l-2 18h526zM569 57q-9 -12 -18 -19h-474q-9 8 -13 19h505zM624 362q0 -4 -1 -11v-2h-530l2 13h529zM540 30q-26 -16 -54 -16h-350q-29 0 -51 16h455zM620 390l3 -12h-526l2 12
h521zM603 418l9 -12h-511l2 12h500zM171 124h310l3 17h110l-3 -18h-530l3 18h110zM133 632l1 8h530l-1 -8h-530zM129 604l1 8h530l-1 -8h-530zM655 576h-530l1 8h530zM137 660l1 7h530l-1 -7h-530zM216 441h330q16 0 34 -7h-475l2 11h110zM509 321l2 10h-420v4h530l-2 -14
h-110zM65 151l3 17h110l-3 -17h-110zM485 151l3 17h110l-3 -17h-110zM489 180l3 16h110l-3 -16h-110zM493 208l2 16h110l-2 -16h-110zM497 236l2 15h110l-2 -15h-110zM69 180l2 14h110l-2 -14h-110zM505 293l2 14h110l-2 -14h-110zM501 265l2 14h110l-2 -14h-110zM109 463
l1 10h110l-1 -10h-110zM117 519l1 10h110l-1 -10h-110zM113 491l1 10h110l-1 -10h-110zM121 547l1 9h110l-1 -9h-110z" />
    <glyph glyph-name="six" unicode="6" horiz-adv-x="620" 
d="M84 582l2 5q-2 -4 -2 -5zM261 487l-6 -47h222l6 47h-222zM437 160l7 47h-222l-7 -47h222zM585 8q-18 -36 -52 -58.5t-75 -22.5h-350q-26 0 -47.5 9.5t-35.5 26t-20.5 39t-2.5 48.5l69 490q3 24 13 42l7 14l7 14q12 47 51 78.5t89 31.5h350q26 0 47.5 -10t36.5 -27
t21.5 -40t2.5 -49l-17 -126h-4l-25 -51h-31q21 -17 32 -44t6 -59l-29 -210q-5 -36 -29 -66l-10 -22zM192 139l9 70l10 70h280l-19 -140h-280zM636 314q3 22 -2.5 41t-18 33t-30 22.5t-39.5 8.5h-315l20 140h280l-10 -70h140l14 105q4 22 -2 41t-18 33t-30 22.5t-40 8.5h-350
q-22 0 -42 -8.5t-36.5 -22.5t-27 -33t-14.5 -41l-29 -210l-25 -175l-9 -70l-5 -35q-3 -22 2 -41t17.5 -33.5t30.5 -22.5t40 -8h350q22 0 42 8t36 22.5t27.5 33.5t14.5 41zM592 104q-1 -6 -3 -9h-529l2 9l1 9h530zM587 85q-3 -5 -4.5 -9.5t-4.5 -8.5h-515l-2 18h526zM572 57
q-9 -12 -18 -19h-474q-9 8 -13 19h505zM621 335l1 -14h-530l2 14h527zM508 293v1h-310v-1h-110l2 14h530l-2 -14h-110zM614 362l5 -13h-523l2 13h516zM543 30q-26 -16 -54 -16h-350q-29 0 -51 16h455zM590 390l14 -12h-504l2 12h488zM484 124l3 17h110l-3 -18h-530l3 18h110
l-3 -17h310zM128 576l1 8h530l-1 -8h-530zM132 604q1 2 2 8h527v-4v-4h-529zM144 632l5 8h505l3 -8h-513zM168 660q6 4 10 7h455q2 -3 8 -7h-473zM488 151l3 17h110l-3 -17h-110zM68 151l3 17h110l-3 -17h-110zM496 208l2 16h110l-2 -16h-110zM72 180l3 16h110l-3 -16h-110z
M76 208l2 16h110l-2 -16h-110zM492 180l3 16h110l-3 -16h-110zM80 236l2 15h110l-2 -15h-110zM500 236l2 15h110l-2 -15h-110zM84 265l2 14h110l-2 -14h-110zM504 265l2 14h110l-2 -14h-110zM104 406l2 12h110l-2 -12h-110zM108 434l2 11h110l-2 -11h-110zM116 491l1 10h110
l-1 -10h-110zM120 519l1 10h110l-1 -10h-110zM540 519l1 10h110l-1 -10h-110zM112 463l1 10h110l-1 -10h-110zM544 547l1 9h110l-1 -9h-110zM124 547l1 9h110l-1 -9h-110z" />
    <glyph glyph-name="seven" unicode="7" horiz-adv-x="584" 
d="M676 722l-23 -166l-17 -26l-12 -27l-359 -574h-195l25 51h-4l317 509h-347l24 176l23 45l1 12h567zM128 701l-20 -140h369l-349 -560h155l350 560l20 140h-525zM620 576h-495l1 8h495zM129 604l1 8h495l-1 -8h-495zM133 632l1 8h495l-1 -8h-495zM137 660l1 7h495l-1 -7
h-495zM168 38l12 19h121l-12 -19h-121zM204 95l11 18h121l-12 -18h-120zM221 123l12 18h120l-11 -18h-121zM186 67l12 18h120l-11 -18h-121zM239 151l11 17h120l-11 -17h-120zM274 208l10 16h120l-9 -16h-121zM257 180l10 16h121l-11 -16h-120zM292 236l9 15h120l-9 -15
h-120zM327 293l9 14h121l-9 -14h-121zM345 321l9 14h120l-8 -14h-121zM310 265l9 14h120l-9 -14h-120zM275 16h-120l8 14h121zM362 349l9 13h121l-9 -13h-121zM398 406l8 12h121l-8 -12h-121zM380 378l8 12h121l-8 -12h-121zM415 434l8 11h121l-8 -11h-121zM468 519l6 10
h121l-6 -10h-121zM451 491l6 10h121l-6 -10h-121zM433 463l6 10h121l-6 -10h-121zM486 547l5 9h121l-5 -9h-121z" />
    <glyph glyph-name="eight" unicode="8" horiz-adv-x="624" 
d="M478 440l6 47h-222l-6 -47h222zM438 160l7 47h-222l-7 -47h222zM51 267q1 6 2.5 12t4.5 11q-10 15 -12 32.5t1 42.5q3 16 4.5 31t2.5 31q1 14 2.5 29t3.5 29l6 34t8 34q2 8 5 15.5t6 14.5q0 2 3 6l1 3l10 20q9 27 24.5 48.5t42.5 38.5q25 14 46.5 17.5t43.5 3.5h100
q91 0 145.5 -0.5t84.5 -2.5t44.5 -6t25.5 -12q24 -17 34 -39t8 -53q-1 -32 -6 -66q-1 -8 -2.5 -16t-2.5 -16l-5 -32q-3 -15 -5 -29t-4 -29q-3 -23 -9.5 -39.5t-18.5 -30.5l-11 -23l-1 -1q13 -17 16 -35.5t-1 -45.5l-19 -140q-5 -36 -29 -66l-10 -22l-4 -8q-18 -36 -52 -58.5
t-75 -22.5h-350q-26 0 -47.5 9.5t-35.5 26t-20.5 39t-2.5 48.5l20 140q4 28 13 48l3 6zM193 139l19 140h280l-19 -140h-280zM267 699h-14q-20 0 -38.5 -2.5t-38.5 -14.5q-25 -15 -38 -33t-20 -44q-12 -47 -16 -93t-10 -93q-4 -30 3.5 -50t31.5 -37q-29 -17 -42 -37t-18 -51
l-19 -140q-3 -22 2 -41t17.5 -33.5t30.5 -22.5t40 -8h350q22 0 42 8t36 22.5t27.5 33.5t14.5 41l19 140q5 31 -3 51t-31 37q28 17 41.5 37t17.5 50q6 47 14.5 93t10.5 93q2 26 -6.5 44t-28.5 33q-10 7 -25 10.5t-52.5 5t-106.5 1.5h-187h-4zM232 419l20 140h280l-20 -140
h-280zM593 104q-1 -6 -3 -9h-529l2 9l1 9h530zM588 85q-3 -5 -4.5 -9.5t-4.5 -8.5h-515l-2 18h526zM573 57q-9 -12 -18 -19h-474q-9 8 -13 19h505zM544 30q-26 -16 -54 -16h-350q-29 0 -51 16h455zM594 307q4 -4 6 -7.5t4 -6.5h-95v1h-310v-1h-95q7 8 14 14h476zM628 390
q-3 -6 -8 -12h-509l-4 12h521zM606 362l-16 -13h-457l-12 13h485zM570 335l-5 -3l14 -11h-442l18 11l-5 3h420zM485 124l3 17h110l-3 -18h-530l3 18h110l-3 -17h310zM660 584v-4v-4h-534l1 8h533zM662 612q1 -3 0 -8h-529q1 5 2 8h527zM657 640l3 -8h-516l5 8h508zM635 667
l8 -7h-475l11 7h456zM69 151l3 17h110l-3 -17h-110zM489 151l3 17h110l-3 -17h-110zM73 180l3 16h110l-3 -16h-110zM77 208l2 16h110l-2 -16h-110zM493 180l3 16h110l-3 -16h-110zM497 208l2 16h110l-2 -16h-110zM613 251l-1 -7l-1 -8h-110l2 15h110zM81 236l1 8l1 7h110
l-2 -15h-110zM87 265q3 8 6 14h104l-2 -14h-108zM610 279q2 -4 2.5 -7t0.5 -7h-108l2 14h103zM637 418q-1 -8 -3 -12h-109l2 12h110zM105 406l2 12h110l-2 -12h-110zM529 434l2 11h110l-2 -11h-110zM109 434l2 11h110l-2 -11h-110zM117 519l1 10h114l-1 -10h-114zM114 491
l1 10h113l-1 -10h-113zM654 529l-1 -10h-112l1 10h112zM112 463v4.5v5.5h112l-1 -10h-111zM649 501l-1 -10h-111l1 10h111zM644 473l-1 -10h-110l1 10h110zM121 547l1 9h114l-1 -9h-114zM545 547l1 9h112l-1 -9h-112z" />
    <glyph glyph-name="nine" unicode="9" 
d="M83 583l3 5q-3 -4 -3 -5zM221 208l-6 -47h222l6 47h-222zM261 488l-7 -47h222l7 47h-222zM584 9q-18 -36 -52 -58.5t-75 -22.5h-350q-26 0 -47 9.5t-35.5 26t-20.5 39t-3 48.5l17 123l23 45l1 12h33q-20 17 -29.5 42.5t-4.5 57.5l29 210q3 24 13 42l7 14l7 14
q12 47 51 78.5t89 31.5h350q26 0 48 -10t36.5 -27t21 -40t3.5 -49l-69 -490q-5 -36 -29 -66l-10 -22zM510 420h-280l20 140h280l-10 -70zM660 490l10 70l5 35q3 22 -3 41t-18 33t-30 22.5t-40 8.5h-350q-22 0 -42 -8.5t-36.5 -22.5t-27 -33t-13.5 -41l-30 -210
q-3 -22 2.5 -41t18 -33.5t30 -22.5t39.5 -8h315l-19 -140h-280l10 70h-140l-15 -105q-3 -22 2 -41t17.5 -33.5t30.5 -22.5t40 -8h350q22 0 42 8t36 22.5t27.5 33.5t14.5 41l29 210zM591 105q-1 -7 -3 -10h-529l2 10l1 8h530zM586 85l-9 -18h-514q-3 7 -3 18h526zM570 57
q-9 -12 -18 -19h-472q-9 8 -13 19h503zM117 321q-3 3 -5 6.5t-5 7.5h516l-2 -14h-504zM102 349q-1 5 -2 13h527l-2 -13h-523zM99 378l1 7l1 5h530l-2 -12h-530zM540 30q-23 -15 -52 -15h-350q-30 0 -49 15h451zM507 293v2h-330q-27 0 -44 12h486l-2 -14h-110zM174 125h310
l2 16h110l-3 -18h-530l3 18h110zM127 576l1 8h530l-1 -8h-530zM131 604q1 2 2 8h527q1 -3 0 -8h-529zM143 632l4 8h507l3 -8h-514zM166 660l9 7h459q2 -3 8 -7h-476zM487 151l3 17h110l-3 -17h-110zM67 151l3 17h110l-3 -17h-110zM495 208l2 16h110l-2 -16h-110zM491 180
l3 16h110l-3 -16h-110zM71 180l2 15h110l-2 -15h-110zM499 236l2 15h110l-2 -15h-110zM503 265l2 14h110l-2 -14h-110zM103 406l2 12h110l-2 -12h-110zM523 406l2 12h110l-2 -12h-110zM107 434l2 11h110l-2 -11h-110zM527 434l2 11h110l-2 -11h-110zM535 491l1 10h110
l-1 -10h-110zM119 519l1 10h110l-1 -10h-110zM115 491l1 10h110l-1 -10h-110zM111 463l1 10h110l-1 -10h-110zM531 463l1 10h110l-1 -10h-110zM539 519l1 10h110l-1 -10h-110zM123 547l1 9h110l-1 -9h-110zM543 547l1 9h110l-1 -9h-110z" />
    <glyph glyph-name="colon" unicode=":" horiz-adv-x="207" 
d="M216 161l-26 -182h-4l-25 -51h-176l25 176l22 45l2 12h182zM296 721l-25 -182h-4l-25 -51h-176l24 176l23 45l1 12h182zM132 700l-19 -140h140l19 140h-140zM52 140l-20 -140h140l20 140h-140zM52 38l3 19h110l-3 -19h-110zM60 95l3 18h110l-3 -18h-110zM56 67l3 18h110
l-3 -18h-110zM159 15h-110l2 15h110zM138 632l1 8h110l-1 -8h-110zM134 604l1 8h110l-1 -8h-110zM130 576l1 8h110l-1 -8h-110zM142 660l1 7h110l-1 -7h-110zM175 125l-1 -2h-110l1 2h110z" />
    <glyph glyph-name="semicolon" unicode=";" horiz-adv-x="207" 
d="M296 721l-25 -182h-4l-25 -51h-176l24 176l23 45l1 12h182zM211 161l-26 -182h-4l-25 -51h-45l-41 -70h-100l35 246l22 45l2 12h182zM47 140l-20 -140l-10 -70h70l41 70h39l20 140h-140zM132 700l-19 -140h140l19 140h-140zM47 38l3 19h110l-3 -19h-110zM154 15h-34
q-2 -4 -3 -5h-74l3 20h110zM51 67l3 18h110l-3 -18h-110zM55 95l3 18h110l-3 -18h-110zM112 2l-12 -20h-61l3 20h70zM95 -26l-11 -20h-48l2 20h57zM130 576l1 8h110l-1 -8h-110zM134 604l1 8h110l-1 -8h-110zM138 632l1 8h110l-1 -8h-110zM142 660l1 7h110l-1 -7h-110z
M170 125l-1 -2h-110l1 2h110zM78 -55h-44v1h44v-1z" />
    <glyph glyph-name="question" unicode="?" horiz-adv-x="582" 
d="M582 290q-1 -1 -2 -3zM78 584q3 4 3 5zM629 408q-3 -26 -12 -50.5t-24 -44.5l-10 -19l-1 -4v1l-2 -4q-16 -34 -46.5 -56t-77.5 -22h-65l-2 -20h-4l-14 -28h14l-26 -182h-4l-25 -51h-176l25 176l16 34h-12l18 124q3 24 13 42l2 5q-2 -4 -2 -5l7 14l7 14q12 47 51 78.5
t89 31.5h68l7 47h-187l-3 -19h-4l-25 -51h-176l17 123q4 24 13 42l7 14l7 14q13 47 51.5 78.5t88.5 31.5h315q26 0 48 -10t36.5 -27t21 -40t3.5 -49zM635 596q3 22 -3 41t-18 33t-29.5 22.5t-39.5 8.5h-315q-22 0 -42.5 -8.5t-37 -22.5t-27 -33t-13.5 -41l-15 -105h140
l10 70h245l-20 -140h-105q-22 0 -42 -8.5t-36.5 -22.5t-27 -33t-14.5 -41l-14 -106h140l9 71h105q29 0 50.5 10.5t36.5 28t24 40.5t12 48l22 153zM221 140l-20 -140h140l20 140h-140zM566 335q-2 -4 -5 -7.5t-7 -6.5h-293q1 4 2 7t2 7h301zM617 576h-495l1 8h495zM126 604
q0 2 1 4t1 4h492q1 -3 0 -8h-494zM581 362l-3.5 -7t-2.5 -6h-304q3 7 8 13h302zM137 632l5 8h472l3 -8h-480zM590 390q-1 -3 -1.5 -6t-1.5 -6h-294l16 12h281zM534 307q-20 -11 -46 -11h-120l-1 -3h-110l2 14h275zM160 660l9 7h426q2 -3 8 -7h-443zM221 38l3 19h110l-3 -19
h-110zM225 67l3 18h110l-3 -18h-110zM229 95l3 18h110l-3 -18h-110zM328 15h-110l2 15h110zM249 236l2 15h110l-2 -15h-110zM253 265l2 14h110l-2 -14h-110zM593 408v-2h-110l2 12h110zM487 434l2 11h110l-2 -11h-110zM495 491l1 10h110l-1 -10h-110zM491 463l1 10h110
l-1 -10h-110zM114 519l1 10h110l-1 -10h-110zM499 519l1 10h110l-1 -10h-110zM118 547l1 9h110l-1 -9h-110zM503 547l1 9h110l-1 -9h-110zM344 125l-1 -2h-110l1 2h110z" />
    <glyph glyph-name="A" unicode="A" horiz-adv-x="682" 
d="M397 302l-18 84l-43 -84h61zM533 722l166 -742h-5l-25 -51h-187l-31 140h-232l-45 -89h-3l-25 -51h-188l25 51h-3l374 742h179zM303 281l110 215l47 -215h-157zM367 701l-354 -700h149l71 140h259l31 -140h149l-156 700h-149zM118 180l9 16h487l3 -16h-499zM132 208l8 16
h467l4 -16h-479zM504 156h-279l-3 -5h-119l9 17h508l3 -17h-118zM147 236l7 15h447l3 -15h-457zM479 266l-3 13h119l3 -14h-437l7 14h119l-7 -13h199zM529 38l-4 19h119l4 -19h-119zM47 38l10 19h118l-10 -19h-118zM517 95l-4 18h119l3 -18h-118zM523 67l-4 18h119l3 -18
h-118zM511 123l-4 18h119l3 -18h-118zM89 123l10 18h118l-10 -18h-118zM61 67l10 18h118l-10 -18h-118zM75 95l10 18h118l-10 -18h-118zM304 547l4 9h225l3 -9h-232zM473 293l-3 14h119l3 -14h-119zM467 321l-3 14h119l3 -14h-119zM175 293l7 14h119l-7 -14h-119zM189 321
l7 14h119l-7 -14h-119zM319 576l4 8h204l2 -8h-210zM650 30l3 -14h-118l-4 14h119zM154 16h-118l7 14h118zM461 349l-3 13h119l3 -13h-119zM203 349l7 13h119l-7 -13h-119zM333 604l4 8h183l2 -8h-189zM448 406l-3 12h119l3 -12h-119zM454 378l-2 12h119l2 -12h-119z
M218 378l7 12h118l-6 -12h-119zM233 406l6 12h119l-7 -12h-118zM347 632l4 8h163l2 -8h-169zM441 434l-2 11h119l2 -11h-119zM247 434l6 11h119l-6 -11h-119zM435 463l-3 10h119l3 -10h-119zM423 519l-3 10h119l3 -10h-119zM429 491l-3 10h119l3 -10h-119zM290 519l4 10h119
l-5 -10h-118zM276 491l4 10h119l-5 -10h-118zM262 463l4 10h119l-5 -10h-118zM361 660l4 7h143l1 -7h-148z" />
    <glyph glyph-name="B" unicode="B" horiz-adv-x="644" 
d="M449 160l7 47h-222l-7 -47h222zM273 487l-6 -47h222l6 47h-222zM710 607q0 -17 -1.5 -34t-3.5 -34q-2 -14 -4.5 -29t-5.5 -29q-4 -16 -6.5 -31t-4.5 -31q-3 -23 -9.5 -39.5t-18.5 -30.5l-11 -23l-1 -1q13 -17 16 -35.5t-1 -45.5l-19 -140q-5 -36 -29 -66l-10 -22l-4 -8
q-18 -36 -52 -58.5t-75 -22.5h-473l103 736l23 45l1 12h453q25 0 47 -2.5t43 -17.5q25 -17 34 -39t9 -54zM204 139l4 35l10 70l5 35h280l-5 -35l-10 -70l-4 -35h-280zM689 605q1 26 -7 44t-29 33q-19 14 -41 15.5t-46 1.5h-4h-280h-140l-49 -350l-10 -70l-15 -105l-9 -70
l-15 -105h105h35h315q22 0 42 8t36 22.5t27.5 33.5t14.5 41l19 140q5 31 -3 51t-31 37q28 17 41.5 37t17.5 50q6 47 15 93t11 93zM367 419h-124l20 140h280l-20 -140h-156zM584 57q-9 -12 -18 -19h-502l3 19h517zM604 104q-1 -6 -3 -9h-529l3 18h530zM599 85
q-3 -5 -4.5 -9.5t-4.5 -8.5h-522l3 18h528zM555 30q-26 -16 -54 -16h-440l2 16h492zM605 307q4 -4 6 -7.5t4 -6.5h-95v1h-310v-1h-110l2 14h503zM581 335l-5 -3l14 -11h-486l2 14h475zM617 362l-16 -13h-493l2 13h507zM639 390q-3 -6 -8 -12h-519l2 12h525zM496 124l3 17
h110l-3 -18h-530l3 18h110l-3 -17h310zM673 584v-4v-4h-533l1 8h532zM674 612q-1 -6 0 -8h-530l1 8h529zM668 640l3 -8h-523l1 8h519zM646 667q2 -3 8 -7h-502l1 7h493zM80 151l3 17h110l-3 -17h-110zM500 151l3 17h110l-3 -17h-110zM504 180l3 16h110l-3 -16h-110zM84 180
l3 16h110l-3 -16h-110zM88 208l2 16h110l-2 -16h-110zM508 208l2 16h110l-2 -16h-110zM624 251l-1 -7l-1 -8h-110l2 15h110zM92 236l2 15h110l-2 -15h-110zM96 265l2 14h110l-2 -14h-110zM621 279q2 -4 2.5 -7t0.5 -7h-108l2 14h103zM116 406l2 12h110l-2 -12h-110zM648 418
q-1 -8 -3 -12h-109l2 12h110zM120 434l2 11h110l-2 -11h-110zM652 445l-2 -11h-110l2 11h110zM667 529l-1 -10h-114l1 10h114zM662 501q0 -3 -1 -5.5t-1 -4.5h-112l1 10h113zM656 473l-1 -10h-111l1 10h111zM124 463l1 10h110l-1 -10h-110zM128 491l1 10h110l-1 -10h-110z
M132 519l1 10h110l-1 -10h-110zM671 556l-1 -9h-114l1 9h114zM136 547l1 9h110l-1 -9h-110z" />
    <glyph glyph-name="C" unicode="C" 
d="M578 10q-1 -1 -1 -3zM91 584l3 5q-3 -4 -3 -5zM112 628q-1 -2 -1 -4zM592 721q46 -3 68.5 -23.5t29.5 -50t3.5 -65t-8.5 -68.5l-6 -42h-4l-25 -51h-176l10 70h-222l-46 -327h222l2 13l22 45l2 12h182l-5 -35q-3 -20 -6.5 -42.5t-9 -45t-14.5 -43.5t-23 -38l-8 -16l-3 -7
q-17 -33 -46 -55.5t-79 -22.5h-271q-20 0 -53.5 2t-64 14t-50 39t-12.5 77l51 368q5 34 10.5 59.5t14.5 57.5q6 22 14 38l6 12l-3 -7l1 3l3 6v-1l1 2l-1 -1l1 2l3 6q13 45 37 69t53.5 34.5t63 12t64.5 1.5h24q14 0 25 -0.5t22 -0.5h36q26 -1 62.5 -1h101.5h1zM588 700
q-57 0 -90.5 0.5t-58 0.5t-46 0.5t-52.5 0.5q-30 0 -63.5 0.5t-64.5 -8t-55.5 -30t-36.5 -66.5q-8 -32 -14 -57.5t-10 -57.5q-5 -32 -8 -54t-6 -42.5t-6 -42t-7 -52t-10 -73t-15 -104.5q-6 -44 12.5 -67t46 -33.5t58 -12t48.5 -1.5h79.5h67h61.5h63q45 0 70.5 22t40 54
t20.5 69t10 67h-140l-10 -70h-280l59 420h280l-10 -70h140q5 30 9.5 65t0.5 66t-22 52t-61 24zM589 113q-2 -5 -3 -9t-4 -9h-523q0 10 1 18h529zM578 85q-3 -5 -4.5 -9.5t-4.5 -8.5h-504q-3 9 -5 18h518zM563 57q-9 -12 -17 -19h-454q-13 8 -21 19h492zM175 128h310l2 13
h108q-1 -5 -2 -9t-2 -9h-530l3 18h113zM535 30q-22 -14 -52 -14h-271q-18 0 -47.5 1.5t-57.5 12.5h428zM656 612q1 -6 1 -8h-519q2 4 3 8h515zM651 640l2 -8h-501q1 2 2.5 4t3.5 4h493zM657 584q1 -3 0 -8h-109v2h-310v-2h-108q1 2 2 8h525zM633 667l7 -7h-461l11 7h443z
M65 151l3 17h113l-3 -17h-113zM601 168q-1 -5 -1.5 -9t-2.5 -8h-109l3 17h110zM69 180l3 16h113l-3 -16h-113zM73 208l2 16h113l-2 -16h-113zM492 180l3 16h110l-3 -16h-110zM77 236l2 15h113l-2 -15h-113zM81 265l2 14h113l-2 -14h-113zM85 293l2 14h113l-2 -14h-113z
M89 321l2 14h113l-2 -14h-113zM93 349l2 13h113l-2 -13h-113zM97 378l2 12h113l-2 -12h-113zM101 406l2 12h113l-2 -12h-113zM105 434l2 11h113l-2 -11h-113zM109 463l1 10h113l-1 -10h-113zM113 491l1 10h113l-1 -10h-113zM117 519q0 2 1 4.5t1 5.5h112l-1 -10h-113z
M540 519l1 10h110l-1 -10h-110zM544 547l1 9h110l-1 -9h-110zM123 547q1 3 2 9h110l-1 -9h-111zM606 208l1 5l4 -5h-5z" />
    <glyph glyph-name="D" unicode="D" horiz-adv-x="630" 
d="M440 162l46 327h-222l-46 -327h222zM620 717q33 -11 50 -26t23 -34t4.5 -41t-4.5 -47l-2 -11v-6v-7q-2 -15 -4.5 -35.5t-4.5 -34.5l-44 -314q-5 -35 -12 -66.5t-29 -57.5l-10 -21v1l-1 -2q1 0 1 1l-3 -6q1 1 1.5 2t0.5 3l-2 -5q-11 -24 -33.5 -43t-64.5 -32
q-9 -2 -37 -3.5t-58.5 -2t-57 -0.5h-33.5h-313l103 736l23 45l1 12h268q12 0 24.5 0.5t24.5 0.5h33.5t57 -0.5t58.5 -2t39 -3.5h1zM194 141l59 420h280l-59 -420h-280zM611 697q-8 2 -34 3t-57 1.5t-58 0.5h-34q-48 0 -95 -0.5t-95 -0.5h-105l-15 -105l-69 -490l-15 -105
h105h35h155h33.5t57 0.5t57 1.5t34.5 3q33 10 53 25.5t30 36t14.5 44t8.5 49.5l26 190q7 48 14.5 96.5t11.5 96.5q3 25 6.5 48.5t-0.5 43.5t-18 35.5t-46 25.5zM569 57l-10 -10t-12 -9h-493l3 19h512zM594 113l-6 -18h-526l3 18h529zM585 85q-4 -11 -9 -18h-518l3 18h524z
M534 30q-8 -5 -25 -10v1q-8 -2 -34 -3t-55.5 -1.5t-55.5 -0.5h-33h-280l2 14h481zM487 126l2 15h110q-1 -5 -1.5 -9t-2.5 -9h-529l3 18h110l-2 -15h310zM659 584l-1 -8h-528l1 8h528zM660 612q1 -3 0 -8h-526l1 8h525zM657 640l2 -8h-521l1 8h518zM638 667l7 -7h-503l1 7
h495zM70 151l3 17h110l-3 -17h-110zM602 161l-2 -10h-110l3 17h110zM74 180l3 16h110l-3 -16h-110zM78 208l2 16h110l-2 -16h-110zM494 180l3 16h110l-3 -16h-110zM498 208l2 16h110l-2 -16h-110zM82 236l2 15h110l-2 -15h-110zM502 236l2 15h110l-2 -15h-110zM510 293l2 14
h110l-2 -14h-110zM94 321l2 14h110l-2 -14h-110zM86 265l2 14h110l-2 -14h-110zM90 293l2 14h110l-2 -14h-110zM506 265l2 14h110l-2 -14h-110zM514 321l2 14h110l-2 -14h-110zM98 349l2 13h110l-2 -13h-110zM518 349l2 13h110l-2 -13h-110zM526 406l2 12h110l-2 -12h-110z
M102 378l2 12h110l-2 -12h-110zM106 406l2 12h110l-2 -12h-110zM522 378l2 12h110l-2 -12h-110zM110 434l2 11h110l-2 -11h-110zM530 434l2 11h110l-2 -11h-110zM114 463l1 10h110l-1 -10h-110zM118 491l1 10h110l-1 -10h-110zM122 519l1 10h110l-1 -10h-110zM534 463l1 10
h110l-1 -10h-110zM538 491l1 10h110l-1 -10h-110zM542 519l1 10h109v-5.5v-4.5h-110zM126 547l1 9h110l-1 -9h-110zM655 556v-4.5v-4.5h-109l1 9h108z" />
    <glyph glyph-name="E" unicode="E" horiz-adv-x="594" 
d="M603 160l-25 -182h-4l-25 -51h-561l103 736l23 45l1 12h567l-25 -182h-4l-26 -51h-363l-6 -47h315l-26 -182h-4l-25 -51h-293l-7 -47h385zM195 139l19 140h315l20 140h-315l20 140h385l19 140h-525l-98 -700h525l20 140h-385zM55 38l3 19h495l-3 -19h-495zM59 67l3 18
h495l-3 -18h-495zM63 95l3 18h495l-3 -18h-495zM547 14h-495l2 16h495zM95 321l2 14h425l-2 -14h-425zM516 294h-315v-1h-110l2 14h425zM99 349l2 13h425l-2 -13h-425zM103 378l2 12h425l-2 -12h-425zM139 632l1 8h495l-1 -8h-495zM131 576l1 8h495l-1 -8h-495zM135 604l1 8
h495l-1 -8h-495zM143 660l1 7h495l-1 -7h-495zM562 124v-1h-495l3 18h110l-3 -17h385zM71 151l3 17h110l-3 -17h-110zM75 180l3 16h110l-3 -16h-110zM79 208l2 16h110l-2 -16h-110zM83 236l2 15h110l-2 -15h-110zM87 265l2 14h110l-2 -14h-110zM107 406l2 12h110l-2 -12
h-110zM111 434l2 11h110l-2 -11h-110zM119 491l1 10h110l-1 -10h-110zM115 463l1 10h110l-1 -10h-110zM123 519l1 10h110l-1 -10h-110zM127 547l1 9h110l-1 -9h-110z" />
    <glyph glyph-name="F" unicode="F" horiz-adv-x="623" 
d="M696 540h-4l-25 -51h-397l-7 -47h314l-25 -182h-4l-26 -51h-292l-32 -229h-4l-25 -51h-176l103 736l23 45l1 12h601zM279 701h-140l-20 -140l-59 -420l-20 -140h140l20 140l19 140h314l20 140h-314l20 140h419l20 140h-419zM100 321l2 14h424l-2 -14h-424zM104 349l2 13
h424l-2 -13h-424zM108 378l2 12h424l-2 -12h-424zM521 296h-314l-1 -3h-110l2 14h424zM144 632l1 8h529l-1 -8h-529zM665 576h-529l1 8h529zM140 604l1 8h529l-1 -8h-529zM148 660l1 7h529l-1 -7h-529zM60 38l3 19h110l-3 -19h-110zM64 67l3 18h110l-3 -18h-110zM68 95l3 18
h110l-3 -18h-110zM72 123l3 18h110l-3 -18h-110zM76 151l3 17h110l-3 -17h-110zM80 180l3 16h110l-3 -16h-110zM84 208l2 16h110l-2 -16h-110zM88 236l2 15h110l-2 -15h-110zM92 265l2 14h110l-2 -14h-110zM167 16h-110l2 14h110zM112 406l2 12h110l-2 -12h-110zM116 434
l2 11h110l-2 -11h-110zM124 491l1 10h110l-1 -10h-110zM128 519l1 10h110l-1 -10h-110zM120 463l1 10h110l-1 -10h-110zM132 547l1 9h110l-1 -9h-110z" />
    <glyph glyph-name="G" unicode="G" horiz-adv-x="651" 
d="M270 486l-46 -327h222l7 48h-175l25 175l22 45l2 12h159l6 47h-222zM599 714q47 -6 69.5 -26.5t29.5 -49t3.5 -62t-7.5 -64.5l-6 -45h-4l-14 -28h14l-39 -274v-8t-1 -8q-5 -32 -14 -62.5t-29 -54.5l-7 -16v1l-4 -10q-16 -32 -43.5 -53t-76.5 -24q-29 -2 -58 -2.5
t-54 -0.5q-15 0 -30 0.5t-30 0.5q-18 0 -37 0.5t-39 0.5h-17q-33 0 -69.5 1t-66 12t-46 34.5t-10.5 68.5q6 38 10.5 75t9.5 74q5 32 8.5 62.5t8.5 61.5q15 107 33 218q3 14 6.5 25.5t8.5 22.5l14 28q12 41 36.5 63t55 32t64.5 11t64 1h20h107t67 -0.5t42 -1.5t31 -3z
M594 693q-15 2 -31 3t-42 1.5t-66.5 0.5h-105.5h-65t-67 -9t-57 -31.5t-32 -67.5q-21 -125 -37 -245.5t-33 -245.5q-6 -40 12.5 -60.5t48.5 -28.5t66 -8.5t66 -0.5q65 0 122 -1t125 2q46 2 70 23t37 52t17 66t8 65l30 210h-315l-20 -139h175l-20 -141h-280l59 420h280
l-9 -70h140q4 30 9 63.5t1 63t-22.5 51t-63.5 27.5zM601 113q-1 -5 -2 -9t-3 -9h-524l1 4l2 14h526zM593 85l-9 -18h-510q-2 9 -2 18h521zM578 57q-9 -12 -18 -19h-465q-12 8 -17 19h500zM549 30q-22 -13 -50 -13q-60 -3 -110 -3q-15 0 -30 0.5t-30 0.5q-18 0 -37 0.5
t-39 0.5h-17q-32 -1 -66.5 0.5t-60.5 13.5h440zM666 584l-1 -8h-525l1 8h525zM146 604q3 6 3 8h514l2 -8h-519zM346 321l2 14h285l-2 -14h-285zM654 640q2 -2 2.5 -4t1.5 -4h-498l6 8h488zM517 293v1h-175l2 13h285l-2 -14h-110zM350 349l2 13h285l-2 -13h-285zM354 378
l2 12h285l-2 -12h-285zM627 667l11 -7h-447q3 2 6 3.5t8 3.5h422zM607 141q-1 -5 -1.5 -9t-2.5 -9h-110l3 18h111zM183 123h-107l3 18h107zM610 168q-1 -5 -1 -8.5t-1 -8.5h-111l3 17h110zM80 151q1 4 1 8t1 9h108l-3 -17h-107zM505 208l2 16h110l-2 -16h-110zM611 181v-1
h-110l3 16h110zM87 208l2 16h108l-2 -16h-108zM83 180l3 16h108l-3 -16h-108zM509 236l2 15h110l-2 -15h-110zM91 236l2 12v3h108l-2 -15h-108zM513 265l2 14h110l-2 -14h-110zM102 321l2 14h109l-2 -14h-109zM99 293q1 3 1 6.5v7.5h109l-2 -14h-108zM95 265l2 14h108
l-2 -14h-108zM106 349l2 13h109l-2 -13h-109zM110 378l2 12h109l-2 -12h-109zM114 406l2 12h109l-2 -12h-109zM118 434l2 11h109l-2 -11h-109zM549 519l1 10h110l-1 -10h-110zM122 463l1 10h109l-1 -10h-109zM126 491q0 2 1 4.5t1 5.5h108l-1 -10h-109zM131 519l1 10h108
l-1 -10h-108zM664 556l-1 -9h-110l1 9h110zM135 547q0 2 1 4.5t1 4.5h107l-1 -9h-108z" />
    <glyph glyph-name="H" unicode="H" horiz-adv-x="647" 
d="M725 722l-104 -742h-4l-25 -51h-176l39 280h-222l-32 -229h-4l-25 -51h-176l103 736l23 45l1 12h182l-39 -280h222l31 223l23 45l1 12h182zM562 701l-40 -280h-280l40 280h-140l-99 -700h140l39 280h280l-39 -280h140l99 700h-140zM103 321l2 14h530l-2 -14h-530z
M107 349l2 13h530l-2 -13h-530zM519 293l1 3h-310l-1 -3h-110l2 14h530l-2 -14h-110zM111 378l2 12h530l-2 -12h-530zM63 38l3 19h110l-3 -19h-110zM483 38l3 19h110l-3 -19h-110zM67 67l3 18h110l-3 -18h-110zM71 95l3 18h110l-3 -18h-110zM75 123l3 18h110l-3 -18h-110z
M491 95l3 18h110l-3 -18h-110zM487 67l3 18h110l-3 -18h-110zM495 123l3 18h110l-3 -18h-110zM79 151l3 17h110l-3 -17h-110zM499 151l3 17h110l-3 -17h-110zM507 208l2 16h110l-2 -16h-110zM83 180l3 16h110l-3 -16h-110zM87 208l2 16h110l-2 -16h-110zM503 180l3 16h110
l-3 -16h-110zM91 236l2 15h110l-2 -15h-110zM511 236l2 15h110l-2 -15h-110zM170 16h-110l2 14h110zM590 16h-110l2 14h110zM95 265l2 14h110l-2 -14h-110zM515 265l2 14h110l-2 -14h-110zM225 406h-110l2 12h110zM535 406l2 12h110l-2 -12h-110zM539 434l2 11h110l-2 -11
h-110zM119 434l2 11h110l-2 -11h-110zM543 463l1 10h110l-1 -10h-110zM547 491l1 10h110l-1 -10h-110zM551 519l1 10h110l-1 -10h-110zM123 463l1 10h110l-1 -10h-110zM127 491l1 10h110l-1 -10h-110zM131 519l1 10h110l-1 -10h-110zM555 547l1 9h110l-1 -9h-110zM135 547
l1 9h110l-1 -9h-110zM567 632l1 8h110l-1 -8h-110zM143 604l1 8h110l-1 -8h-110zM559 576l1 8h110l-1 -8h-110zM563 604l1 8h110l-1 -8h-110zM139 576l1 8h110l-1 -8h-110zM147 632l1 8h110l-1 -8h-110zM571 660l1 7h110l-1 -7h-110zM151 660l1 7h110l-1 -7h-110z" />
    <glyph glyph-name="I" unicode="I" horiz-adv-x="220" 
d="M301 720l-104 -742h-4l-25 -51h-176l103 736l23 45l1 12h182zM137 699l-98 -700h140l98 700h-140zM59 38l3 19h110l-3 -19h-110zM63 67l3 18h110l-3 -18h-110zM67 95l3 18h110l-3 -18h-110zM71 123l3 18h110l-3 -18h-110zM75 151l3 17h110l-3 -17h-110zM79 180l3 16h110
l-3 -16h-110zM83 208l2 16h110l-2 -16h-110zM166 14h-110l2 16h110zM87 236l2 15h110l-2 -15h-110zM91 265l2 14h110l-2 -14h-110zM95 293l2 14h110l-2 -14h-110zM99 321l2 14h110l-2 -14h-110zM103 349l2 13h110l-2 -13h-110zM107 378l2 12h110l-2 -12h-110zM111 406l2 12
h110l-2 -12h-110zM115 434l2 11h110l-2 -11h-110zM127 519l1 10h110l-1 -10h-110zM119 463l1 10h110l-1 -10h-110zM123 491l1 10h110l-1 -10h-110zM131 547l1 9h110l-1 -9h-110zM143 632l1 8h110l-1 -8h-110zM135 576l1 8h110l-1 -8h-110zM139 604l1 8h110l-1 -8h-110z
M147 660l1 7h110l-1 -7h-110z" />
    <glyph glyph-name="J" unicode="J" horiz-adv-x="524" 
d="M223 232l-10 -70h117l70 503l23 45l1 12h182l-82 -584q-3 -26 -8.5 -48.5t-22.5 -44.5l-10 -21l-5 -11q0 1 0.5 2t0.5 2l-1 -4q-7 -14 -18.5 -27.5t-30.5 -26.5q-32 -23 -64.5 -28t-61.5 -3q-5 0 -13 0.5t-13 0.5h-150q-55 0 -82.5 17t-37 45t-6 64.5t8.5 75.5l7 44
l22 45l2 12h182zM59 211q-6 -39 -11 -76.5t1 -67.5t30 -48t77 -18h150q18 0 35.5 -1t34 0.5t34.5 7t37 19.5q20 14 31 29t16 31t7 33.5t5 36.5l77 544h-105h-35l-20 -140l-59 -420h-175l10 70h-140zM485 113q-1 -5 -1.5 -9t-2.5 -9h-420v9t1 9h423zM478 85q-3 -5 -5 -9.5
t-5 -8.5h-402q-1 4 -2 8.5t-1 9.5h415zM460 57q-4 -5 -9.5 -9t-11.5 -9q-1 -1 -2 -1h-353q-4 4 -7.5 9t-6.5 10h390zM172 126h205l2 15h110l-1 -3l-2 -15h-424q0 5 0.5 9t1.5 9h110zM425 30q-24 -14 -45.5 -15.5t-44.5 0.5q-7 0 -13.5 0.5t-13.5 0.5h-150q-41 0 -64 14h331z
M65 151l3 17h110l-3 -17h-110zM380 151l3 17h110l-3 -17h-110zM388 208l2 16h110l-2 -16h-110zM182 196l-3 -16h-110l1 5l2 11h110zM384 180l3 16h110l-3 -16h-110zM392 236l2 15h110l-2 -15h-110zM400 293l2 14h110l-2 -14h-110zM396 265l2 14h110l-2 -14h-110zM404 321
l2 14h110l-2 -14h-110zM408 349l2 13h110l-2 -13h-110zM412 378l2 12h110l-2 -12h-110zM416 406l2 12h110l-2 -12h-110zM420 434l2 11h110l-2 -11h-110zM432 519l1 10h110l-1 -10h-110zM428 491l1 10h110l-1 -10h-110zM424 463l1 10h110l-1 -10h-110zM436 547l1 9h110l-1 -9
h-110zM440 576l1 8h110l-1 -8h-110zM444 604l1 8h110l-1 -8h-110zM448 632l1 8h110l-1 -8h-110zM452 660l1 7h110l-1 -7h-110z" />
    <glyph glyph-name="K" unicode="K" horiz-adv-x="568" 
d="M700 721l-10 -12l-23 -45l-293 -326l222 -359h-7l-25 -51h-221l-130 209l-22 -158h-4l-25 -51h-176l103 736l23 45l1 12h182l-32 -232l209 232h228zM479 700l-246 -273l38 273h-140l-98 -700h140l39 274l169 -274h176l-217 350l315 350h-176zM330 335q3 -4 5 -7.5t4 -6.5
h-246l2 14h235zM101 378l2 12h110l-1 -8l7 8h138l-11 -12h-245zM97 349l2 13h233l-11 -12v-1h-224zM376 38l-12 19h139l12 -19h-139zM340 95l-11 18h140l10 -18h-139zM486 85q2 -5 5 -9t6 -9h-139l-11 18h139zM323 123l-11 18h139q2 -5 5 -9t6 -9h-139zM305 151l-10 17h139
l10 -17h-139zM417 196l9 -16h-139l-9 16h139zM398 224q3 -5 6 -8.5t5 -7.5h-139l-10 16h138zM53 38l3 19h110l-3 -19h-110zM520 30q2 -4 4.5 -7.5t4.5 -7.5h-138l-10 15h139zM253 236l-9 15h138l9 -15h-138zM57 67l3 18h110l-3 -18h-110zM61 95l3 18h110l-3 -18h-110z
M65 123l3 18h110l-3 -18h-110zM235 265l-8 14h138l8 -14h-138zM218 293l-8 14h137q3 -4 5 -7.5t4 -6.5h-138zM69 151l3 17h110l-3 -17h-110zM73 180l3 16h110l-3 -16h-110zM77 208l2 16h110l-2 -16h-110zM233 406l11 12h138l-11 -12h-138zM81 236l2 15h110l-2 -15h-110z
M160 15h-110l2 15h110zM85 265l2 14h110l-2 -14h-110zM89 293l2 14h110l-2 -14h-110zM258 434l10 11h138l-10 -11h-138zM310 491l8 10h138l-8 -10h-138zM335 519l8 10h138l-8 -10h-138zM284 463l9 10h138l-9 -10h-138zM105 406l2 12h110l-2 -12h-110zM360 547l8 9h138l-8 -9
h-138zM109 434l2 11h110l-2 -11h-110zM412 604l7 8h138l-7 -8h-138zM437 632l7 8h138l-7 -8h-138zM387 576l7 8h138l-7 -8h-138zM117 491l1 10h110l-1 -10h-110zM113 463l1 10h110l-1 -10h-110zM121 519l1 10h110l-1 -10h-110zM125 547l1 9h110l-1 -9h-110zM463 660l6 7h138
l-6 -7h-138zM133 604l1 8h110l-1 -8h-110zM137 632l1 8h110l-1 -8h-110zM129 576l1 8h110l-1 -8h-110zM141 660l1 7h110l-1 -7h-110z" />
    <glyph glyph-name="L" unicode="L" horiz-adv-x="541" 
d="M542 161l-26 -182h-4l-25 -51h-492l103 736l23 45l1 12h182l-78 -560h316zM202 140l78 560h-140l-98 -700h456l20 140h-316zM62 38l3 19h426l-3 -19h-426zM66 67l3 18h426l-3 -18h-426zM70 95l3 18h426l-3 -18h-426zM485 15h-426l2 15h426zM501 125l-1 -2h-426l3 18h110
l-2 -16h316zM78 151l3 17h110l-3 -17h-110zM82 180l3 16h110l-3 -16h-110zM86 208l2 16h110l-2 -16h-110zM90 236l2 15h110l-2 -15h-110zM98 293l2 14h110l-2 -14h-110zM94 265l2 14h110l-2 -14h-110zM102 321l2 14h110l-2 -14h-110zM106 349l2 13h110l-2 -13h-110zM110 378
l2 12h110l-2 -12h-110zM114 406l2 12h110l-2 -12h-110zM118 434l2 11h110l-2 -11h-110zM130 519l1 10h110l-1 -10h-110zM126 491l1 10h110l-1 -10h-110zM122 463l1 10h110l-1 -10h-110zM134 547l1 9h110l-1 -9h-110zM146 632l1 8h110l-1 -8h-110zM142 604l1 8h110l-1 -8
h-110zM138 576l1 8h110l-1 -8h-110zM150 660l1 7h110l-1 -7h-110z" />
    <glyph glyph-name="M" unicode="M" horiz-adv-x="744" 
d="M825 721l-104 -742h-4l-25 -51h-176l54 388l-134 -178h-131l-67 141l-42 -300h-4l-25 -51h-176l103 736l23 45l1 12h172l140 -295q24 31 46.5 62t46.5 62l130 171h172zM661 700l-237 -313l-148 313h-140l-98 -700h140l61 433l106 -223h111l168 223l-61 -433h140l98 700
h-140zM551 362l-10 -13h-244l-6 13h127l2 -4l3 4h128zM531 335l-11 -14h-210l-6 14h227zM510 307l-11 -14h-176l-6 14h193zM520 491q2 2 4 4.5t4 5.5h230l-1 -10h-237zM122 491l1 10h229l5 -10h-235zM542 519l7 10h213l-1 -10h-219zM126 519l1 10h212l5 -10h-218zM336 265
l-6 14h158q-2 -4 -4.5 -7.5t-5.5 -6.5h-142zM583 38l3 19h110l-3 -19h-110zM58 38l3 19h110l-3 -19h-110zM587 67l3 18h110l-3 -18h-110zM591 95l3 18h110l-3 -18h-110zM595 123l3 18h110l-3 -18h-110zM62 67l3 18h110l-3 -18h-110zM66 95l3 18h110l-3 -18h-110zM70 123
l3 18h110l-3 -18h-110zM599 151l3 17h110l-3 -17h-110zM74 151l3 17h110l-3 -17h-110zM563 547l7 9h196l-1 -9h-202zM130 547l1 9h195l5 -9h-201zM603 180l3 16h110l-3 -16h-110zM607 208l2 16h110l-2 -16h-110zM78 180l3 16h110l-3 -16h-110zM82 208l2 16h110l-2 -16h-110z
M467 251l-11 -15h-106l-7 15h124zM165 15h-110l2 15h110zM690 15h-110l2 15h110zM611 236l2 15h110l-2 -15h-110zM86 236l2 15h110l-2 -15h-110zM573 390l-9 -12h-129l9 12h129zM456 406q4 4 9 12h129q-5 -8 -9 -12h-129zM615 265l2 14h110l-2 -14h-110zM619 293l2 14h110
l-2 -14h-110zM623 321l2 14h110l-2 -14h-110zM90 265l2 14h110l-2 -14h-110zM94 293l2 14h110l-2 -14h-110zM98 321l2 14h110l-2 -14h-110zM270 406l-6 12h128l5 -12h-127zM283 378l-5 12h127l6 -12h-128zM585 576l6 8h179l-1 -8h-184zM134 576l1 8h178l4 -8h-183zM627 349
l2 13h110l-2 -13h-110zM102 349l2 13h110l-2 -13h-110zM477 434l9 11h129l-9 -11h-129zM256 434l-5 11h128l5 -11h-128zM635 406l2 12h110l-2 -12h-110zM106 378l2 12h110l-2 -12h-110zM631 378l2 12h110l-2 -12h-110zM110 406l2 12h110l-2 -12h-110zM606 604q3 3 6 8h162
l-1 -8h-167zM138 604l1 8h161l4 -8h-166zM499 463l7 10h129l-7 -10h-129zM242 463l-5 10h128l5 -10h-128zM114 434l2 11h110l-2 -11h-110zM639 434l2 11h110l-2 -11h-110zM142 632l1 8h144l4 -8h-149zM628 632l6 8h144l-1 -8h-149zM118 463l1 10h110l-1 -10h-110zM643 463
l1 10h110l-1 -10h-110zM649 660l6 7h127l-1 -7h-132zM146 660l1 7h127l3 -7h-131z" />
    <glyph glyph-name="N" unicode="N" horiz-adv-x="643" 
d="M722 719l-104 -742h-4l-25 -51h-168l-180 360l-43 -309h-4l-25 -51h-176l103 736l22 45l2 12h173l180 -361l43 304l22 45l2 12h182zM558 698l-61 -437l-219 437h-140l-98 -700h140l61 439l219 -439h140l98 700h-140zM496 224l8 -15l2 15h110l-2 -16h-241l-8 16h131z
M387 180l-8 16h234l-3 -16h-223zM401 151l-8 17h216l-3 -17h-205zM415 123l-8 18h198l-3 -18h-187zM429 95l-8 18h180l-3 -18h-169zM443 67l-8 18h162l-3 -18h-151zM458 38l-9 19h144l-3 -19h-132zM124 491l1 10h233l6 -10h-240zM128 519l1 10h215l6 -10h-222zM60 38l3 19
h110l-3 -19h-110zM587 13h-116l-9 17h127zM64 67l3 18h110l-3 -18h-110zM68 95l3 18h110l-3 -18h-110zM72 123l3 18h110l-3 -18h-110zM359 236l-7 15h131l8 -15h-132zM167 13h-110l2 17h110zM76 151l3 17h110l-3 -17h-110zM331 293l-7 14h131l7 -14h-131zM345 265l-7 14h131
l7 -14h-131zM317 321l-7 14h131l7 -14h-131zM132 547l1 9h198l5 -9h-204zM80 180l3 16h110l-3 -16h-110zM84 208l2 16h110l-2 -16h-110zM303 349l-7 13h132l6 -13h-131zM508 236l2 15h110l-2 -15h-110zM88 236l2 15h110l-2 -15h-110zM274 406l-5 12h131l6 -12h-132zM288 378
l-6 12h132l5 -12h-131zM512 265l2 14h110l-2 -14h-110zM516 293l2 14h110l-2 -14h-110zM520 321l2 14h110l-2 -14h-110zM92 265l2 14h110l-2 -14h-110zM96 293l2 14h110l-2 -14h-110zM100 321l2 14h110l-2 -14h-110zM136 576l1 8h180l4 -8h-185zM261 434l-5 11h131l5 -11
h-131zM104 349l2 13h110l-2 -13h-110zM524 349l2 13h110l-2 -13h-110zM528 378l2 12h110l-2 -12h-110zM532 406l2 12h110l-2 -12h-110zM108 378l2 12h110l-2 -12h-110zM112 406l2 12h110l-2 -12h-110zM140 604l1 8h162l4 -8h-167zM246 463l-5 10h131l6 -10h-132zM116 434
l2 11h110l-2 -11h-110zM536 434l2 11h110l-2 -11h-110zM144 632l1 8h144l4 -8h-149zM544 491l1 10h110l-1 -10h-110zM120 463l1 10h110l-1 -10h-110zM548 519l1 10h110l-1 -10h-110zM540 463l1 10h110l-1 -10h-110zM552 547l1 9h110l-1 -9h-110zM148 660l1 7h127l3 -7h-131z
M560 604l1 8h110l-1 -8h-110zM564 632l1 8h110l-1 -8h-110zM556 576l1 8h110l-1 -8h-110zM568 660l1 7h110l-1 -7h-110z" />
    <glyph glyph-name="O" unicode="O" horiz-adv-x="632" 
d="M86 572l-1 -3v1q0 1 1 2zM439 157l46 328h-222l-46 -328h222zM634 135q-4 -26 -9 -49t-23 -46l-15 -30q-7 -14 -17.5 -27t-29.5 -27q-19 -13 -36 -19.5t-33 -9.5t-31.5 -3h-31.5q-6 0 -12.5 0.5t-13.5 0.5q-19 0 -37 -0.5t-36 -0.5h-134q-21 0 -41 1t-40 4
q-44 7 -70.5 39t-19.5 80l63 448q3 20 6.5 38t11.5 35l3 5l-2 -2l13 26q6 22 19.5 42t43.5 43q20 14 37 21.5t33 10.5t32 3h33h202q26 0 53.5 -0.5t53.5 -5.5q22 -4 40 -15t31 -27t18.5 -36t2.5 -43zM193 136l59 421h280l-59 -421h-280zM636 299l41 292q3 19 -1.5 36.5
t-15.5 30.5t-26 21.5t-34 11.5q-36 6 -70.5 6h-70.5h-145q-18 0 -35.5 0.5t-34 -1.5t-34 -8.5t-37.5 -20.5q-20 -15 -31.5 -29.5t-18 -30t-9 -32.5t-4.5 -36l-21 -145l-41 -292q-2 -20 2.5 -37t15 -30.5t26.5 -22t34 -11.5q35 -6 69.5 -5.5t69.5 0.5q37 0 73.5 0.5t73.5 0.5
q18 0 35.5 -1t35.5 0.5t36 7.5t38 20q20 15 31 30t16 30.5t7 33t5 36.5zM595 113q-1 -5 -1.5 -9t-2.5 -9h-529l1 7l2 11h530zM588 85q-3 -9 -9 -18h-513q-3 6 -4 18h526zM571 57q-6 -9 -20 -19h-466q-4 4 -7.5 9t-6.5 10h500zM540 30q-26 -16 -51 -18t-49 -1q-6 0 -12.5 0.5
t-13.5 0.5q-19 0 -37 -0.5t-36 -0.5h-134q-18 0 -37.5 1t-39.5 4q-19 3 -35 14h445zM130 576q1 5 2 8h529l-1 -8h-530zM138 604l4 8h520l1 -8h-525zM156 632l7 8h490q2 -2 2 -4t2 -4h-501zM188 660l12 7h423l11 -7h-446zM598 135l-2 -12h-110l3 18h110zM66 123l3 18h110
l-3 -18h-110zM70 151l3 17h110l-3 -17h-110zM490 151l3 17h110l-3 -17h-110zM74 180l3 16h110l-3 -16h-110zM78 208l2 16h110l-2 -16h-110zM498 208l2 16h110l-2 -16h-110zM494 180l3 16h110l-3 -16h-110zM82 236l2 15h110l-2 -15h-110zM502 236l2 15h110l-2 -15h-110z
M90 293l2 14h110l-2 -14h-110zM86 265l2 14h110l-2 -14h-110zM94 321l2 14h110l-2 -14h-110zM506 265l2 14h110l-2 -14h-110zM510 293l2 14h110l-2 -14h-110zM514 321l2 14h110l-2 -14h-110zM98 349l2 13h110l-2 -13h-110zM518 349l2 13h110l-2 -13h-110zM522 378l2 12h110
l-2 -12h-110zM102 378l2 12h110l-2 -12h-110zM106 406l2 12h110l-2 -12h-110zM526 406l2 12h110l-2 -12h-110zM110 434l2 11h110l-2 -11h-110zM530 434l2 11h110l-2 -11h-110zM542 519l1 10h110l-1 -10h-110zM114 463l1 10h110l-1 -10h-110zM118 491l1 10h110l-1 -10h-110z
M122 519l1 10h110l-1 -10h-110zM538 491l1 10h110l-1 -10h-110zM534 463l1 10h110l-1 -10h-110zM546 547l1 9h110l-1 -9h-110zM126 547v3l1 6h110l-1 -9h-110z" />
    <glyph glyph-name="P" unicode="P" 
d="M606 250l1 2l-1 -1v-1zM460 405l11 82h-200l-11 -82h200zM675 524q-2 -15 -4.5 -29.5t-3.5 -29.5l-4 -32q-1 -8 -1.5 -15.5t-2.5 -15.5q-2 -16 -5 -33.5t-7 -32.5q-4 -18 -11 -33t-17 -27l-12 -24l1 1l-2 -2v-1q-17 -35 -55 -58q-25 -15 -48 -17.5t-46 -2.5h-230
l-27 -194h-4l-25 -51h-176l103 736l23 45l1 12h449q28 0 51 -9.5t38 -26.5t21.5 -40.5t2.5 -52.5zM236 384l5 35l15 105l5 35h258l-5 -35l-15 -105l-5 -35h-258zM663 591q7 48 -20.5 78t-74.5 30h-288h-35h-105l-98 -700h140l34 245h101h161q23 0 45.5 1.5t46.5 15.5
q24 15 37.5 33t19.5 44q11 47 15.5 93t11.5 93zM611 335l-5 -14h-504l2 14h507zM599 307q-2 -4 -4.5 -7.5t-6.5 -6.5h-490l2 14h499zM617 362q-2 -5 -3 -13h-508l2 13h509zM571 279l-9 -6l2 1q-10 -6 -20 -9h-450l2 14h475zM138 576l1 8h508l-1 -8h-508zM649 612v-4v-4h-507
l1 8h506zM642 640l3 -8h-499l1 8h495zM621 667l8 -7h-479l1 7h470zM62 38l3 19h110l-3 -19h-110zM66 67l3 18h110l-3 -18h-110zM70 95l3 18h110l-3 -18h-110zM74 123l3 18h110l-3 -18h-110zM78 151l3 17h110l-3 -17h-110zM86 208l2 16h110l-2 -16h-110zM82 180l3 16h110
l-3 -16h-110zM169 14h-110l2 16h110zM90 236l2 15h110l-2 -15h-110zM512 406l2 12h112l-2 -12h-112zM622 390q-1 -3 -1.5 -6t-1.5 -6h-111l2 12h112zM110 378l2 12h110l-2 -12h-110zM114 406l2 12h110l-2 -12h-110zM516 434l2 11h111l-2 -11h-111zM118 434l2 11h110l-2 -11
h-110zM631 473v-4.5v-4.5v-1h-111l1 10h110zM130 519l1 10h110l-1 -10h-110zM122 463l1 10h110l-1 -10h-110zM126 491l1 10h110l-1 -10h-110zM524 491l1 10h110l-1 -10h-110zM639 524l-1 -5h-110l1 10h110v-5zM134 547l1 9h110l-1 -9h-110zM532 547l1 9h110l-1 -9h-110z" />
    <glyph glyph-name="Q" unicode="Q" horiz-adv-x="624" 
d="M91 597q0 -1 -0.5 -1.5l-1.5 -1.5zM116 648q-1 -1 -1 -4zM217 180l-2 -19h14zM261 488l-28 -198h200l17 -31l33 229h-222zM60 468q5 38 11.5 69.5t17.5 56.5l3 5l-1 -2l10 19q6 25 17.5 44.5t30.5 33t47.5 20.5t69.5 7h266q52 0 86.5 -6.5t52.5 -25t22 -52t-4 -88.5
l-58 -415q-3 -28 -8.5 -52t-24.5 -47l-8 -16l50 -85h-7l-25 -51h-218l-29 49l-1 -4h-53q-14 0 -32.5 -0.5t-41.5 -0.5q-27 0 -55 0.5t-53.5 2t-44 5t-26.5 8.5v-1q-22 11 -32.5 30t-15 43t-3 50t4.5 52l4 28t5 26q2 9 3 16.5t2 14.5zM475 172l-56 97h-172l182 -314h173
l-42 72q17 13 26.5 27.5t14.5 30t7 32t4 33.5l19 133l37 266q7 48 3.5 77.5t-19.5 46t-46.5 22t-76.5 5.5h-266q-50 0 -78.5 -12.5t-45 -35.5t-23 -56t-12.5 -74l-37 -266q-3 -22 -10 -57.5t-8.5 -72t6.5 -68t36 -46.5q6 -4 26.5 -6.5t47.5 -4t57 -1.5h57h47.5h27.5l-81 140
h-82l59 420h280l-41 -291zM473 141l10 -17l3 17h110l-1 -7l-2 -11h-244l-10 18h134zM83 38q-6 7 -11 19h229l11 -19h-229zM128 576l1 8h528l-1 -8h-528zM656 612l1 -8h-522q0 2 1 4t1 4h519zM592 113q-1 -5 -1.5 -9t-2.5 -9h-223q-3 5 -5.5 9t-4.5 9h237zM146 632l5 8h500
l3 -8h-508zM68 67l-3 18h220l10 -18h-227zM63 95v18h206l10 -18h-216zM585 85q-3 -5 -5 -9t-5 -9h-194q-3 5 -5.5 9t-4.5 9h214zM168 660l11 7h451l8 -7h-470zM569 57q-4 -5 -8 -9.5t-10 -9.5h-153q-3 5 -6 9.5t-5 9.5h182zM317 30l9 -15q-13 0 -28.5 -0.5t-33.5 -0.5
q-26 0 -52.5 0.5t-50 1.5t-39.5 3.5t-21 5.5q-3 1 -9 5h225zM555 2l12 -20h-137l-12 20h137zM540 29l10 -19h-136l-12 20h139zM333 151l-9 17h134l9 -17h-134zM174 125h89v-2h-200q1 5 1 9v9h112zM301 208l-10 16h134l9 -16h-133zM317 180l-9 16h134l8 -16h-133zM285 236
q-2 4 -4.5 7.5t-4.5 7.5h134l8 -15h-133zM65 151l3 17h112l-3 -17h-112zM487 151l3 17h110l-3 -17h-110zM69 180l3 16h112l-3 -16h-112zM73 208l3 15v1h111l-2 -16h-112zM491 180l3 16h110l-3 -16h-110zM495 208l2 16h110l-2 -16h-110zM499 236l2 15h110l-2 -15h-110z
M79 236l2 15h110l-2 -15h-110zM503 265l2 14h110l-2 -14h-110zM511 321l2 14h110l-2 -14h-110zM83 265l2 14h110l-2 -14h-110zM87 293l2 14h110l-2 -14h-110zM91 321l2 14h110l-2 -14h-110zM507 293l2 14h110l-2 -14h-110zM515 349l2 13h110l-2 -13h-110zM95 349l2 13h110
l-2 -13h-110zM519 378l2 12h110l-2 -12h-110zM99 378l2 12h110l-2 -12h-110zM103 406l2 12h110l-2 -12h-110zM523 406l2 12h110l-2 -12h-110zM527 434l2 11h110l-2 -11h-110zM107 434l2 11h110l-2 -11h-110zM531 463l1 10h110l-1 -10h-110zM535 491l1 10h110l-1 -10h-110z
M119 519v3l1 7h110l-1 -10h-110zM539 519l1 10h110l-1 -10h-110zM115 491l1 10h110l-1 -10h-110zM111 463l1 10h110l-1 -10h-110zM653 549v-2h-110l1 9h110zM123 547l1 9h110l-1 -9h-110zM572 -26l3 -4h-137l-3 4h137zM326 15h30l-4 -5h-24zM341 -9l-8 11h14z" />
    <glyph glyph-name="R" unicode="R" horiz-adv-x="613" 
d="M460 407l12 82h-207l-12 -82h207zM677 521q-1 -7 -1.5 -13.5t-0.5 -12.5l-7 -44q0 -5 -0.5 -10t-0.5 -10q-4 -23 -8.5 -46t-9.5 -47q-9 -34 -28 -57l-13 -27q1 1 1 4l-1 -4v-1q-10 -18 -23.5 -31.5t-32.5 -26.5q-6 -5 -12.5 -7.5t-11.5 -4.5l85 -203h-6l-25 -51h-202
l-102 245h-58l-27 -194h-4l-25 -51h-176l103 736l23 45l1 12h456q28 0 51.5 -10.5t38.5 -28.5t22.5 -42.5t3.5 -52.5zM229 386l5 35l15 105l5 35h265l-5 -35l-15 -105l-5 -35h-265zM666 588q3 24 -3 44.5t-19 36t-32 24t-43 8.5h-295h-35h-105l-99 -700h140l35 245h109
l101 -245h160l-101 245q24 0 46 1.5t46 16.5q24 14 37 32t20 44q12 48 17 91t11 90zM611 335q0 -4 -1.5 -7.5t-3.5 -6.5h-511l2 14h514zM599 307q-2 -4 -5 -7.5t-7 -6.5h-496l2 14h506zM618 362q-2 -5 -3 -13h-516l2 13h517zM570 279l-5 -3q-11 -8 -27 -11h-451l2 14h481z
M649 576h-518l1 8h518zM651 612q-1 -4 1 -8h-517l1 8h515zM644 640q1 -6 3 -8h-508l1 8h504zM623 667l7 -7h-487l1 7h479zM420 38l-7 19h127l7 -19h-127zM408 67l-7 18h127l7 -18h-127zM397 95l-7 18h127l7 -18h-127zM385 123l-7 18h127l7 -18h-127zM374 151l-7 17h127
l7 -17h-127zM55 38l3 19h110l-3 -19h-110zM362 180l-6 16h127l6 -16h-127zM350 208l-7 16h127l7 -16h-127zM59 67l3 18h110l-3 -18h-110zM63 95l3 18h110l-3 -18h-110zM67 123l3 18h110l-3 -18h-110zM339 236l-7 15h127l7 -15h-127zM71 151l3 17h110l-3 -17h-110zM551 30
l6 -14h-127l-6 14h127zM75 180l3 16h110l-3 -16h-110zM79 208l2 16h110l-2 -16h-110zM83 236l2 15h110l-2 -15h-110zM162 16h-110l2 14h110zM629 418l-2 -6t-1 -6h-114l2 12h115zM624 390q-1 -3 -1.5 -6t-1.5 -6h-113l2 12h114zM103 378l2 12h110l-2 -12h-110zM107 406l2 12
h110l-2 -12h-110zM633 445l-2 -11h-115l2 11h115zM111 434l2 11h110l-2 -11h-110zM635 471l-1 -8h-114l1 10h114v-2zM524 491l1 10h113l-1 -10h-113zM641 521v-2h-113l1 10h113zM123 519l1 10h110l-1 -10h-110zM115 463l1 10h110l-1 -10h-110zM119 491l1 10h110l-1 -10h-110
zM532 547l1 9h113l-1 -9h-113zM127 547l1 9h110l-1 -9h-110z" />
    <glyph glyph-name="S" unicode="S" horiz-adv-x="643" 
d="M92 584l3 5q-3 -4 -3 -5zM270 489l-7 -47h222l7 47h-222zM230 209l-6 -47h222l6 47h-222zM636 106q-5 -36 -28 -66l-10 -22l-5 -8q-18 -36 -52 -58.5t-75 -22.5h-350q-26 0 -47 9.5t-35.5 26t-20.5 39t-3 48.5l18 123l22 45l2 12h33q-21 17 -30.5 42.5t-4.5 57.5l29 210
q4 24 13 42l7 14l7 14q13 47 51.5 78.5t88.5 31.5h350q26 0 48 -10t36.5 -27t21 -40t3.5 -49l-18 -126h-4l-25 -51h-31q21 -17 32 -44t6 -59zM644 316q4 22 -2 41t-18 33t-30 22.5t-40 8.5h-315l20 140h280l-10 -70h140l15 105q3 22 -3 41t-18 33t-29.5 22.5t-39.5 8.5h-350
q-22 0 -42.5 -8.5t-37 -22.5t-27 -33t-13.5 -41l-30 -210q-3 -22 2.5 -41t18 -33.5t30 -22.5t39.5 -8h315l-19 -140h-280l10 70h-140l-15 -105q-3 -22 2 -41t17.5 -33.5t30.5 -22.5t40 -8h350q22 0 42 8t36 22.5t27.5 33.5t14.5 41zM600 106q-1 -8 -3 -11h-529l2 11l1 7h530
zM594 85q-4 -11 -9 -18h-513l-3 18h525zM579 57q-5 -5 -9.5 -10t-10.5 -9h-469q-7 7 -14 19h503zM127 321q-6 6 -10 14h513v-14h-503zM111 349q-1 5 -2 13h514q1 -3 2 -6.5t3 -6.5h-517zM108 378l1 8l1 4h491l12 -12h-505zM548 30q-24 -14 -51 -14h-350q-28 0 -48 14h449z
M516 293l1 3h-330q-24 0 -43 11h484l-2 -14h-110zM183 126h310l2 15h110l-3 -18h-530l3 18h110zM666 576h-530l1 8h530zM140 604q0 2 1 4t1 4h527q1 -3 0 -8h-529zM151 632l5 8h507l3 -8h-515zM174 660l9 7h461q2 -3 8 -7h-478zM76 151l3 17h110l-3 -17h-110zM496 151l3 17
h110l-3 -17h-110zM500 180l3 16h110l-3 -16h-110zM504 208l2 16h110l-2 -16h-110zM80 180l3 16h110l-3 -16h-110zM508 236l2 15h110l-2 -15h-110zM512 265l2 14h110l-2 -14h-110zM112 406l2 12h110l-2 -12h-110zM116 434l2 11h110l-2 -11h-110zM548 519l1 10h110l-1 -10
h-110zM124 491l1 10h110l-1 -10h-110zM128 519l1 10h110l-1 -10h-110zM120 463l1 10h110l-1 -10h-110zM132 547l1 9h110l-1 -9h-110zM552 547l1 9h110l-1 -9h-110z" />
    <glyph glyph-name="T" unicode="T" horiz-adv-x="601" 
d="M703 720l-25 -182h-4l-26 -51h-188l-71 -509h-4l-25 -51h-176l78 560h-210l25 176l23 45l1 12h602zM119 699l-19 -140h210l-79 -560h140l79 560h210l19 140h-560zM117 576l1 8h530l-1 -8h-530zM121 604l1 8h530l-1 -8h-530zM125 632l1 8h530l-1 -8h-530zM129 660l1 7h530
l-1 -7h-530zM251 38l3 19h110l-3 -19h-110zM263 123l3 18h110l-3 -18h-110zM259 95l3 18h110l-3 -18h-110zM255 67l3 18h110l-3 -18h-110zM267 151l3 17h110l-3 -17h-110zM271 180l3 16h110l-3 -16h-110zM275 208l2 16h110l-2 -16h-110zM358 14h-110l2 16h110zM279 236l2 15
h110l-2 -15h-110zM287 293l2 14h110l-2 -14h-110zM283 265l2 14h110l-2 -14h-110zM291 321l2 14h110l-2 -14h-110zM295 349l2 13h110l-2 -13h-110zM299 378l2 12h110l-2 -12h-110zM303 406l2 12h110l-2 -12h-110zM307 434l2 11h110l-2 -11h-110zM315 491l1 10h110l-1 -10
h-110zM319 519l1 10h110l-1 -10h-110zM311 463l1 10h110l-1 -10h-110zM323 547l1 9h110l-1 -9h-110z" />
    <glyph glyph-name="U" unicode="U" horiz-adv-x="647" 
d="M306 720l-79 -560h222l71 503l23 45l1 12h182l-76 -541q0 -4 -3 -19.5t-6.5 -33.5t-6 -34t-4.5 -20q-6 -12 -11.5 -22.5t-12.5 -18.5l-11 -23q-15 -29 -35 -46.5t-51 -28.5q-7 -2 -19.5 -3t-29.5 -2t-36.5 -1h-38.5h-180h-38t-35.5 1t-28.5 2t-16 3v1q-34 11 -50 28.5
t-21 52.5q-2 25 0.5 47t5.5 43l78 558l23 45l1 12h182zM69 179q-3 -25 -7.5 -52t-1.5 -53q4 -31 18 -45.5t44 -24.5q7 -3 36.5 -4t63.5 -1h64h38h38h65t65.5 1t39.5 4q31 10 49 27t30 48q2 4 4.5 18.5t5.5 31.5t5.5 31.5t2.5 18.5l73 520h-105h-35l-78 -560h-280l78 560h-35
h-105zM603 113q-2 -13 -4 -18h-525l1 18h528zM584 57q-8 -13 -17 -19h-476q-7 6 -11 19h504zM597 85v-3l1 1l-8 -16h-514l-1 11h1l-1 7h522zM556 30q-11 -7 -27 -12q-4 -1 -15 -2t-26.5 -1.5t-34 -0.5h-37.5h-180h-36t-33 0.5t-25.5 1.5t-12.5 2q-16 4 -28 12h455zM186 124
h310l3 17h109q-1 -5 -2 -9t-2 -9h-528l3 18h110zM80 151l1 8l2 9h110l-3 -17h-110zM613 168l-2 -8t-2 -9h-109l3 17h110zM84 180l3 16h110l-3 -16h-110zM88 208l2 16h110l-2 -16h-110zM504 180l3 16h110l-3 -16h-110zM508 208l2 16h110l-2 -16h-110zM92 236l2 15h110l-2 -15
h-110zM512 236l2 15h110l-2 -15h-110zM96 265l2 14h110l-2 -14h-110zM100 293l2 14h110l-2 -14h-110zM104 321l2 14h110l-2 -14h-110zM516 265l2 14h110l-2 -14h-110zM520 293l2 14h110l-2 -14h-110zM524 321l2 14h110l-2 -14h-110zM528 349l2 13h110l-2 -13h-110zM108 349
l2 13h110l-2 -13h-110zM112 378l2 12h110l-2 -12h-110zM116 406l2 12h110l-2 -12h-110zM532 378l2 12h110l-2 -12h-110zM536 406l2 12h110l-2 -12h-110zM120 434l2 11h110l-2 -11h-110zM540 434l2 11h110l-2 -11h-110zM548 491l1 10h110l-1 -10h-110zM552 519l1 10h110
l-1 -10h-110zM128 491l1 10h110l-1 -10h-110zM124 463l1 10h110l-1 -10h-110zM132 519l1 10h110l-1 -10h-110zM544 463l1 10h110l-1 -10h-110zM556 547l1 9h110l-1 -9h-110zM136 547l1 9h110l-1 -9h-110zM564 604l1 8h110l-1 -8h-110zM568 632l1 8h110l-1 -8h-110zM144 604
l1 8h110l-1 -8h-110zM560 576l1 8h110l-1 -8h-110zM140 576l1 8h110l-1 -8h-110zM148 632l1 8h110l-1 -8h-110zM572 660l1 7h110l-1 -7h-110zM152 660l1 7h110l-1 -7h-110z" />
    <glyph glyph-name="V" unicode="V" horiz-adv-x="675" 
d="M795 721l-374 -742h-3l-25 -51h-175l-164 736l25 50l-2 7h194l101 -455q16 32 32 64.5t33 64.5q40 79 82.5 164t81.5 162h194zM613 700l-249 -495l-111 495h-149l156 -700h149l353 700h-149zM357 168l1 -6l3 6h117l-9 -17h-227l-3 17h118zM248 123l-4 18h220l-9 -18h-207
zM254 95l-4 18h200l-9 -18h-187zM260 67l-4 18h180l-9 -18h-167zM266 38l-4 19h160l-10 -19h-146zM401 15h-129l-4 15h140zM229 208l-4 16h118l4 -16h-118zM235 180l-2 16h118l2 -16h-118zM366 180l9 16h117l-9 -16h-117zM381 208l8 16h117l-8 -16h-117zM223 236l-4 15h118
l4 -15h-118zM395 236l8 15h117l-8 -15h-117zM204 321l-3 14h118l3 -14h-118zM210 293l-3 14h118l3 -14h-118zM216 265l-3 14h118l3 -14h-118zM424 293l7 14h117l-7 -14h-117zM410 265l7 14h117l-7 -14h-117zM438 321l7 14h117l-7 -14h-117zM198 349l-2 13h118l2 -13h-118z
M452 349l6 13h118l-7 -13h-117zM185 406l-2 12h118l2 -12h-118zM192 378l-3 12h118l3 -12h-118zM466 378l7 12h117l-6 -12h-118zM481 406l6 12h118l-7 -12h-117zM179 434l-2 11h118l2 -11h-118zM495 434l6 11h118l-6 -11h-118zM172 463l-2 10h118l2 -10h-118zM160 519l-2 10
h118l2 -10h-118zM166 491l-2 10h118l2 -10h-118zM510 463l4 10h118l-5 -10h-117zM538 519l4 10h118l-5 -10h-117zM524 491l4 10h118l-5 -10h-117zM154 547l-2 9h118l2 -9h-118zM552 547l4 9h118l-5 -9h-117zM147 576l-2 8h119l2 -8h-119zM141 604l-2 8h119l2 -8h-119z
M566 576l4 8h118l-4 -8h-118zM580 604l4 8h118l-4 -8h-118zM135 632l-2 8h118l2 -8h-118zM595 632l4 8h118l-4 -8h-118zM609 660l3 7h118l-3 -7h-118zM129 660l-2 7h118l2 -7h-118z" />
    <glyph glyph-name="W" unicode="W" horiz-adv-x="945" 
d="M1068 721l-282 -742h-4l-25 -51h-224l-34 346l-113 -295h-4l-25 -51h-224l-74 736l24 48l-1 9h189l42 -427l142 370l13 25q3 8 5.5 16t5.5 16h191l42 -434l144 377l10 21l14 36h188zM894 700l-194 -507l-51 507h-155l-193 -507l-51 507h-144l71 -700h195l161 423l43 -423
h195l267 700h-144zM177 151q-1 4 -1 8v9h245l-7 -17h-237zM180 123l-2 18h233l-8 -18h-223zM580 123l-1 18h231l-8 -18h-222zM577 151l-1 17h244l-7 -17h-236zM183 95l-2 18h219l-8 -18h-209zM582 95l-1 18h218l-8 -18h-209zM286 196l1 -13h26l5 13h114l-7 -16h-251
q-1 6 -1 16h113zM685 196l1 -13l26 -1l5 14h114l-7 -16h-250v16h111zM185 67v9t-1 9h205l-8 -18h-196zM585 67l-1 18h204l-8 -18h-195zM188 38l-1 19h191l-8 -19h-182zM588 38l-2 19h191l-8 -19h-181zM661 434h-253l4 11h249v-11zM761 15h-171l-2 15h178zM362 15h-171l-2 15
h178zM419 463l3 10h235l2 -10h-240zM430 491l3 10h221l2 -10h-226zM441 519l3 10h207l2 -10h-212zM322 208l5 16h115l-6 -16h-114zM721 208l6 16h114l-6 -16h-114zM171 208q-1 4 -0.5 7.5t-1.5 8.5h113l2 -16h-113zM572 208l-2 16h111l2 -16h-111zM452 547q0 3 3 9h194l1 -9
h-198zM332 236l6 15h115l-6 -15h-115zM732 236l6 15h114l-6 -15h-114zM168 236l-1 15h113l1 -15h-113zM569 236l-2 15h112l1 -15h-111zM343 265l5 14h116l-6 -14h-115zM354 293l5 14h115l-5 -14h-115zM364 321l6 14h115l-5 -14h-116zM159 321l-1 14h114l2 -14h-115zM162 293
l-1 14h114l1 -14h-114zM765 321l6 14h114l-6 -14h-114zM743 265l6 14h114l-6 -14h-114zM754 293l6 14h114l-6 -14h-114zM165 265l-1 14h113l2 -14h-114zM560 321l-2 14h113l2 -14h-113zM563 293l-2 14h113l1 -14h-112zM566 265l-2 14h112l2 -14h-112zM375 349l5 13h115
l-5 -13h-115zM776 349l5 13h114l-5 -13h-114zM157 349l-1 13h114l1 -13h-114zM557 349l-1 13h113l1 -13h-113zM463 576q0 2 3 8h180l1 -8h-184zM154 378l-1 12h114l1 -12h-114zM386 378l5 12h115l-5 -12h-115zM151 406l-1 12h114l1 -12h-114zM798 406l5 12h114l-5 -12h-114z
M397 406l5 12h114l-5 -12h-114zM787 378l5 12h114l-5 -12h-114zM551 406l-1 12h113l1 -12h-113zM554 378l-1 12h113l1 -12h-113zM473 604q2 4 3 8h167l1 -8h-171zM148 434l-1 11h115v-11h-114zM809 434l5 11h113l-4 -11h-114zM484 632q2 4 3 8h153l1 -8h-157zM145 463l-1 10
h114l2 -10h-115zM142 491l-1 10h114l2 -10h-115zM140 519l-2 10h114l2 -10h-114zM820 463l4 10h113l-4 -10h-113zM831 491l3 10h113l-3 -10h-113zM842 519l3 10h113l-3 -10h-113zM137 547q-1 6 -1 9h114l1 -9h-114zM852 547l3 9h113l-3 -9h-113zM495 660q0 2 0.5 3.5
t1.5 3.5h140l1 -7h-143zM134 576q-1 4 -1 8h114l1 -8h-114zM131 604l-1 8h114l1 -8h-114zM128 632q0 2 -1 8h114l1 -8h-114zM884 632l3 8h113l-3 -8h-113zM874 604l3 8h113l-3 -8h-113zM863 576l3 8h113l-3 -8h-113zM125 660q0 2 -0.5 3.5t0.5 3.5h113l1 -7h-114zM895 660
l2 7h113l-2 -7h-113z" />
    <glyph glyph-name="X" unicode="X" horiz-adv-x="566" 
d="M677 701l-19 -37l-219 -318l149 -367h-6l-25 -51h-201l-77 186l-129 -186h-201l25 51h-4l229 333q-17 42 -36 86.5t-37.5 90t-36.5 90t-35 85.5l25 50l-3 7h208l74 -179q30 45 62 89.5t62 89.5h208zM651 700h-159l-140 -203l-84 203h-159l142 -348l-242 -352h159l143 207
l85 -207h159l-144 352zM315 238q-1 -1 -1 -2h-126l10 15h236l7 -15h-125zM208 265l9 14h206l5 -14h-220zM227 293l10 14h175l5 -14h-190zM344 473l3 -7l5 7h126l-7 -10h-247l-5 10h125zM235 434l-4 11h228l-8 -11h-216zM51 38l14 19h126q-3 -5 -6.5 -9.5t-6.5 -9.5h-127z
M396 38l-7 19h126l7 -19h-126zM246 406l-4 12h198l-8 -12h-186zM210 85l-12 -18h-127l13 18h126zM230 113q-4 -5 -7 -9t-6 -9h-126l13 18h126zM249 141q-4 -5 -6.5 -9t-6.5 -9h-126l13 18h126zM385 67l-7 18h125l7 -18h-125zM373 95l-6 18h125l7 -18h-126zM362 123l-7 18
h125l7 -18h-125zM268 168l-13 -17h-125l12 17h126zM247 321l9 14h145l5 -14h-159zM351 151l-7 17h125l7 -17h-125zM150 180l11 16h126l-12 -16h-125zM305 224l-11 -16h-125l11 16h125zM339 180l-6 16h125l6 -16h-125zM327 208l-7 16h125l7 -16h-125zM258 378l-5 12h168
l-9 -12h-154zM172 30q-2 -4 -4.5 -7.5t-5.5 -7.5h-126l10 15h126zM526 30l6 -15h-126l-6 15h126zM394 352l1 -3h-129l2 3l-4 10h137zM365 491l6 10h126l-6 -10h-126zM200 519l-4 10h126l4 -10h-126zM384 519l7 10h126l-7 -10h-126zM212 491l-4 10h125l4 -10h-125zM189 547
l-4 9h126l4 -9h-126zM404 547l6 9h126l-6 -9h-126zM154 632q-2 2 -2 4t-2 4h127l3 -8h-126zM165 604l-3 8h126l4 -8h-127zM424 576l5 8h126l-5 -8h-126zM462 632l6 8h126l-6 -8h-126zM443 604l6 8h126l-6 -8h-126zM177 576l-3 8h126l3 -8h-126zM142 660l-2 7h126l3 -7h-127z
M481 660l5 7h126l-5 -7h-126z" />
    <glyph glyph-name="Y" unicode="Y" horiz-adv-x="657" 
d="M786 721l-13 -18l-20 -39l-296 -383l-42 -302h-4l-25 -51h-176l45 318l-207 418l25 50l-4 7h217l111 -223q43 56 86 111.5t86 111.5h217zM578 700l-187 -243l-120 243h-166l195 -395l-43 -305h140l43 305l304 395h-166zM268 406q-5 8 -6 12h247l-10 -12h-231zM281 378
l-5 12h211l-9 -12h-197zM296 349l-7 13h177l-10 -13h-160zM277 38l3 19h110l-3 -19h-110zM289 123l3 18h110l-3 -18h-110zM281 67l3 18h110l-3 -18h-110zM285 95l3 18h110l-3 -18h-110zM293 151l3 17h110l-3 -17h-110zM309 321q-1 3 -2.5 6.5t-3.5 7.5h142l-11 -14h-125z
M297 180l3 16h110l-3 -16h-110zM301 208l2 16h110l-2 -16h-110zM305 236l2 15h110l-2 -15h-110zM384 15h-110l2 15h110zM309 265l2 14h110l-2 -14h-110zM313 293l2 14h110l-2 -14h-110zM254 434q-3 3 -5 11h130l5 -11h-130zM392 434l9 11h129l-9 -11h-129zM240 463
q-2 2 -3 4.5t-3 5.5h130l6 -10h-130zM457 519l7 10h130l-7 -10h-130zM435 491l8 10h130l-8 -10h-130zM414 463l7 10h130l-8 -10h-129zM226 491l-5 10h129l6 -10h-130zM213 519q-2 2 -3 4.5t-3 5.5h129l6 -10h-129zM478 547l7 9h130l-7 -9h-130zM199 547l-5 9h129l5 -9h-129z
M543 632l6 8h130l-6 -8h-130zM500 576l6 8h130l-6 -8h-130zM522 604l6 8h130l-6 -8h-130zM157 632l-4 8h129l4 -8h-129zM171 604q-4 3 -4 8h129l4 -8h-129zM185 576q-4 3 -4 8h128l4 -8h-128zM565 660l5 7h130l-5 -7h-130zM144 660l-4 7h129l4 -7h-129z" />
    <glyph glyph-name="Z" unicode="Z" horiz-adv-x="629" 
d="M89 663l23 45l1 12h602l-23 -168l-7 -7l-23 -46l-349 -339h323l-25 -182h-4l-25 -51h-596l23 164l22 45l2 10l349 341h-318zM241 139l431 420l19 140h-560l-19 -140h373l-432 -420l-20 -140h560l20 140h-372zM53 38l3 19h530l-3 -19h-530zM57 67l3 18h530l-3 -18h-530z
M61 95l3 18h530l-3 -18h-530zM580 14h-530l2 16h530zM129 576l1 8h530l-1 -8h-530zM133 604l1 8h530l-1 -8h-530zM137 632l1 8h530l-1 -8h-530zM141 660l1 7h530l-1 -7h-530zM595 124v-1h-530l2 11l7 7h149l-18 -17h390zM84 151l18 17h149l-18 -17h-149zM113 180l17 16h149
l-17 -16h-149zM142 208l16 16h149l-16 -16h-149zM171 236l15 15h149l-16 -15h-148zM201 265l14 14h149l-15 -14h-148zM259 321l14 14h149l-15 -14h-148zM230 293l14 14h149l-15 -14h-148zM288 349l13 13h149l-14 -13h-148zM317 378l13 12h148l-12 -12h-149zM346 406l13 12
h148l-13 -12h-148zM375 434l12 11h147l-11 -11h-148zM463 519l10 10h147l-10 -10h-147zM434 491l10 10h147l-10 -10h-147zM405 463l10 10h147l-10 -10h-147zM492 547l9 9h147l-9 -9h-147z" />
    <glyph glyph-name="a" unicode="a" horiz-adv-x="682" 
d="M397 302l-18 84l-43 -84h61zM533 722l166 -742h-5l-25 -51h-187l-31 140h-232l-45 -89h-3l-25 -51h-188l25 51h-3l374 742h179zM303 281l110 215l47 -215h-157zM367 701l-354 -700h149l71 140h259l31 -140h149l-156 700h-149zM118 180l9 16h487l3 -16h-499zM132 208l8 16
h467l4 -16h-479zM504 156h-279l-3 -5h-119l9 17h508l3 -17h-118zM147 236l7 15h447l3 -15h-457zM479 266l-3 13h119l3 -14h-437l7 14h119l-7 -13h199zM529 38l-4 19h119l4 -19h-119zM47 38l10 19h118l-10 -19h-118zM517 95l-4 18h119l3 -18h-118zM523 67l-4 18h119l3 -18
h-118zM511 123l-4 18h119l3 -18h-118zM89 123l10 18h118l-10 -18h-118zM61 67l10 18h118l-10 -18h-118zM75 95l10 18h118l-10 -18h-118zM304 547l4 9h225l3 -9h-232zM473 293l-3 14h119l3 -14h-119zM467 321l-3 14h119l3 -14h-119zM175 293l7 14h119l-7 -14h-119zM189 321
l7 14h119l-7 -14h-119zM319 576l4 8h204l2 -8h-210zM650 30l3 -14h-118l-4 14h119zM154 16h-118l7 14h118zM461 349l-3 13h119l3 -13h-119zM203 349l7 13h119l-7 -13h-119zM333 604l4 8h183l2 -8h-189zM448 406l-3 12h119l3 -12h-119zM454 378l-2 12h119l2 -12h-119z
M218 378l7 12h118l-6 -12h-119zM233 406l6 12h119l-7 -12h-118zM347 632l4 8h163l2 -8h-169zM441 434l-2 11h119l2 -11h-119zM247 434l6 11h119l-6 -11h-119zM435 463l-3 10h119l3 -10h-119zM423 519l-3 10h119l3 -10h-119zM429 491l-3 10h119l3 -10h-119zM290 519l4 10h119
l-5 -10h-118zM276 491l4 10h119l-5 -10h-118zM262 463l4 10h119l-5 -10h-118zM361 660l4 7h143l1 -7h-148z" />
    <glyph glyph-name="b" unicode="b" horiz-adv-x="644" 
d="M449 160l7 47h-222l-7 -47h222zM273 487l-6 -47h222l6 47h-222zM710 607q0 -17 -1.5 -34t-3.5 -34q-2 -14 -4.5 -29t-5.5 -29q-4 -16 -6.5 -31t-4.5 -31q-3 -23 -9.5 -39.5t-18.5 -30.5l-11 -23l-1 -1q13 -17 16 -35.5t-1 -45.5l-19 -140q-5 -36 -29 -66l-10 -22l-4 -8
q-18 -36 -52 -58.5t-75 -22.5h-473l103 736l23 45l1 12h453q25 0 47 -2.5t43 -17.5q25 -17 34 -39t9 -54zM204 139l4 35l10 70l5 35h280l-5 -35l-10 -70l-4 -35h-280zM689 605q1 26 -7 44t-29 33q-19 14 -41 15.5t-46 1.5h-4h-280h-140l-49 -350l-10 -70l-15 -105l-9 -70
l-15 -105h105h35h315q22 0 42 8t36 22.5t27.5 33.5t14.5 41l19 140q5 31 -3 51t-31 37q28 17 41.5 37t17.5 50q6 47 15 93t11 93zM367 419h-124l20 140h280l-20 -140h-156zM584 57q-9 -12 -18 -19h-502l3 19h517zM604 104q-1 -6 -3 -9h-529l3 18h530zM599 85
q-3 -5 -4.5 -9.5t-4.5 -8.5h-522l3 18h528zM555 30q-26 -16 -54 -16h-440l2 16h492zM605 307q4 -4 6 -7.5t4 -6.5h-95v1h-310v-1h-110l2 14h503zM581 335l-5 -3l14 -11h-486l2 14h475zM617 362l-16 -13h-493l2 13h507zM639 390q-3 -6 -8 -12h-519l2 12h525zM496 124l3 17
h110l-3 -18h-530l3 18h110l-3 -17h310zM673 584v-4v-4h-533l1 8h532zM674 612q-1 -6 0 -8h-530l1 8h529zM668 640l3 -8h-523l1 8h519zM646 667q2 -3 8 -7h-502l1 7h493zM80 151l3 17h110l-3 -17h-110zM500 151l3 17h110l-3 -17h-110zM504 180l3 16h110l-3 -16h-110zM84 180
l3 16h110l-3 -16h-110zM88 208l2 16h110l-2 -16h-110zM508 208l2 16h110l-2 -16h-110zM624 251l-1 -7l-1 -8h-110l2 15h110zM92 236l2 15h110l-2 -15h-110zM96 265l2 14h110l-2 -14h-110zM621 279q2 -4 2.5 -7t0.5 -7h-108l2 14h103zM116 406l2 12h110l-2 -12h-110zM648 418
q-1 -8 -3 -12h-109l2 12h110zM120 434l2 11h110l-2 -11h-110zM652 445l-2 -11h-110l2 11h110zM667 529l-1 -10h-114l1 10h114zM662 501q0 -3 -1 -5.5t-1 -4.5h-112l1 10h113zM656 473l-1 -10h-111l1 10h111zM124 463l1 10h110l-1 -10h-110zM128 491l1 10h110l-1 -10h-110z
M132 519l1 10h110l-1 -10h-110zM671 556l-1 -9h-114l1 9h114zM136 547l1 9h110l-1 -9h-110z" />
    <glyph glyph-name="c" unicode="c" 
d="M578 10q-1 -1 -1 -3zM91 584l3 5q-3 -4 -3 -5zM112 628q-1 -2 -1 -4zM592 721q46 -3 68.5 -23.5t29.5 -50t3.5 -65t-8.5 -68.5l-6 -42h-4l-25 -51h-176l10 70h-222l-46 -327h222l2 13l22 45l2 12h182l-5 -35q-3 -20 -6.5 -42.5t-9 -45t-14.5 -43.5t-23 -38l-8 -16l-3 -7
q-17 -33 -46 -55.5t-79 -22.5h-271q-20 0 -53.5 2t-64 14t-50 39t-12.5 77l51 368q5 34 10.5 59.5t14.5 57.5q6 22 14 38l6 12l-3 -7l1 3l3 6v-1l1 2l-1 -1l1 2l3 6q13 45 37 69t53.5 34.5t63 12t64.5 1.5h24q14 0 25 -0.5t22 -0.5h36q26 -1 62.5 -1h101.5h1zM588 700
q-57 0 -90.5 0.5t-58 0.5t-46 0.5t-52.5 0.5q-30 0 -63.5 0.5t-64.5 -8t-55.5 -30t-36.5 -66.5q-8 -32 -14 -57.5t-10 -57.5q-5 -32 -8 -54t-6 -42.5t-6 -42t-7 -52t-10 -73t-15 -104.5q-6 -44 12.5 -67t46 -33.5t58 -12t48.5 -1.5h79.5h67h61.5h63q45 0 70.5 22t40 54
t20.5 69t10 67h-140l-10 -70h-280l59 420h280l-10 -70h140q5 30 9.5 65t0.5 66t-22 52t-61 24zM589 113q-2 -5 -3 -9t-4 -9h-523q0 10 1 18h529zM578 85q-3 -5 -4.5 -9.5t-4.5 -8.5h-504q-3 9 -5 18h518zM563 57q-9 -12 -17 -19h-454q-13 8 -21 19h492zM175 128h310l2 13
h108q-1 -5 -2 -9t-2 -9h-530l3 18h113zM535 30q-22 -14 -52 -14h-271q-18 0 -47.5 1.5t-57.5 12.5h428zM656 612q1 -6 1 -8h-519q2 4 3 8h515zM651 640l2 -8h-501q1 2 2.5 4t3.5 4h493zM657 584q1 -3 0 -8h-109v2h-310v-2h-108q1 2 2 8h525zM633 667l7 -7h-461l11 7h443z
M65 151l3 17h113l-3 -17h-113zM601 168q-1 -5 -1.5 -9t-2.5 -8h-109l3 17h110zM69 180l3 16h113l-3 -16h-113zM73 208l2 16h113l-2 -16h-113zM492 180l3 16h110l-3 -16h-110zM77 236l2 15h113l-2 -15h-113zM81 265l2 14h113l-2 -14h-113zM85 293l2 14h113l-2 -14h-113z
M89 321l2 14h113l-2 -14h-113zM93 349l2 13h113l-2 -13h-113zM97 378l2 12h113l-2 -12h-113zM101 406l2 12h113l-2 -12h-113zM105 434l2 11h113l-2 -11h-113zM109 463l1 10h113l-1 -10h-113zM113 491l1 10h113l-1 -10h-113zM117 519q0 2 1 4.5t1 5.5h112l-1 -10h-113z
M540 519l1 10h110l-1 -10h-110zM544 547l1 9h110l-1 -9h-110zM123 547q1 3 2 9h110l-1 -9h-111zM606 208l1 5l4 -5h-5z" />
    <glyph glyph-name="d" unicode="d" horiz-adv-x="630" 
d="M440 162l46 327h-222l-46 -327h222zM620 717q33 -11 50 -26t23 -34t4.5 -41t-4.5 -47l-2 -11v-6v-7q-2 -15 -4.5 -35.5t-4.5 -34.5l-44 -314q-5 -35 -12 -66.5t-29 -57.5l-10 -21v1l-1 -2q1 0 1 1l-3 -6q1 1 1.5 2t0.5 3l-2 -5q-11 -24 -33.5 -43t-64.5 -32
q-9 -2 -37 -3.5t-58.5 -2t-57 -0.5h-33.5h-313l103 736l23 45l1 12h268q12 0 24.5 0.5t24.5 0.5h33.5t57 -0.5t58.5 -2t39 -3.5h1zM194 141l59 420h280l-59 -420h-280zM611 697q-8 2 -34 3t-57 1.5t-58 0.5h-34q-48 0 -95 -0.5t-95 -0.5h-105l-15 -105l-69 -490l-15 -105
h105h35h155h33.5t57 0.5t57 1.5t34.5 3q33 10 53 25.5t30 36t14.5 44t8.5 49.5l26 190q7 48 14.5 96.5t11.5 96.5q3 25 6.5 48.5t-0.5 43.5t-18 35.5t-46 25.5zM569 57l-10 -10t-12 -9h-493l3 19h512zM594 113l-6 -18h-526l3 18h529zM585 85q-4 -11 -9 -18h-518l3 18h524z
M534 30q-8 -5 -25 -10v1q-8 -2 -34 -3t-55.5 -1.5t-55.5 -0.5h-33h-280l2 14h481zM487 126l2 15h110q-1 -5 -1.5 -9t-2.5 -9h-529l3 18h110l-2 -15h310zM659 584l-1 -8h-528l1 8h528zM660 612q1 -3 0 -8h-526l1 8h525zM657 640l2 -8h-521l1 8h518zM638 667l7 -7h-503l1 7
h495zM70 151l3 17h110l-3 -17h-110zM602 161l-2 -10h-110l3 17h110zM74 180l3 16h110l-3 -16h-110zM78 208l2 16h110l-2 -16h-110zM494 180l3 16h110l-3 -16h-110zM498 208l2 16h110l-2 -16h-110zM82 236l2 15h110l-2 -15h-110zM502 236l2 15h110l-2 -15h-110zM510 293l2 14
h110l-2 -14h-110zM94 321l2 14h110l-2 -14h-110zM86 265l2 14h110l-2 -14h-110zM90 293l2 14h110l-2 -14h-110zM506 265l2 14h110l-2 -14h-110zM514 321l2 14h110l-2 -14h-110zM98 349l2 13h110l-2 -13h-110zM518 349l2 13h110l-2 -13h-110zM526 406l2 12h110l-2 -12h-110z
M102 378l2 12h110l-2 -12h-110zM106 406l2 12h110l-2 -12h-110zM522 378l2 12h110l-2 -12h-110zM110 434l2 11h110l-2 -11h-110zM530 434l2 11h110l-2 -11h-110zM114 463l1 10h110l-1 -10h-110zM118 491l1 10h110l-1 -10h-110zM122 519l1 10h110l-1 -10h-110zM534 463l1 10
h110l-1 -10h-110zM538 491l1 10h110l-1 -10h-110zM542 519l1 10h109v-5.5v-4.5h-110zM126 547l1 9h110l-1 -9h-110zM655 556v-4.5v-4.5h-109l1 9h108z" />
    <glyph glyph-name="e" unicode="e" horiz-adv-x="594" 
d="M603 160l-25 -182h-4l-25 -51h-561l103 736l23 45l1 12h567l-25 -182h-4l-26 -51h-363l-6 -47h315l-26 -182h-4l-25 -51h-293l-7 -47h385zM195 139l19 140h315l20 140h-315l20 140h385l19 140h-525l-98 -700h525l20 140h-385zM55 38l3 19h495l-3 -19h-495zM59 67l3 18
h495l-3 -18h-495zM63 95l3 18h495l-3 -18h-495zM547 14h-495l2 16h495zM95 321l2 14h425l-2 -14h-425zM516 294h-315v-1h-110l2 14h425zM99 349l2 13h425l-2 -13h-425zM103 378l2 12h425l-2 -12h-425zM139 632l1 8h495l-1 -8h-495zM131 576l1 8h495l-1 -8h-495zM135 604l1 8
h495l-1 -8h-495zM143 660l1 7h495l-1 -7h-495zM562 124v-1h-495l3 18h110l-3 -17h385zM71 151l3 17h110l-3 -17h-110zM75 180l3 16h110l-3 -16h-110zM79 208l2 16h110l-2 -16h-110zM83 236l2 15h110l-2 -15h-110zM87 265l2 14h110l-2 -14h-110zM107 406l2 12h110l-2 -12
h-110zM111 434l2 11h110l-2 -11h-110zM119 491l1 10h110l-1 -10h-110zM115 463l1 10h110l-1 -10h-110zM123 519l1 10h110l-1 -10h-110zM127 547l1 9h110l-1 -9h-110z" />
    <glyph glyph-name="f" unicode="f" horiz-adv-x="623" 
d="M696 540h-4l-25 -51h-397l-7 -47h314l-25 -182h-4l-26 -51h-292l-32 -229h-4l-25 -51h-176l103 736l23 45l1 12h601zM279 701h-140l-20 -140l-59 -420l-20 -140h140l20 140l19 140h314l20 140h-314l20 140h419l20 140h-419zM100 321l2 14h424l-2 -14h-424zM104 349l2 13
h424l-2 -13h-424zM108 378l2 12h424l-2 -12h-424zM521 296h-314l-1 -3h-110l2 14h424zM144 632l1 8h529l-1 -8h-529zM665 576h-529l1 8h529zM140 604l1 8h529l-1 -8h-529zM148 660l1 7h529l-1 -7h-529zM60 38l3 19h110l-3 -19h-110zM64 67l3 18h110l-3 -18h-110zM68 95l3 18
h110l-3 -18h-110zM72 123l3 18h110l-3 -18h-110zM76 151l3 17h110l-3 -17h-110zM80 180l3 16h110l-3 -16h-110zM84 208l2 16h110l-2 -16h-110zM88 236l2 15h110l-2 -15h-110zM92 265l2 14h110l-2 -14h-110zM167 16h-110l2 14h110zM112 406l2 12h110l-2 -12h-110zM116 434
l2 11h110l-2 -11h-110zM124 491l1 10h110l-1 -10h-110zM128 519l1 10h110l-1 -10h-110zM120 463l1 10h110l-1 -10h-110zM132 547l1 9h110l-1 -9h-110z" />
    <glyph glyph-name="g" unicode="g" horiz-adv-x="651" 
d="M270 486l-46 -327h222l7 48h-175l25 175l22 45l2 12h159l6 47h-222zM599 714q47 -6 69.5 -26.5t29.5 -49t3.5 -62t-7.5 -64.5l-6 -45h-4l-14 -28h14l-39 -274v-8t-1 -8q-5 -32 -14 -62.5t-29 -54.5l-7 -16v1l-4 -10q-16 -32 -43.5 -53t-76.5 -24q-29 -2 -58 -2.5
t-54 -0.5q-15 0 -30 0.5t-30 0.5q-18 0 -37 0.5t-39 0.5h-17q-33 0 -69.5 1t-66 12t-46 34.5t-10.5 68.5q6 38 10.5 75t9.5 74q5 32 8.5 62.5t8.5 61.5q15 107 33 218q3 14 6.5 25.5t8.5 22.5l14 28q12 41 36.5 63t55 32t64.5 11t64 1h20h107t67 -0.5t42 -1.5t31 -3z
M594 693q-15 2 -31 3t-42 1.5t-66.5 0.5h-105.5h-65t-67 -9t-57 -31.5t-32 -67.5q-21 -125 -37 -245.5t-33 -245.5q-6 -40 12.5 -60.5t48.5 -28.5t66 -8.5t66 -0.5q65 0 122 -1t125 2q46 2 70 23t37 52t17 66t8 65l30 210h-315l-20 -139h175l-20 -141h-280l59 420h280
l-9 -70h140q4 30 9 63.5t1 63t-22.5 51t-63.5 27.5zM601 113q-1 -5 -2 -9t-3 -9h-524l1 4l2 14h526zM593 85l-9 -18h-510q-2 9 -2 18h521zM578 57q-9 -12 -18 -19h-465q-12 8 -17 19h500zM549 30q-22 -13 -50 -13q-60 -3 -110 -3q-15 0 -30 0.5t-30 0.5q-18 0 -37 0.5
t-39 0.5h-17q-32 -1 -66.5 0.5t-60.5 13.5h440zM666 584l-1 -8h-525l1 8h525zM146 604q3 6 3 8h514l2 -8h-519zM346 321l2 14h285l-2 -14h-285zM654 640q2 -2 2.5 -4t1.5 -4h-498l6 8h488zM517 293v1h-175l2 13h285l-2 -14h-110zM350 349l2 13h285l-2 -13h-285zM354 378
l2 12h285l-2 -12h-285zM627 667l11 -7h-447q3 2 6 3.5t8 3.5h422zM607 141q-1 -5 -1.5 -9t-2.5 -9h-110l3 18h111zM183 123h-107l3 18h107zM610 168q-1 -5 -1 -8.5t-1 -8.5h-111l3 17h110zM80 151q1 4 1 8t1 9h108l-3 -17h-107zM505 208l2 16h110l-2 -16h-110zM611 181v-1
h-110l3 16h110zM87 208l2 16h108l-2 -16h-108zM83 180l3 16h108l-3 -16h-108zM509 236l2 15h110l-2 -15h-110zM91 236l2 12v3h108l-2 -15h-108zM513 265l2 14h110l-2 -14h-110zM102 321l2 14h109l-2 -14h-109zM99 293q1 3 1 6.5v7.5h109l-2 -14h-108zM95 265l2 14h108
l-2 -14h-108zM106 349l2 13h109l-2 -13h-109zM110 378l2 12h109l-2 -12h-109zM114 406l2 12h109l-2 -12h-109zM118 434l2 11h109l-2 -11h-109zM549 519l1 10h110l-1 -10h-110zM122 463l1 10h109l-1 -10h-109zM126 491q0 2 1 4.5t1 5.5h108l-1 -10h-109zM131 519l1 10h108
l-1 -10h-108zM664 556l-1 -9h-110l1 9h110zM135 547q0 2 1 4.5t1 4.5h107l-1 -9h-108z" />
    <glyph glyph-name="h" unicode="h" horiz-adv-x="647" 
d="M725 722l-104 -742h-4l-25 -51h-176l39 280h-222l-32 -229h-4l-25 -51h-176l103 736l23 45l1 12h182l-39 -280h222l31 223l23 45l1 12h182zM562 701l-40 -280h-280l40 280h-140l-99 -700h140l39 280h280l-39 -280h140l99 700h-140zM103 321l2 14h530l-2 -14h-530z
M107 349l2 13h530l-2 -13h-530zM519 293l1 3h-310l-1 -3h-110l2 14h530l-2 -14h-110zM111 378l2 12h530l-2 -12h-530zM63 38l3 19h110l-3 -19h-110zM483 38l3 19h110l-3 -19h-110zM67 67l3 18h110l-3 -18h-110zM71 95l3 18h110l-3 -18h-110zM75 123l3 18h110l-3 -18h-110z
M491 95l3 18h110l-3 -18h-110zM487 67l3 18h110l-3 -18h-110zM495 123l3 18h110l-3 -18h-110zM79 151l3 17h110l-3 -17h-110zM499 151l3 17h110l-3 -17h-110zM507 208l2 16h110l-2 -16h-110zM83 180l3 16h110l-3 -16h-110zM87 208l2 16h110l-2 -16h-110zM503 180l3 16h110
l-3 -16h-110zM91 236l2 15h110l-2 -15h-110zM511 236l2 15h110l-2 -15h-110zM170 16h-110l2 14h110zM590 16h-110l2 14h110zM95 265l2 14h110l-2 -14h-110zM515 265l2 14h110l-2 -14h-110zM225 406h-110l2 12h110zM535 406l2 12h110l-2 -12h-110zM539 434l2 11h110l-2 -11
h-110zM119 434l2 11h110l-2 -11h-110zM543 463l1 10h110l-1 -10h-110zM547 491l1 10h110l-1 -10h-110zM551 519l1 10h110l-1 -10h-110zM123 463l1 10h110l-1 -10h-110zM127 491l1 10h110l-1 -10h-110zM131 519l1 10h110l-1 -10h-110zM555 547l1 9h110l-1 -9h-110zM135 547
l1 9h110l-1 -9h-110zM567 632l1 8h110l-1 -8h-110zM143 604l1 8h110l-1 -8h-110zM559 576l1 8h110l-1 -8h-110zM563 604l1 8h110l-1 -8h-110zM139 576l1 8h110l-1 -8h-110zM147 632l1 8h110l-1 -8h-110zM571 660l1 7h110l-1 -7h-110zM151 660l1 7h110l-1 -7h-110z" />
    <glyph glyph-name="i" unicode="i" horiz-adv-x="220" 
d="M301 720l-104 -742h-4l-25 -51h-176l103 736l23 45l1 12h182zM137 699l-98 -700h140l98 700h-140zM59 38l3 19h110l-3 -19h-110zM63 67l3 18h110l-3 -18h-110zM67 95l3 18h110l-3 -18h-110zM71 123l3 18h110l-3 -18h-110zM75 151l3 17h110l-3 -17h-110zM79 180l3 16h110
l-3 -16h-110zM83 208l2 16h110l-2 -16h-110zM166 14h-110l2 16h110zM87 236l2 15h110l-2 -15h-110zM91 265l2 14h110l-2 -14h-110zM95 293l2 14h110l-2 -14h-110zM99 321l2 14h110l-2 -14h-110zM103 349l2 13h110l-2 -13h-110zM107 378l2 12h110l-2 -12h-110zM111 406l2 12
h110l-2 -12h-110zM115 434l2 11h110l-2 -11h-110zM127 519l1 10h110l-1 -10h-110zM119 463l1 10h110l-1 -10h-110zM123 491l1 10h110l-1 -10h-110zM131 547l1 9h110l-1 -9h-110zM143 632l1 8h110l-1 -8h-110zM135 576l1 8h110l-1 -8h-110zM139 604l1 8h110l-1 -8h-110z
M147 660l1 7h110l-1 -7h-110z" />
    <glyph glyph-name="j" unicode="j" horiz-adv-x="524" 
d="M223 232l-10 -70h117l70 503l23 45l1 12h182l-82 -584q-3 -26 -8.5 -48.5t-22.5 -44.5l-10 -21l-5 -11q0 1 0.5 2t0.5 2l-1 -4q-7 -14 -18.5 -27.5t-30.5 -26.5q-32 -23 -64.5 -28t-61.5 -3q-5 0 -13 0.5t-13 0.5h-150q-55 0 -82.5 17t-37 45t-6 64.5t8.5 75.5l7 44
l22 45l2 12h182zM59 211q-6 -39 -11 -76.5t1 -67.5t30 -48t77 -18h150q18 0 35.5 -1t34 0.5t34.5 7t37 19.5q20 14 31 29t16 31t7 33.5t5 36.5l77 544h-105h-35l-20 -140l-59 -420h-175l10 70h-140zM485 113q-1 -5 -1.5 -9t-2.5 -9h-420v9t1 9h423zM478 85q-3 -5 -5 -9.5
t-5 -8.5h-402q-1 4 -2 8.5t-1 9.5h415zM460 57q-4 -5 -9.5 -9t-11.5 -9q-1 -1 -2 -1h-353q-4 4 -7.5 9t-6.5 10h390zM172 126h205l2 15h110l-1 -3l-2 -15h-424q0 5 0.5 9t1.5 9h110zM425 30q-24 -14 -45.5 -15.5t-44.5 0.5q-7 0 -13.5 0.5t-13.5 0.5h-150q-41 0 -64 14h331z
M65 151l3 17h110l-3 -17h-110zM380 151l3 17h110l-3 -17h-110zM388 208l2 16h110l-2 -16h-110zM182 196l-3 -16h-110l1 5l2 11h110zM384 180l3 16h110l-3 -16h-110zM392 236l2 15h110l-2 -15h-110zM400 293l2 14h110l-2 -14h-110zM396 265l2 14h110l-2 -14h-110zM404 321
l2 14h110l-2 -14h-110zM408 349l2 13h110l-2 -13h-110zM412 378l2 12h110l-2 -12h-110zM416 406l2 12h110l-2 -12h-110zM420 434l2 11h110l-2 -11h-110zM432 519l1 10h110l-1 -10h-110zM428 491l1 10h110l-1 -10h-110zM424 463l1 10h110l-1 -10h-110zM436 547l1 9h110l-1 -9
h-110zM440 576l1 8h110l-1 -8h-110zM444 604l1 8h110l-1 -8h-110zM448 632l1 8h110l-1 -8h-110zM452 660l1 7h110l-1 -7h-110z" />
    <glyph glyph-name="k" unicode="k" horiz-adv-x="568" 
d="M700 721l-10 -12l-23 -45l-293 -326l222 -359h-7l-25 -51h-221l-130 209l-22 -158h-4l-25 -51h-176l103 736l23 45l1 12h182l-32 -232l209 232h228zM479 700l-246 -273l38 273h-140l-98 -700h140l39 274l169 -274h176l-217 350l315 350h-176zM330 335q3 -4 5 -7.5t4 -6.5
h-246l2 14h235zM101 378l2 12h110l-1 -8l7 8h138l-11 -12h-245zM97 349l2 13h233l-11 -12v-1h-224zM376 38l-12 19h139l12 -19h-139zM340 95l-11 18h140l10 -18h-139zM486 85q2 -5 5 -9t6 -9h-139l-11 18h139zM323 123l-11 18h139q2 -5 5 -9t6 -9h-139zM305 151l-10 17h139
l10 -17h-139zM417 196l9 -16h-139l-9 16h139zM398 224q3 -5 6 -8.5t5 -7.5h-139l-10 16h138zM53 38l3 19h110l-3 -19h-110zM520 30q2 -4 4.5 -7.5t4.5 -7.5h-138l-10 15h139zM253 236l-9 15h138l9 -15h-138zM57 67l3 18h110l-3 -18h-110zM61 95l3 18h110l-3 -18h-110z
M65 123l3 18h110l-3 -18h-110zM235 265l-8 14h138l8 -14h-138zM218 293l-8 14h137q3 -4 5 -7.5t4 -6.5h-138zM69 151l3 17h110l-3 -17h-110zM73 180l3 16h110l-3 -16h-110zM77 208l2 16h110l-2 -16h-110zM233 406l11 12h138l-11 -12h-138zM81 236l2 15h110l-2 -15h-110z
M160 15h-110l2 15h110zM85 265l2 14h110l-2 -14h-110zM89 293l2 14h110l-2 -14h-110zM258 434l10 11h138l-10 -11h-138zM310 491l8 10h138l-8 -10h-138zM335 519l8 10h138l-8 -10h-138zM284 463l9 10h138l-9 -10h-138zM105 406l2 12h110l-2 -12h-110zM360 547l8 9h138l-8 -9
h-138zM109 434l2 11h110l-2 -11h-110zM412 604l7 8h138l-7 -8h-138zM437 632l7 8h138l-7 -8h-138zM387 576l7 8h138l-7 -8h-138zM117 491l1 10h110l-1 -10h-110zM113 463l1 10h110l-1 -10h-110zM121 519l1 10h110l-1 -10h-110zM125 547l1 9h110l-1 -9h-110zM463 660l6 7h138
l-6 -7h-138zM133 604l1 8h110l-1 -8h-110zM137 632l1 8h110l-1 -8h-110zM129 576l1 8h110l-1 -8h-110zM141 660l1 7h110l-1 -7h-110z" />
    <glyph glyph-name="l" unicode="l" horiz-adv-x="541" 
d="M542 161l-26 -182h-4l-25 -51h-492l103 736l23 45l1 12h182l-78 -560h316zM202 140l78 560h-140l-98 -700h456l20 140h-316zM62 38l3 19h426l-3 -19h-426zM66 67l3 18h426l-3 -18h-426zM70 95l3 18h426l-3 -18h-426zM485 15h-426l2 15h426zM501 125l-1 -2h-426l3 18h110
l-2 -16h316zM78 151l3 17h110l-3 -17h-110zM82 180l3 16h110l-3 -16h-110zM86 208l2 16h110l-2 -16h-110zM90 236l2 15h110l-2 -15h-110zM98 293l2 14h110l-2 -14h-110zM94 265l2 14h110l-2 -14h-110zM102 321l2 14h110l-2 -14h-110zM106 349l2 13h110l-2 -13h-110zM110 378
l2 12h110l-2 -12h-110zM114 406l2 12h110l-2 -12h-110zM118 434l2 11h110l-2 -11h-110zM130 519l1 10h110l-1 -10h-110zM126 491l1 10h110l-1 -10h-110zM122 463l1 10h110l-1 -10h-110zM134 547l1 9h110l-1 -9h-110zM146 632l1 8h110l-1 -8h-110zM142 604l1 8h110l-1 -8
h-110zM138 576l1 8h110l-1 -8h-110zM150 660l1 7h110l-1 -7h-110z" />
    <glyph glyph-name="m" unicode="m" horiz-adv-x="744" 
d="M825 721l-104 -742h-4l-25 -51h-176l54 388l-134 -178h-131l-67 141l-42 -300h-4l-25 -51h-176l103 736l23 45l1 12h172l140 -295q24 31 46.5 62t46.5 62l130 171h172zM661 700l-237 -313l-148 313h-140l-98 -700h140l61 433l106 -223h111l168 223l-61 -433h140l98 700
h-140zM551 362l-10 -13h-244l-6 13h127l2 -4l3 4h128zM531 335l-11 -14h-210l-6 14h227zM510 307l-11 -14h-176l-6 14h193zM520 491q2 2 4 4.5t4 5.5h230l-1 -10h-237zM122 491l1 10h229l5 -10h-235zM542 519l7 10h213l-1 -10h-219zM126 519l1 10h212l5 -10h-218zM336 265
l-6 14h158q-2 -4 -4.5 -7.5t-5.5 -6.5h-142zM583 38l3 19h110l-3 -19h-110zM58 38l3 19h110l-3 -19h-110zM587 67l3 18h110l-3 -18h-110zM591 95l3 18h110l-3 -18h-110zM595 123l3 18h110l-3 -18h-110zM62 67l3 18h110l-3 -18h-110zM66 95l3 18h110l-3 -18h-110zM70 123
l3 18h110l-3 -18h-110zM599 151l3 17h110l-3 -17h-110zM74 151l3 17h110l-3 -17h-110zM563 547l7 9h196l-1 -9h-202zM130 547l1 9h195l5 -9h-201zM603 180l3 16h110l-3 -16h-110zM607 208l2 16h110l-2 -16h-110zM78 180l3 16h110l-3 -16h-110zM82 208l2 16h110l-2 -16h-110z
M467 251l-11 -15h-106l-7 15h124zM165 15h-110l2 15h110zM690 15h-110l2 15h110zM611 236l2 15h110l-2 -15h-110zM86 236l2 15h110l-2 -15h-110zM573 390l-9 -12h-129l9 12h129zM456 406q4 4 9 12h129q-5 -8 -9 -12h-129zM615 265l2 14h110l-2 -14h-110zM619 293l2 14h110
l-2 -14h-110zM623 321l2 14h110l-2 -14h-110zM90 265l2 14h110l-2 -14h-110zM94 293l2 14h110l-2 -14h-110zM98 321l2 14h110l-2 -14h-110zM270 406l-6 12h128l5 -12h-127zM283 378l-5 12h127l6 -12h-128zM585 576l6 8h179l-1 -8h-184zM134 576l1 8h178l4 -8h-183zM627 349
l2 13h110l-2 -13h-110zM102 349l2 13h110l-2 -13h-110zM477 434l9 11h129l-9 -11h-129zM256 434l-5 11h128l5 -11h-128zM635 406l2 12h110l-2 -12h-110zM106 378l2 12h110l-2 -12h-110zM631 378l2 12h110l-2 -12h-110zM110 406l2 12h110l-2 -12h-110zM606 604q3 3 6 8h162
l-1 -8h-167zM138 604l1 8h161l4 -8h-166zM499 463l7 10h129l-7 -10h-129zM242 463l-5 10h128l5 -10h-128zM114 434l2 11h110l-2 -11h-110zM639 434l2 11h110l-2 -11h-110zM142 632l1 8h144l4 -8h-149zM628 632l6 8h144l-1 -8h-149zM118 463l1 10h110l-1 -10h-110zM643 463
l1 10h110l-1 -10h-110zM649 660l6 7h127l-1 -7h-132zM146 660l1 7h127l3 -7h-131z" />
    <glyph glyph-name="n" unicode="n" horiz-adv-x="643" 
d="M722 719l-104 -742h-4l-25 -51h-168l-180 360l-43 -309h-4l-25 -51h-176l103 736l22 45l2 12h173l180 -361l43 304l22 45l2 12h182zM558 698l-61 -437l-219 437h-140l-98 -700h140l61 439l219 -439h140l98 700h-140zM496 224l8 -15l2 15h110l-2 -16h-241l-8 16h131z
M387 180l-8 16h234l-3 -16h-223zM401 151l-8 17h216l-3 -17h-205zM415 123l-8 18h198l-3 -18h-187zM429 95l-8 18h180l-3 -18h-169zM443 67l-8 18h162l-3 -18h-151zM458 38l-9 19h144l-3 -19h-132zM124 491l1 10h233l6 -10h-240zM128 519l1 10h215l6 -10h-222zM60 38l3 19
h110l-3 -19h-110zM587 13h-116l-9 17h127zM64 67l3 18h110l-3 -18h-110zM68 95l3 18h110l-3 -18h-110zM72 123l3 18h110l-3 -18h-110zM359 236l-7 15h131l8 -15h-132zM167 13h-110l2 17h110zM76 151l3 17h110l-3 -17h-110zM331 293l-7 14h131l7 -14h-131zM345 265l-7 14h131
l7 -14h-131zM317 321l-7 14h131l7 -14h-131zM132 547l1 9h198l5 -9h-204zM80 180l3 16h110l-3 -16h-110zM84 208l2 16h110l-2 -16h-110zM303 349l-7 13h132l6 -13h-131zM508 236l2 15h110l-2 -15h-110zM88 236l2 15h110l-2 -15h-110zM274 406l-5 12h131l6 -12h-132zM288 378
l-6 12h132l5 -12h-131zM512 265l2 14h110l-2 -14h-110zM516 293l2 14h110l-2 -14h-110zM520 321l2 14h110l-2 -14h-110zM92 265l2 14h110l-2 -14h-110zM96 293l2 14h110l-2 -14h-110zM100 321l2 14h110l-2 -14h-110zM136 576l1 8h180l4 -8h-185zM261 434l-5 11h131l5 -11
h-131zM104 349l2 13h110l-2 -13h-110zM524 349l2 13h110l-2 -13h-110zM528 378l2 12h110l-2 -12h-110zM532 406l2 12h110l-2 -12h-110zM108 378l2 12h110l-2 -12h-110zM112 406l2 12h110l-2 -12h-110zM140 604l1 8h162l4 -8h-167zM246 463l-5 10h131l6 -10h-132zM116 434
l2 11h110l-2 -11h-110zM536 434l2 11h110l-2 -11h-110zM144 632l1 8h144l4 -8h-149zM544 491l1 10h110l-1 -10h-110zM120 463l1 10h110l-1 -10h-110zM548 519l1 10h110l-1 -10h-110zM540 463l1 10h110l-1 -10h-110zM552 547l1 9h110l-1 -9h-110zM148 660l1 7h127l3 -7h-131z
M560 604l1 8h110l-1 -8h-110zM564 632l1 8h110l-1 -8h-110zM556 576l1 8h110l-1 -8h-110zM568 660l1 7h110l-1 -7h-110z" />
    <glyph glyph-name="o" unicode="o" horiz-adv-x="632" 
d="M86 572l-1 -3v1q0 1 1 2zM439 157l46 328h-222l-46 -328h222zM634 135q-4 -26 -9 -49t-23 -46l-15 -30q-7 -14 -17.5 -27t-29.5 -27q-19 -13 -36 -19.5t-33 -9.5t-31.5 -3h-31.5q-6 0 -12.5 0.5t-13.5 0.5q-19 0 -37 -0.5t-36 -0.5h-134q-21 0 -41 1t-40 4
q-44 7 -70.5 39t-19.5 80l63 448q3 20 6.5 38t11.5 35l3 5l-2 -2l13 26q6 22 19.5 42t43.5 43q20 14 37 21.5t33 10.5t32 3h33h202q26 0 53.5 -0.5t53.5 -5.5q22 -4 40 -15t31 -27t18.5 -36t2.5 -43zM193 136l59 421h280l-59 -421h-280zM636 299l41 292q3 19 -1.5 36.5
t-15.5 30.5t-26 21.5t-34 11.5q-36 6 -70.5 6h-70.5h-145q-18 0 -35.5 0.5t-34 -1.5t-34 -8.5t-37.5 -20.5q-20 -15 -31.5 -29.5t-18 -30t-9 -32.5t-4.5 -36l-21 -145l-41 -292q-2 -20 2.5 -37t15 -30.5t26.5 -22t34 -11.5q35 -6 69.5 -5.5t69.5 0.5q37 0 73.5 0.5t73.5 0.5
q18 0 35.5 -1t35.5 0.5t36 7.5t38 20q20 15 31 30t16 30.5t7 33t5 36.5zM595 113q-1 -5 -1.5 -9t-2.5 -9h-529l1 7l2 11h530zM588 85q-3 -9 -9 -18h-513q-3 6 -4 18h526zM571 57q-6 -9 -20 -19h-466q-4 4 -7.5 9t-6.5 10h500zM540 30q-26 -16 -51 -18t-49 -1q-6 0 -12.5 0.5
t-13.5 0.5q-19 0 -37 -0.5t-36 -0.5h-134q-18 0 -37.5 1t-39.5 4q-19 3 -35 14h445zM130 576q1 5 2 8h529l-1 -8h-530zM138 604l4 8h520l1 -8h-525zM156 632l7 8h490q2 -2 2 -4t2 -4h-501zM188 660l12 7h423l11 -7h-446zM598 135l-2 -12h-110l3 18h110zM66 123l3 18h110
l-3 -18h-110zM70 151l3 17h110l-3 -17h-110zM490 151l3 17h110l-3 -17h-110zM74 180l3 16h110l-3 -16h-110zM78 208l2 16h110l-2 -16h-110zM498 208l2 16h110l-2 -16h-110zM494 180l3 16h110l-3 -16h-110zM82 236l2 15h110l-2 -15h-110zM502 236l2 15h110l-2 -15h-110z
M90 293l2 14h110l-2 -14h-110zM86 265l2 14h110l-2 -14h-110zM94 321l2 14h110l-2 -14h-110zM506 265l2 14h110l-2 -14h-110zM510 293l2 14h110l-2 -14h-110zM514 321l2 14h110l-2 -14h-110zM98 349l2 13h110l-2 -13h-110zM518 349l2 13h110l-2 -13h-110zM522 378l2 12h110
l-2 -12h-110zM102 378l2 12h110l-2 -12h-110zM106 406l2 12h110l-2 -12h-110zM526 406l2 12h110l-2 -12h-110zM110 434l2 11h110l-2 -11h-110zM530 434l2 11h110l-2 -11h-110zM542 519l1 10h110l-1 -10h-110zM114 463l1 10h110l-1 -10h-110zM118 491l1 10h110l-1 -10h-110z
M122 519l1 10h110l-1 -10h-110zM538 491l1 10h110l-1 -10h-110zM534 463l1 10h110l-1 -10h-110zM546 547l1 9h110l-1 -9h-110zM126 547v3l1 6h110l-1 -9h-110z" />
    <glyph glyph-name="p" unicode="p" 
d="M606 250l1 2l-1 -1v-1zM460 405l11 82h-200l-11 -82h200zM675 524q-2 -15 -4.5 -29.5t-3.5 -29.5l-4 -32q-1 -8 -1.5 -15.5t-2.5 -15.5q-2 -16 -5 -33.5t-7 -32.5q-4 -18 -11 -33t-17 -27l-12 -24l1 1l-2 -2v-1q-17 -35 -55 -58q-25 -15 -48 -17.5t-46 -2.5h-230
l-27 -194h-4l-25 -51h-176l103 736l23 45l1 12h449q28 0 51 -9.5t38 -26.5t21.5 -40.5t2.5 -52.5zM236 384l5 35l15 105l5 35h258l-5 -35l-15 -105l-5 -35h-258zM663 591q7 48 -20.5 78t-74.5 30h-288h-35h-105l-98 -700h140l34 245h101h161q23 0 45.5 1.5t46.5 15.5
q24 15 37.5 33t19.5 44q11 47 15.5 93t11.5 93zM611 335l-5 -14h-504l2 14h507zM599 307q-2 -4 -4.5 -7.5t-6.5 -6.5h-490l2 14h499zM617 362q-2 -5 -3 -13h-508l2 13h509zM571 279l-9 -6l2 1q-10 -6 -20 -9h-450l2 14h475zM138 576l1 8h508l-1 -8h-508zM649 612v-4v-4h-507
l1 8h506zM642 640l3 -8h-499l1 8h495zM621 667l8 -7h-479l1 7h470zM62 38l3 19h110l-3 -19h-110zM66 67l3 18h110l-3 -18h-110zM70 95l3 18h110l-3 -18h-110zM74 123l3 18h110l-3 -18h-110zM78 151l3 17h110l-3 -17h-110zM86 208l2 16h110l-2 -16h-110zM82 180l3 16h110
l-3 -16h-110zM169 14h-110l2 16h110zM90 236l2 15h110l-2 -15h-110zM512 406l2 12h112l-2 -12h-112zM622 390q-1 -3 -1.5 -6t-1.5 -6h-111l2 12h112zM110 378l2 12h110l-2 -12h-110zM114 406l2 12h110l-2 -12h-110zM516 434l2 11h111l-2 -11h-111zM118 434l2 11h110l-2 -11
h-110zM631 473v-4.5v-4.5v-1h-111l1 10h110zM130 519l1 10h110l-1 -10h-110zM122 463l1 10h110l-1 -10h-110zM126 491l1 10h110l-1 -10h-110zM524 491l1 10h110l-1 -10h-110zM639 524l-1 -5h-110l1 10h110v-5zM134 547l1 9h110l-1 -9h-110zM532 547l1 9h110l-1 -9h-110z" />
    <glyph glyph-name="q" unicode="q" horiz-adv-x="624" 
d="M91 597q0 -1 -0.5 -1.5l-1.5 -1.5zM116 648q-1 -1 -1 -4zM217 180l-2 -19h14zM261 488l-28 -198h200l17 -31l33 229h-222zM60 468q5 38 11.5 69.5t17.5 56.5l3 5l-1 -2l10 19q6 25 17.5 44.5t30.5 33t47.5 20.5t69.5 7h266q52 0 86.5 -6.5t52.5 -25t22 -52t-4 -88.5
l-58 -415q-3 -28 -8.5 -52t-24.5 -47l-8 -16l50 -85h-7l-25 -51h-218l-29 49l-1 -4h-53q-14 0 -32.5 -0.5t-41.5 -0.5q-27 0 -55 0.5t-53.5 2t-44 5t-26.5 8.5v-1q-22 11 -32.5 30t-15 43t-3 50t4.5 52l4 28t5 26q2 9 3 16.5t2 14.5zM475 172l-56 97h-172l182 -314h173
l-42 72q17 13 26.5 27.5t14.5 30t7 32t4 33.5l19 133l37 266q7 48 3.5 77.5t-19.5 46t-46.5 22t-76.5 5.5h-266q-50 0 -78.5 -12.5t-45 -35.5t-23 -56t-12.5 -74l-37 -266q-3 -22 -10 -57.5t-8.5 -72t6.5 -68t36 -46.5q6 -4 26.5 -6.5t47.5 -4t57 -1.5h57h47.5h27.5l-81 140
h-82l59 420h280l-41 -291zM473 141l10 -17l3 17h110l-1 -7l-2 -11h-244l-10 18h134zM83 38q-6 7 -11 19h229l11 -19h-229zM128 576l1 8h528l-1 -8h-528zM656 612l1 -8h-522q0 2 1 4t1 4h519zM592 113q-1 -5 -1.5 -9t-2.5 -9h-223q-3 5 -5.5 9t-4.5 9h237zM146 632l5 8h500
l3 -8h-508zM68 67l-3 18h220l10 -18h-227zM63 95v18h206l10 -18h-216zM585 85q-3 -5 -5 -9t-5 -9h-194q-3 5 -5.5 9t-4.5 9h214zM168 660l11 7h451l8 -7h-470zM569 57q-4 -5 -8 -9.5t-10 -9.5h-153q-3 5 -6 9.5t-5 9.5h182zM317 30l9 -15q-13 0 -28.5 -0.5t-33.5 -0.5
q-26 0 -52.5 0.5t-50 1.5t-39.5 3.5t-21 5.5q-3 1 -9 5h225zM555 2l12 -20h-137l-12 20h137zM540 29l10 -19h-136l-12 20h139zM333 151l-9 17h134l9 -17h-134zM174 125h89v-2h-200q1 5 1 9v9h112zM301 208l-10 16h134l9 -16h-133zM317 180l-9 16h134l8 -16h-133zM285 236
q-2 4 -4.5 7.5t-4.5 7.5h134l8 -15h-133zM65 151l3 17h112l-3 -17h-112zM487 151l3 17h110l-3 -17h-110zM69 180l3 16h112l-3 -16h-112zM73 208l3 15v1h111l-2 -16h-112zM491 180l3 16h110l-3 -16h-110zM495 208l2 16h110l-2 -16h-110zM499 236l2 15h110l-2 -15h-110z
M79 236l2 15h110l-2 -15h-110zM503 265l2 14h110l-2 -14h-110zM511 321l2 14h110l-2 -14h-110zM83 265l2 14h110l-2 -14h-110zM87 293l2 14h110l-2 -14h-110zM91 321l2 14h110l-2 -14h-110zM507 293l2 14h110l-2 -14h-110zM515 349l2 13h110l-2 -13h-110zM95 349l2 13h110
l-2 -13h-110zM519 378l2 12h110l-2 -12h-110zM99 378l2 12h110l-2 -12h-110zM103 406l2 12h110l-2 -12h-110zM523 406l2 12h110l-2 -12h-110zM527 434l2 11h110l-2 -11h-110zM107 434l2 11h110l-2 -11h-110zM531 463l1 10h110l-1 -10h-110zM535 491l1 10h110l-1 -10h-110z
M119 519v3l1 7h110l-1 -10h-110zM539 519l1 10h110l-1 -10h-110zM115 491l1 10h110l-1 -10h-110zM111 463l1 10h110l-1 -10h-110zM653 549v-2h-110l1 9h110zM123 547l1 9h110l-1 -9h-110zM572 -26l3 -4h-137l-3 4h137zM326 15h30l-4 -5h-24zM341 -9l-8 11h14z" />
    <glyph glyph-name="r" unicode="r" horiz-adv-x="613" 
d="M460 407l12 82h-207l-12 -82h207zM677 521q-1 -7 -1.5 -13.5t-0.5 -12.5l-7 -44q0 -5 -0.5 -10t-0.5 -10q-4 -23 -8.5 -46t-9.5 -47q-9 -34 -28 -57l-13 -27q1 1 1 4l-1 -4v-1q-10 -18 -23.5 -31.5t-32.5 -26.5q-6 -5 -12.5 -7.5t-11.5 -4.5l85 -203h-6l-25 -51h-202
l-102 245h-58l-27 -194h-4l-25 -51h-176l103 736l23 45l1 12h456q28 0 51.5 -10.5t38.5 -28.5t22.5 -42.5t3.5 -52.5zM229 386l5 35l15 105l5 35h265l-5 -35l-15 -105l-5 -35h-265zM666 588q3 24 -3 44.5t-19 36t-32 24t-43 8.5h-295h-35h-105l-99 -700h140l35 245h109
l101 -245h160l-101 245q24 0 46 1.5t46 16.5q24 14 37 32t20 44q12 48 17 91t11 90zM611 335q0 -4 -1.5 -7.5t-3.5 -6.5h-511l2 14h514zM599 307q-2 -4 -5 -7.5t-7 -6.5h-496l2 14h506zM618 362q-2 -5 -3 -13h-516l2 13h517zM570 279l-5 -3q-11 -8 -27 -11h-451l2 14h481z
M649 576h-518l1 8h518zM651 612q-1 -4 1 -8h-517l1 8h515zM644 640q1 -6 3 -8h-508l1 8h504zM623 667l7 -7h-487l1 7h479zM420 38l-7 19h127l7 -19h-127zM408 67l-7 18h127l7 -18h-127zM397 95l-7 18h127l7 -18h-127zM385 123l-7 18h127l7 -18h-127zM374 151l-7 17h127
l7 -17h-127zM55 38l3 19h110l-3 -19h-110zM362 180l-6 16h127l6 -16h-127zM350 208l-7 16h127l7 -16h-127zM59 67l3 18h110l-3 -18h-110zM63 95l3 18h110l-3 -18h-110zM67 123l3 18h110l-3 -18h-110zM339 236l-7 15h127l7 -15h-127zM71 151l3 17h110l-3 -17h-110zM551 30
l6 -14h-127l-6 14h127zM75 180l3 16h110l-3 -16h-110zM79 208l2 16h110l-2 -16h-110zM83 236l2 15h110l-2 -15h-110zM162 16h-110l2 14h110zM629 418l-2 -6t-1 -6h-114l2 12h115zM624 390q-1 -3 -1.5 -6t-1.5 -6h-113l2 12h114zM103 378l2 12h110l-2 -12h-110zM107 406l2 12
h110l-2 -12h-110zM633 445l-2 -11h-115l2 11h115zM111 434l2 11h110l-2 -11h-110zM635 471l-1 -8h-114l1 10h114v-2zM524 491l1 10h113l-1 -10h-113zM641 521v-2h-113l1 10h113zM123 519l1 10h110l-1 -10h-110zM115 463l1 10h110l-1 -10h-110zM119 491l1 10h110l-1 -10h-110
zM532 547l1 9h113l-1 -9h-113zM127 547l1 9h110l-1 -9h-110z" />
    <glyph glyph-name="s" unicode="s" horiz-adv-x="643" 
d="M92 584l3 5q-3 -4 -3 -5zM270 489l-7 -47h222l7 47h-222zM230 209l-6 -47h222l6 47h-222zM636 106q-5 -36 -28 -66l-10 -22l-5 -8q-18 -36 -52 -58.5t-75 -22.5h-350q-26 0 -47 9.5t-35.5 26t-20.5 39t-3 48.5l18 123l22 45l2 12h33q-21 17 -30.5 42.5t-4.5 57.5l29 210
q4 24 13 42l7 14l7 14q13 47 51.5 78.5t88.5 31.5h350q26 0 48 -10t36.5 -27t21 -40t3.5 -49l-18 -126h-4l-25 -51h-31q21 -17 32 -44t6 -59zM644 316q4 22 -2 41t-18 33t-30 22.5t-40 8.5h-315l20 140h280l-10 -70h140l15 105q3 22 -3 41t-18 33t-29.5 22.5t-39.5 8.5h-350
q-22 0 -42.5 -8.5t-37 -22.5t-27 -33t-13.5 -41l-30 -210q-3 -22 2.5 -41t18 -33.5t30 -22.5t39.5 -8h315l-19 -140h-280l10 70h-140l-15 -105q-3 -22 2 -41t17.5 -33.5t30.5 -22.5t40 -8h350q22 0 42 8t36 22.5t27.5 33.5t14.5 41zM600 106q-1 -8 -3 -11h-529l2 11l1 7h530
zM594 85q-4 -11 -9 -18h-513l-3 18h525zM579 57q-5 -5 -9.5 -10t-10.5 -9h-469q-7 7 -14 19h503zM127 321q-6 6 -10 14h513v-14h-503zM111 349q-1 5 -2 13h514q1 -3 2 -6.5t3 -6.5h-517zM108 378l1 8l1 4h491l12 -12h-505zM548 30q-24 -14 -51 -14h-350q-28 0 -48 14h449z
M516 293l1 3h-330q-24 0 -43 11h484l-2 -14h-110zM183 126h310l2 15h110l-3 -18h-530l3 18h110zM666 576h-530l1 8h530zM140 604q0 2 1 4t1 4h527q1 -3 0 -8h-529zM151 632l5 8h507l3 -8h-515zM174 660l9 7h461q2 -3 8 -7h-478zM76 151l3 17h110l-3 -17h-110zM496 151l3 17
h110l-3 -17h-110zM500 180l3 16h110l-3 -16h-110zM504 208l2 16h110l-2 -16h-110zM80 180l3 16h110l-3 -16h-110zM508 236l2 15h110l-2 -15h-110zM512 265l2 14h110l-2 -14h-110zM112 406l2 12h110l-2 -12h-110zM116 434l2 11h110l-2 -11h-110zM548 519l1 10h110l-1 -10
h-110zM124 491l1 10h110l-1 -10h-110zM128 519l1 10h110l-1 -10h-110zM120 463l1 10h110l-1 -10h-110zM132 547l1 9h110l-1 -9h-110zM552 547l1 9h110l-1 -9h-110z" />
    <glyph glyph-name="t" unicode="t" horiz-adv-x="601" 
d="M703 720l-25 -182h-4l-26 -51h-188l-71 -509h-4l-25 -51h-176l78 560h-210l25 176l23 45l1 12h602zM119 699l-19 -140h210l-79 -560h140l79 560h210l19 140h-560zM117 576l1 8h530l-1 -8h-530zM121 604l1 8h530l-1 -8h-530zM125 632l1 8h530l-1 -8h-530zM129 660l1 7h530
l-1 -7h-530zM251 38l3 19h110l-3 -19h-110zM263 123l3 18h110l-3 -18h-110zM259 95l3 18h110l-3 -18h-110zM255 67l3 18h110l-3 -18h-110zM267 151l3 17h110l-3 -17h-110zM271 180l3 16h110l-3 -16h-110zM275 208l2 16h110l-2 -16h-110zM358 14h-110l2 16h110zM279 236l2 15
h110l-2 -15h-110zM287 293l2 14h110l-2 -14h-110zM283 265l2 14h110l-2 -14h-110zM291 321l2 14h110l-2 -14h-110zM295 349l2 13h110l-2 -13h-110zM299 378l2 12h110l-2 -12h-110zM303 406l2 12h110l-2 -12h-110zM307 434l2 11h110l-2 -11h-110zM315 491l1 10h110l-1 -10
h-110zM319 519l1 10h110l-1 -10h-110zM311 463l1 10h110l-1 -10h-110zM323 547l1 9h110l-1 -9h-110z" />
    <glyph glyph-name="u" unicode="u" horiz-adv-x="647" 
d="M306 720l-79 -560h222l71 503l23 45l1 12h182l-76 -541q0 -4 -3 -19.5t-6.5 -33.5t-6 -34t-4.5 -20q-6 -12 -11.5 -22.5t-12.5 -18.5l-11 -23q-15 -29 -35 -46.5t-51 -28.5q-7 -2 -19.5 -3t-29.5 -2t-36.5 -1h-38.5h-180h-38t-35.5 1t-28.5 2t-16 3v1q-34 11 -50 28.5
t-21 52.5q-2 25 0.5 47t5.5 43l78 558l23 45l1 12h182zM69 179q-3 -25 -7.5 -52t-1.5 -53q4 -31 18 -45.5t44 -24.5q7 -3 36.5 -4t63.5 -1h64h38h38h65t65.5 1t39.5 4q31 10 49 27t30 48q2 4 4.5 18.5t5.5 31.5t5.5 31.5t2.5 18.5l73 520h-105h-35l-78 -560h-280l78 560h-35
h-105zM603 113q-2 -13 -4 -18h-525l1 18h528zM584 57q-8 -13 -17 -19h-476q-7 6 -11 19h504zM597 85v-3l1 1l-8 -16h-514l-1 11h1l-1 7h522zM556 30q-11 -7 -27 -12q-4 -1 -15 -2t-26.5 -1.5t-34 -0.5h-37.5h-180h-36t-33 0.5t-25.5 1.5t-12.5 2q-16 4 -28 12h455zM186 124
h310l3 17h109q-1 -5 -2 -9t-2 -9h-528l3 18h110zM80 151l1 8l2 9h110l-3 -17h-110zM613 168l-2 -8t-2 -9h-109l3 17h110zM84 180l3 16h110l-3 -16h-110zM88 208l2 16h110l-2 -16h-110zM504 180l3 16h110l-3 -16h-110zM508 208l2 16h110l-2 -16h-110zM92 236l2 15h110l-2 -15
h-110zM512 236l2 15h110l-2 -15h-110zM96 265l2 14h110l-2 -14h-110zM100 293l2 14h110l-2 -14h-110zM104 321l2 14h110l-2 -14h-110zM516 265l2 14h110l-2 -14h-110zM520 293l2 14h110l-2 -14h-110zM524 321l2 14h110l-2 -14h-110zM528 349l2 13h110l-2 -13h-110zM108 349
l2 13h110l-2 -13h-110zM112 378l2 12h110l-2 -12h-110zM116 406l2 12h110l-2 -12h-110zM532 378l2 12h110l-2 -12h-110zM536 406l2 12h110l-2 -12h-110zM120 434l2 11h110l-2 -11h-110zM540 434l2 11h110l-2 -11h-110zM548 491l1 10h110l-1 -10h-110zM552 519l1 10h110
l-1 -10h-110zM128 491l1 10h110l-1 -10h-110zM124 463l1 10h110l-1 -10h-110zM132 519l1 10h110l-1 -10h-110zM544 463l1 10h110l-1 -10h-110zM556 547l1 9h110l-1 -9h-110zM136 547l1 9h110l-1 -9h-110zM564 604l1 8h110l-1 -8h-110zM568 632l1 8h110l-1 -8h-110zM144 604
l1 8h110l-1 -8h-110zM560 576l1 8h110l-1 -8h-110zM140 576l1 8h110l-1 -8h-110zM148 632l1 8h110l-1 -8h-110zM572 660l1 7h110l-1 -7h-110zM152 660l1 7h110l-1 -7h-110z" />
    <glyph glyph-name="v" unicode="v" horiz-adv-x="675" 
d="M795 721l-374 -742h-3l-25 -51h-175l-164 736l25 50l-2 7h194l101 -455q16 32 32 64.5t33 64.5q40 79 82.5 164t81.5 162h194zM613 700l-249 -495l-111 495h-149l156 -700h149l353 700h-149zM357 168l1 -6l3 6h117l-9 -17h-227l-3 17h118zM248 123l-4 18h220l-9 -18h-207
zM254 95l-4 18h200l-9 -18h-187zM260 67l-4 18h180l-9 -18h-167zM266 38l-4 19h160l-10 -19h-146zM401 15h-129l-4 15h140zM229 208l-4 16h118l4 -16h-118zM235 180l-2 16h118l2 -16h-118zM366 180l9 16h117l-9 -16h-117zM381 208l8 16h117l-8 -16h-117zM223 236l-4 15h118
l4 -15h-118zM395 236l8 15h117l-8 -15h-117zM204 321l-3 14h118l3 -14h-118zM210 293l-3 14h118l3 -14h-118zM216 265l-3 14h118l3 -14h-118zM424 293l7 14h117l-7 -14h-117zM410 265l7 14h117l-7 -14h-117zM438 321l7 14h117l-7 -14h-117zM198 349l-2 13h118l2 -13h-118z
M452 349l6 13h118l-7 -13h-117zM185 406l-2 12h118l2 -12h-118zM192 378l-3 12h118l3 -12h-118zM466 378l7 12h117l-6 -12h-118zM481 406l6 12h118l-7 -12h-117zM179 434l-2 11h118l2 -11h-118zM495 434l6 11h118l-6 -11h-118zM172 463l-2 10h118l2 -10h-118zM160 519l-2 10
h118l2 -10h-118zM166 491l-2 10h118l2 -10h-118zM510 463l4 10h118l-5 -10h-117zM538 519l4 10h118l-5 -10h-117zM524 491l4 10h118l-5 -10h-117zM154 547l-2 9h118l2 -9h-118zM552 547l4 9h118l-5 -9h-117zM147 576l-2 8h119l2 -8h-119zM141 604l-2 8h119l2 -8h-119z
M566 576l4 8h118l-4 -8h-118zM580 604l4 8h118l-4 -8h-118zM135 632l-2 8h118l2 -8h-118zM595 632l4 8h118l-4 -8h-118zM609 660l3 7h118l-3 -7h-118zM129 660l-2 7h118l2 -7h-118z" />
    <glyph glyph-name="w" unicode="w" horiz-adv-x="945" 
d="M1068 721l-282 -742h-4l-25 -51h-224l-34 346l-113 -295h-4l-25 -51h-224l-74 736l24 48l-1 9h189l42 -427l142 370l13 25q3 8 5.5 16t5.5 16h191l42 -434l144 377l10 21l14 36h188zM894 700l-194 -507l-51 507h-155l-193 -507l-51 507h-144l71 -700h195l161 423l43 -423
h195l267 700h-144zM177 151q-1 4 -1 8v9h245l-7 -17h-237zM180 123l-2 18h233l-8 -18h-223zM580 123l-1 18h231l-8 -18h-222zM577 151l-1 17h244l-7 -17h-236zM183 95l-2 18h219l-8 -18h-209zM582 95l-1 18h218l-8 -18h-209zM286 196l1 -13h26l5 13h114l-7 -16h-251
q-1 6 -1 16h113zM685 196l1 -13l26 -1l5 14h114l-7 -16h-250v16h111zM185 67v9t-1 9h205l-8 -18h-196zM585 67l-1 18h204l-8 -18h-195zM188 38l-1 19h191l-8 -19h-182zM588 38l-2 19h191l-8 -19h-181zM661 434h-253l4 11h249v-11zM761 15h-171l-2 15h178zM362 15h-171l-2 15
h178zM419 463l3 10h235l2 -10h-240zM430 491l3 10h221l2 -10h-226zM441 519l3 10h207l2 -10h-212zM322 208l5 16h115l-6 -16h-114zM721 208l6 16h114l-6 -16h-114zM171 208q-1 4 -0.5 7.5t-1.5 8.5h113l2 -16h-113zM572 208l-2 16h111l2 -16h-111zM452 547q0 3 3 9h194l1 -9
h-198zM332 236l6 15h115l-6 -15h-115zM732 236l6 15h114l-6 -15h-114zM168 236l-1 15h113l1 -15h-113zM569 236l-2 15h112l1 -15h-111zM343 265l5 14h116l-6 -14h-115zM354 293l5 14h115l-5 -14h-115zM364 321l6 14h115l-5 -14h-116zM159 321l-1 14h114l2 -14h-115zM162 293
l-1 14h114l1 -14h-114zM765 321l6 14h114l-6 -14h-114zM743 265l6 14h114l-6 -14h-114zM754 293l6 14h114l-6 -14h-114zM165 265l-1 14h113l2 -14h-114zM560 321l-2 14h113l2 -14h-113zM563 293l-2 14h113l1 -14h-112zM566 265l-2 14h112l2 -14h-112zM375 349l5 13h115
l-5 -13h-115zM776 349l5 13h114l-5 -13h-114zM157 349l-1 13h114l1 -13h-114zM557 349l-1 13h113l1 -13h-113zM463 576q0 2 3 8h180l1 -8h-184zM154 378l-1 12h114l1 -12h-114zM386 378l5 12h115l-5 -12h-115zM151 406l-1 12h114l1 -12h-114zM798 406l5 12h114l-5 -12h-114z
M397 406l5 12h114l-5 -12h-114zM787 378l5 12h114l-5 -12h-114zM551 406l-1 12h113l1 -12h-113zM554 378l-1 12h113l1 -12h-113zM473 604q2 4 3 8h167l1 -8h-171zM148 434l-1 11h115v-11h-114zM809 434l5 11h113l-4 -11h-114zM484 632q2 4 3 8h153l1 -8h-157zM145 463l-1 10
h114l2 -10h-115zM142 491l-1 10h114l2 -10h-115zM140 519l-2 10h114l2 -10h-114zM820 463l4 10h113l-4 -10h-113zM831 491l3 10h113l-3 -10h-113zM842 519l3 10h113l-3 -10h-113zM137 547q-1 6 -1 9h114l1 -9h-114zM852 547l3 9h113l-3 -9h-113zM495 660q0 2 0.5 3.5
t1.5 3.5h140l1 -7h-143zM134 576q-1 4 -1 8h114l1 -8h-114zM131 604l-1 8h114l1 -8h-114zM128 632q0 2 -1 8h114l1 -8h-114zM884 632l3 8h113l-3 -8h-113zM874 604l3 8h113l-3 -8h-113zM863 576l3 8h113l-3 -8h-113zM125 660q0 2 -0.5 3.5t0.5 3.5h113l1 -7h-114zM895 660
l2 7h113l-2 -7h-113z" />
    <glyph glyph-name="x" unicode="x" horiz-adv-x="566" 
d="M677 701l-19 -37l-219 -318l149 -367h-6l-25 -51h-201l-77 186l-129 -186h-201l25 51h-4l229 333q-17 42 -36 86.5t-37.5 90t-36.5 90t-35 85.5l25 50l-3 7h208l74 -179q30 45 62 89.5t62 89.5h208zM651 700h-159l-140 -203l-84 203h-159l142 -348l-242 -352h159l143 207
l85 -207h159l-144 352zM315 238q-1 -1 -1 -2h-126l10 15h236l7 -15h-125zM208 265l9 14h206l5 -14h-220zM227 293l10 14h175l5 -14h-190zM344 473l3 -7l5 7h126l-7 -10h-247l-5 10h125zM235 434l-4 11h228l-8 -11h-216zM51 38l14 19h126q-3 -5 -6.5 -9.5t-6.5 -9.5h-127z
M396 38l-7 19h126l7 -19h-126zM246 406l-4 12h198l-8 -12h-186zM210 85l-12 -18h-127l13 18h126zM230 113q-4 -5 -7 -9t-6 -9h-126l13 18h126zM249 141q-4 -5 -6.5 -9t-6.5 -9h-126l13 18h126zM385 67l-7 18h125l7 -18h-125zM373 95l-6 18h125l7 -18h-126zM362 123l-7 18
h125l7 -18h-125zM268 168l-13 -17h-125l12 17h126zM247 321l9 14h145l5 -14h-159zM351 151l-7 17h125l7 -17h-125zM150 180l11 16h126l-12 -16h-125zM305 224l-11 -16h-125l11 16h125zM339 180l-6 16h125l6 -16h-125zM327 208l-7 16h125l7 -16h-125zM258 378l-5 12h168
l-9 -12h-154zM172 30q-2 -4 -4.5 -7.5t-5.5 -7.5h-126l10 15h126zM526 30l6 -15h-126l-6 15h126zM394 352l1 -3h-129l2 3l-4 10h137zM365 491l6 10h126l-6 -10h-126zM200 519l-4 10h126l4 -10h-126zM384 519l7 10h126l-7 -10h-126zM212 491l-4 10h125l4 -10h-125zM189 547
l-4 9h126l4 -9h-126zM404 547l6 9h126l-6 -9h-126zM154 632q-2 2 -2 4t-2 4h127l3 -8h-126zM165 604l-3 8h126l4 -8h-127zM424 576l5 8h126l-5 -8h-126zM462 632l6 8h126l-6 -8h-126zM443 604l6 8h126l-6 -8h-126zM177 576l-3 8h126l3 -8h-126zM142 660l-2 7h126l3 -7h-127z
M481 660l5 7h126l-5 -7h-126z" />
    <glyph glyph-name="y" unicode="y" horiz-adv-x="657" 
d="M786 721l-13 -18l-20 -39l-296 -383l-42 -302h-4l-25 -51h-176l45 318l-207 418l25 50l-4 7h217l111 -223q43 56 86 111.5t86 111.5h217zM578 700l-187 -243l-120 243h-166l195 -395l-43 -305h140l43 305l304 395h-166zM268 406q-5 8 -6 12h247l-10 -12h-231zM281 378
l-5 12h211l-9 -12h-197zM296 349l-7 13h177l-10 -13h-160zM277 38l3 19h110l-3 -19h-110zM289 123l3 18h110l-3 -18h-110zM281 67l3 18h110l-3 -18h-110zM285 95l3 18h110l-3 -18h-110zM293 151l3 17h110l-3 -17h-110zM309 321q-1 3 -2.5 6.5t-3.5 7.5h142l-11 -14h-125z
M297 180l3 16h110l-3 -16h-110zM301 208l2 16h110l-2 -16h-110zM305 236l2 15h110l-2 -15h-110zM384 15h-110l2 15h110zM309 265l2 14h110l-2 -14h-110zM313 293l2 14h110l-2 -14h-110zM254 434q-3 3 -5 11h130l5 -11h-130zM392 434l9 11h129l-9 -11h-129zM240 463
q-2 2 -3 4.5t-3 5.5h130l6 -10h-130zM457 519l7 10h130l-7 -10h-130zM435 491l8 10h130l-8 -10h-130zM414 463l7 10h130l-8 -10h-129zM226 491l-5 10h129l6 -10h-130zM213 519q-2 2 -3 4.5t-3 5.5h129l6 -10h-129zM478 547l7 9h130l-7 -9h-130zM199 547l-5 9h129l5 -9h-129z
M543 632l6 8h130l-6 -8h-130zM500 576l6 8h130l-6 -8h-130zM522 604l6 8h130l-6 -8h-130zM157 632l-4 8h129l4 -8h-129zM171 604q-4 3 -4 8h129l4 -8h-129zM185 576q-4 3 -4 8h128l4 -8h-128zM565 660l5 7h130l-5 -7h-130zM144 660l-4 7h129l4 -7h-129z" />
    <glyph glyph-name="z" unicode="z" horiz-adv-x="629" 
d="M89 663l23 45l1 12h602l-23 -168l-7 -7l-23 -46l-349 -339h323l-25 -182h-4l-25 -51h-596l23 164l22 45l2 10l349 341h-318zM241 139l431 420l19 140h-560l-19 -140h373l-432 -420l-20 -140h560l20 140h-372zM53 38l3 19h530l-3 -19h-530zM57 67l3 18h530l-3 -18h-530z
M61 95l3 18h530l-3 -18h-530zM580 14h-530l2 16h530zM129 576l1 8h530l-1 -8h-530zM133 604l1 8h530l-1 -8h-530zM137 632l1 8h530l-1 -8h-530zM141 660l1 7h530l-1 -7h-530zM595 124v-1h-530l2 11l7 7h149l-18 -17h390zM84 151l18 17h149l-18 -17h-149zM113 180l17 16h149
l-17 -16h-149zM142 208l16 16h149l-16 -16h-149zM171 236l15 15h149l-16 -15h-148zM201 265l14 14h149l-15 -14h-148zM259 321l14 14h149l-15 -14h-148zM230 293l14 14h149l-15 -14h-148zM288 349l13 13h149l-14 -13h-148zM317 378l13 12h148l-12 -12h-149zM346 406l13 12
h148l-13 -12h-148zM375 434l12 11h147l-11 -11h-148zM463 519l10 10h147l-10 -10h-147zM434 491l10 10h147l-10 -10h-147zM405 463l10 10h147l-10 -10h-147zM492 547l9 9h147l-9 -9h-147z" />
  </font>
</defs>
</svg>
